<svg width="294" height="191" xmlns="http://www.w3.org/2000/svg" xmlns:xlink="http://www.w3.org/1999/xlink" overflow="hidden"><g transform="translate(-387 -53)"><path d="M679.49 193.493 419.49 193.493 419.49 59.7852C419.493 56.8637 422.161 54.4962 425.452 54.4928L673.527 54.4928C676.819 54.4958 679.486 56.8637 679.49 59.7852Z" stroke="#404040" stroke-width="0.333333" stroke-miterlimit="8" fill="none" fill-rule="evenodd"/><path d="M489.5 243.5 600.371 243.5" stroke="#404040" stroke-width="0.666667" stroke-miterlimit="8" fill="none" fill-rule="evenodd"/><path d="M421.273 206 425.75 206C426.121 206 426.422 206.125 426.653 206.376 426.884 206.627 427 206.951 427 207.348L427 211.767 425.42 211.767 425.42 207.493 421.58 207.493 421.58 211.5 426.511 217.837C426.837 218.258 427 218.731 427 219.258L427 223.652C427 224.049 426.884 224.373 426.653 224.624 426.422 224.875 426.121 225 425.75 225L421.273 225C420.902 225 420.597 224.875 420.358 224.624 420.119 224.373 420 224.049 420 223.652L420 218.833 421.58 218.833 421.58 223.507 425.42 223.507 425.42 218.978 420.511 212.641C420.17 212.204 420 211.722 420 211.196L420 207.348C420 206.951 420.119 206.627 420.358 206.376 420.597 206.125 420.902 206 421.273 206Z" fill="#404040" fill-rule="evenodd"/><path d="M441.125 206 444 206 444 207.42 441.389 207.42 441.389 213.187 443.694 213.187 443.694 214.608 441.389 214.608 441.389 225 439.569 225 439.569 214.608 438 214.608 438 213.187 439.569 213.187 439.569 207.372C439.569 206.457 440.088 206 441.125 206Z" fill="#404040" fill-rule="evenodd"/><path d="M494.344 206 496 206 496 224.927 494.344 224.927 494.344 224.601C492.554 224.867 491.563 225 491.371 225 490.66 225 490.087 224.768 489.652 224.305 489.217 223.841 489 223.262 489 222.569L489 215.688C489 214.962 489.247 214.359 489.74 213.879 490.234 213.4 490.852 213.16 491.597 213.16L494.344 213.16 494.344 206ZM492.036 214.575C491.116 214.575 490.656 215.03 490.656 215.941L490.656 222.23C490.656 223.133 491.116 223.585 492.036 223.585 492.253 223.585 493.023 223.545 494.344 223.464L494.344 214.575 492.036 214.575Z" fill="#404040" fill-rule="evenodd"/><path d="M503 206 504.79 206 507.519 215.506 510.223 206 512 206C512 206.057 512 206.093 512 206.109L509.588 213.794C509.284 214.563 508.882 215.846 508.382 217.643L508.382 225 506.618 225 506.618 217.643C506.499 217.028 506.317 216.38 506.072 215.7 505.666 214.535 505.446 213.9 505.412 213.794L503 206.109C503 206.101 503 206.065 503 206Z" fill="#404040" fill-rule="evenodd"/><path d="M545 206 549.44 206C550.474 206 551.326 206.322 551.995 206.965 552.665 207.609 553 208.432 553 209.436L553 221.564C553 222.568 552.663 223.391 551.989 224.035 551.315 224.678 550.466 225 549.44 225L545 225 545 206ZM546.724 207.493 546.724 223.507 549.019 223.507C549.688 223.507 550.232 223.319 550.65 222.942 551.067 222.566 551.276 222.05 551.276 221.394L551.276 209.582C551.276 208.958 551.075 208.454 550.674 208.07 550.273 207.686 549.755 207.493 549.118 207.493L546.724 207.493Z" fill="#404040" fill-rule="evenodd"/><path d="M587 206 588 206 588 225 587 225 587 206Z" fill="#404040" fill-rule="evenodd"/><path d="M597 206 598.794 206 600.523 219.672C600.532 219.979 600.549 220.431 600.575 221.028 600.566 220.721 600.584 220.269 600.627 219.672L602.733 206 604.28 206 606.373 219.672C606.39 219.979 606.408 220.431 606.425 221.028 606.425 220.721 606.447 220.269 606.49 219.672L608.219 206 610 206 607.231 225 605.762 225 603.552 210.711C603.543 210.46 603.526 210.089 603.5 209.597 603.5 209.855 603.483 210.226 603.448 210.711L601.238 225 599.769 225 597 206Z" fill="#404040" fill-rule="evenodd"/><path d="M628 206 629.705 206 629.705 218.068 632.91 213.187 634.744 213.187 634.744 213.236 631.115 218.456 635 225 633.141 225 629.705 218.978 629.705 225 628 225 628 206Z" fill="#404040" fill-rule="evenodd"/><path d="M555 208 557 208 557 210 555 210 555 208Z" fill="#404040" fill-rule="evenodd"/><path d="M568 208 570 208 570 210 568 210 568 208Z" fill="#404040" fill-rule="evenodd"/><path d="M572.399 209 573.966 209 573.966 212.799 576 212.799 576 214.266 573.966 214.266 573.966 223.533 576 223.533 576 225 573.739 225C572.846 225 572.399 224.528 572.399 223.583L572.399 214.266 571 214.266 571 212.799 572.399 212.799 572.399 209Z" fill="#404040" fill-rule="evenodd"/><path d="M455.371 213C455.563 213 456.554 213.131 458.344 213.392L458.344 213.071 460 213.071 460 227.659C460 228.553 459.527 229 458.582 229L454.618 229C453.657 229 453.176 228.434 453.176 227.303 453.176 227.168 453.182 226.968 453.194 226.703 453.207 226.438 453.213 226.246 453.213 226.128L454.857 226.128 454.857 227.659 458.344 227.659 458.344 224.62 455.597 224.62C454.852 224.62 454.234 224.385 453.74 223.914 453.247 223.443 453 222.852 453 222.139L453 215.386C453 214.705 453.217 214.138 453.652 213.682 454.087 213.227 454.66 213 455.371 213ZM456.036 214.389C455.116 214.389 454.656 214.832 454.656 215.718L454.656 221.902C454.656 222.788 455.116 223.231 456.036 223.231L458.344 223.231 458.344 214.507C457.023 214.428 456.253 214.389 456.036 214.389Z" fill="#404040" fill-rule="evenodd"/><path d="M485.703 213C486.568 213 487 213.445 487 214.336L487 216.996 485.456 216.996 485.456 214.532 482.568 214.63 482.568 225 481 225 481 213.074 482.568 213.074 482.568 213.405C483.086 213.323 483.609 213.237 484.136 213.147 484.764 213.049 485.287 213 485.703 213Z" fill="#404040" fill-rule="evenodd"/><path d="M535.703 213C536.568 213 537 213.445 537 214.336L537 216.996 535.456 216.996 535.456 214.532 532.568 214.63 532.568 225 531 225 531 213.074 532.568 213.074 532.568 213.405C533.086 213.323 533.609 213.237 534.136 213.147 534.764 213.049 535.287 213 535.703 213Z" fill="#404040" fill-rule="evenodd"/><path d="M561.371 213C561.563 213 562.554 213.131 564.344 213.392L564.344 213.071 566 213.071 566 227.659C566 228.553 565.527 229 564.582 229L560.618 229C559.656 229 559.176 228.434 559.176 227.303 559.176 227.168 559.182 226.968 559.194 226.703 559.207 226.438 559.213 226.246 559.213 226.128L560.857 226.128 560.857 227.659 564.344 227.659 564.344 224.62 561.597 224.62C560.852 224.62 560.234 224.385 559.74 223.914 559.247 223.443 559 222.852 559 222.139L559 215.386C559 214.705 559.217 214.138 559.652 213.682 560.087 213.227 560.66 213 561.371 213ZM562.036 214.389C561.116 214.389 560.656 214.832 560.656 215.718L560.656 221.902C560.656 222.788 561.116 223.231 562.036 223.231L564.344 223.231 564.344 214.507C563.023 214.428 562.253 214.389 562.036 214.389Z" fill="#404040" fill-rule="evenodd"/><path d="M625.487 213C626.496 213 627 213.445 627 214.336L627 216.996 625.198 216.996 625.198 214.532 621.829 214.63 621.829 225 620 225 620 213.074 621.829 213.074 621.829 213.405C622.434 213.323 623.044 213.237 623.658 213.147 624.392 213.049 625.001 213 625.487 213Z" fill="#404040" fill-rule="evenodd"/><path d="M650.809 213C651.603 213 652 213.431 652 214.294L652 222.139C652 222.852 651.789 223.443 651.367 223.914 650.945 224.385 650.415 224.62 649.778 224.62L647.428 224.62 647.428 229 646 229 646 213.071 647.428 213.071 647.428 213.392C647.993 213.313 648.558 213.233 649.123 213.154 649.839 213.051 650.401 213 650.809 213ZM650.572 214.484 647.428 214.579 647.428 223.231 649.403 223.231C650.182 223.231 650.572 222.788 650.572 221.902L650.572 214.484Z" fill="#404040" fill-rule="evenodd"/><path d="M431.551 213 435.587 213C436.529 213 437 213.462 437 214.385L437 224.926 435.348 224.926 435.348 224.596C434.683 224.685 434.019 224.771 433.355 224.853 432.531 224.951 431.871 225 431.375 225 430.458 225 430 224.559 430 223.676L430 219.325C430 218.41 430.475 217.952 431.425 217.952L435.373 217.952 435.373 214.361 431.766 214.361 431.766 216.395 430.139 216.395 430.139 214.385C430.139 213.462 430.61 213 431.551 213ZM431.627 219.227 431.627 223.517 435.373 223.443 435.373 219.227 431.627 219.227Z" fill="#404040" fill-rule="evenodd"/><path d="M445.441 213 449.559 213C450.52 213 451 213.465 451 214.394L451 218.71 450.421 219.29 445.66 219.29 445.66 223.631 449.34 223.631 449.34 221.436 451 221.436 451 223.606C451 224.535 450.52 225 449.559 225L445.441 225C444.48 225 444 224.535 444 223.606L444 214.394C444 213.465 444.48 213 445.441 213ZM445.66 214.369 445.66 217.983 449.34 217.983 449.34 214.369 445.66 214.369Z" fill="#404040" fill-rule="evenodd"/><path d="M463 213 464.411 213 464.411 223.468 467.589 223.37 467.589 213 469 213 469 224.926 467.589 224.926 467.589 224.596C467.014 224.685 466.443 224.771 465.876 224.853 465.187 224.951 464.616 225 464.163 225 463.388 225 463 224.559 463 223.676L463 213Z" fill="#404040" fill-rule="evenodd"/><path d="M473.33 213 476.789 213C477.596 213 478 213.462 478 214.385L478 224.926 476.584 224.926 476.584 224.596C476.014 224.685 475.445 224.771 474.876 224.853 474.169 224.951 473.604 225 473.178 225 472.393 225 472 224.559 472 223.676L472 219.325C472 218.41 472.407 217.952 473.222 217.952L476.605 217.952 476.605 214.361 473.513 214.361 473.513 216.395 472.119 216.395 472.119 214.385C472.119 213.462 472.523 213 473.33 213ZM473.395 219.227 473.395 223.517 476.605 223.443 476.605 219.227 473.395 219.227Z" fill="#404040" fill-rule="evenodd"/><path d="M514.202 213 517.787 213C518.596 213 519 213.465 519 214.394L519 223.606C519 224.535 518.596 225 517.787 225L514.202 225C513.401 225 513 224.535 513 223.606L513 214.394C513 213.465 513.401 213 514.202 213ZM514.428 214.443 514.428 223.557 517.572 223.557 517.572 214.443 514.428 214.443Z" fill="#404040" fill-rule="evenodd"/><path d="M522 213 523.411 213 523.411 223.468 526.589 223.37 526.589 213 528 213 528 224.926 526.589 224.926 526.589 224.596C526.014 224.685 525.443 224.771 524.876 224.853 524.187 224.951 523.616 225 523.163 225 522.388 225 522 224.559 522 223.676L522 213Z" fill="#404040" fill-rule="evenodd"/><path d="M555 213 557 213 557 225 555 225 555 213Z" fill="#404040" fill-rule="evenodd"/><path d="M568 213 570 213 570 225 568 225 568 213Z" fill="#404040" fill-rule="evenodd"/><path d="M578.551 213 582.587 213C583.529 213 584 213.462 584 214.385L584 224.926 582.348 224.926 582.348 224.596C581.683 224.685 581.019 224.771 580.355 224.853 579.531 224.951 578.871 225 578.375 225 577.458 225 577 224.559 577 223.676L577 219.325C577 218.41 577.475 217.952 578.425 217.952L582.373 217.952 582.373 214.361 578.766 214.361 578.766 216.395 577.139 216.395 577.139 214.385C577.139 213.462 577.61 213 578.551 213ZM578.627 219.227 578.627 223.517 582.373 223.443 582.373 219.227 578.627 219.227Z" fill="#404040" fill-rule="evenodd"/><path d="M612.402 213 616.585 213C617.528 213 618 213.465 618 214.394L618 223.606C618 224.535 617.528 225 616.585 225L612.402 225C611.467 225 611 224.535 611 223.606L611 214.394C611 213.465 611.467 213 612.402 213ZM612.665 214.443 612.665 223.557 616.335 223.557 616.335 214.443 612.665 214.443Z" fill="#404040" fill-rule="evenodd"/><path d="M637.516 213 641.484 213C642.477 213 642.974 213.465 642.974 214.394L642.974 216.786 641.273 216.786 641.273 214.418 637.727 214.418 637.727 216.515 642.354 220.03C642.785 220.35 643 220.786 643 221.337L643 223.606C643 224.535 642.503 225 641.51 225L637.49 225C636.497 225 636 224.535 636 223.606L636 220.881 637.727 220.881 637.727 223.582 641.273 223.582 641.273 221.189 636.685 217.674C636.246 217.345 636.026 216.918 636.026 216.392L636.026 214.394C636.026 213.465 636.523 213 637.516 213Z" fill="#404040" fill-rule="evenodd"/><path d="M656.33 213 659.789 213C660.596 213 661 213.462 661 214.385L661 224.926 659.584 224.926 659.584 224.596C659.014 224.685 658.445 224.771 657.876 224.853 657.169 224.951 656.604 225 656.178 225 655.393 225 655 224.559 655 223.676L655 219.325C655 218.41 655.407 217.952 656.222 217.952L659.605 217.952 659.605 214.361 656.513 214.361 656.513 216.395 655.119 216.395 655.119 214.385C655.119 213.462 655.523 213 656.33 213ZM656.395 219.227 656.395 223.517 659.605 223.443 659.605 219.227 656.395 219.227Z" fill="#404040" fill-rule="evenodd"/><path d="M665.452 213 669.548 213C670.516 213 671 213.465 671 214.394L671 216.786 669.302 216.786 669.302 214.443 665.724 214.443 665.724 223.557 669.302 223.557 669.302 220.881 671 220.881 671 223.606C671 224.535 670.516 225 669.548 225L665.452 225C664.484 225 664 224.535 664 223.606L664 214.394C664 213.465 664.484 213 665.452 213Z" fill="#404040" fill-rule="evenodd"/><path d="M674.441 213 678.559 213C679.52 213 680 213.465 680 214.394L680 218.71 679.421 219.29 674.66 219.29 674.66 223.631 678.34 223.631 678.34 221.436 680 221.436 680 223.606C680 224.535 679.52 225 678.559 225L674.441 225C673.48 225 673 224.535 673 223.606L673 214.394C673 213.465 673.48 213 674.441 213ZM674.66 214.369 674.66 217.983 678.34 217.983 678.34 214.369 674.66 214.369Z" fill="#404040" fill-rule="evenodd"/><path d="M417.745 87.9002C417.745 87.9002 394.515 97.4254 392.022 98.4607 389.545 99.4958 388.299 101.98 388.299 104.465 388.299 106.949 386.429 139.371 417.745 155.045 417.745 155.045 420.592 155.83 422.748 155.045 424.904 154.261 452.278 141.01 452.278 104.361 452.278 104.361 452.278 100.635 447.932 98.5643 443.569 96.4937 422.512 87.9002 422.512 87.9002 422.512 87.9002 419.935 86.7613 417.745 87.9002Z" stroke="#404040" stroke-width="0.666667" stroke-miterlimit="8" fill="#FFFFFF" fill-rule="evenodd"/><path d="M0 0 52 22.5 0 45 26.3673 21.6538 10.4867 26.5325 0 0Z" fill="#FFC000" fill-rule="evenodd" transform="matrix(-6.12323e-17 -1 -1 6.12323e-17 442 142)"/><path d="M465.943 102 470.057 102 478 136 473.177 136 471.758 128.587 464.242 128.587 462.823 136 458 136 465.943 102ZM468 108.968 465.044 124.402 470.956 124.402 468 108.968Z" fill-rule="evenodd"/><path d="M584.433 102 589 102 589 135.584 584.433 135.584 584.433 132.52 583.922 133.583C583.581 134.097 583.183 134.537 582.726 134.903 581.813 135.634 580.739 136 579.505 136 578.351 136 577.361 135.719 576.536 135.157 575.711 134.595 575.082 133.779 574.649 132.709 574.216 131.638 574 130.349 574 128.84L574 118.607C574 117.052 574.216 115.716 574.649 114.6 575.082 113.483 575.711 112.637 576.536 112.059 577.361 111.482 578.351 111.193 579.505 111.193 580.643 111.193 581.684 111.562 582.63 112.302 583.103 112.671 583.531 113.116 583.916 113.635L584.433 114.538 584.433 102ZM581.5 115.281C580.586 115.281 579.869 115.597 579.349 116.228 578.828 116.86 578.567 117.737 578.567 118.861L578.567 128.655C578.567 129.687 578.828 130.487 579.349 131.057 579.869 131.627 580.586 131.912 581.5 131.912 582.125 131.912 582.654 131.777 583.087 131.507 583.519 131.238 583.852 130.845 584.084 130.329 584.317 129.814 584.433 129.194 584.433 128.47L584.433 118.838C584.433 118.099 584.317 117.46 584.084 116.921 583.852 116.382 583.519 115.974 583.087 115.697 582.654 115.42 582.125 115.281 581.5 115.281Z" fill-rule="evenodd"/><path d="M642 102 646.347 102 646.347 123.47 653.509 111.728 658.062 111.728 651.811 121.241 659 136 654.241 136 649.357 124.977 646.347 129.557 646.347 136 642 136 642 102Z" fill-rule="evenodd"/><path d="M493.772 111C494.879 111 495.825 111.304 496.611 111.912 497.396 112.52 497.99 113.408 498.394 114.576 498.798 115.744 499 117.157 499 118.815L499 128.405C499 130.079 498.787 131.511 498.361 132.703 497.934 133.895 497.317 134.803 496.51 135.427 495.702 136.05 494.722 136.362 493.57 136.362 492.464 136.362 491.503 135.991 490.688 135.249 490.28 134.878 489.931 134.434 489.641 133.917L489.263 132.949 489.263 146 485 146 485 111.426 489.263 111.426 489.263 114.465 489.661 113.59C490.001 113.036 490.392 112.563 490.833 112.172 491.716 111.391 492.696 111 493.772 111ZM492 115.121C491.432 115.121 490.942 115.27 490.53 115.57 490.119 115.87 489.805 116.305 489.588 116.873 489.371 117.441 489.263 118.12 489.263 118.909L489.263 128.334C489.263 129.155 489.371 129.858 489.588 130.442 489.805 131.026 490.119 131.472 490.53 131.78 490.942 132.088 491.432 132.242 492 132.242 492.853 132.242 493.522 131.89 494.008 131.188 494.494 130.485 494.737 129.503 494.737 128.24L494.737 119.004C494.737 117.789 494.494 116.837 494.008 116.151 493.522 115.464 492.853 115.121 492 115.121Z" fill-rule="evenodd"/><path d="M516.772 111C517.879 111 518.825 111.304 519.611 111.912 520.396 112.52 520.99 113.408 521.394 114.576 521.798 115.744 522 117.157 522 118.815L522 128.405C522 130.079 521.787 131.511 521.361 132.703 520.934 133.895 520.317 134.803 519.51 135.427 518.702 136.05 517.722 136.362 516.57 136.362 515.464 136.362 514.503 135.991 513.688 135.249 513.28 134.878 512.931 134.434 512.641 133.917L512.263 132.949 512.263 146 508 146 508 111.426 512.263 111.426 512.263 114.465 512.661 113.59C513.001 113.036 513.392 112.563 513.833 112.172 514.716 111.391 515.695 111 516.772 111ZM515 115.121C514.432 115.121 513.942 115.27 513.53 115.57 513.119 115.87 512.805 116.305 512.588 116.873 512.371 117.441 512.263 118.12 512.263 118.909L512.263 128.334C512.263 129.155 512.371 129.858 512.588 130.442 512.805 131.026 513.119 131.472 513.53 131.78 513.942 132.088 514.432 132.242 515 132.242 515.853 132.242 516.522 131.89 517.008 131.188 517.494 130.485 517.737 129.503 517.737 128.24L517.737 119.004C517.737 117.789 517.494 116.837 517.008 116.151 516.522 115.464 515.853 115.121 515 115.121Z" fill-rule="evenodd"/><path d="M537.453 111C539.035 111 540.388 111.296 541.511 111.887 542.634 112.478 543.489 113.346 544.074 114.49 544.66 115.634 544.953 117.007 544.953 118.61L544.953 119.403 540.49 119.403 540.49 118.61C540.49 117.505 540.229 116.649 539.707 116.042 539.185 115.435 538.457 115.132 537.524 115.132 536.574 115.132 535.835 115.431 535.305 116.03 534.775 116.63 534.51 117.474 534.51 118.563L534.51 128.787C534.51 129.767 534.775 130.526 535.305 131.063 535.835 131.6 536.574 131.868 537.524 131.868 538.457 131.868 539.189 131.588 539.719 131.028 540.249 130.468 540.514 129.69 540.514 128.694L540.514 127.923 545 127.923 545 128.694C545 130.234 544.703 131.549 544.11 132.639 543.517 133.728 542.658 134.561 541.535 135.136 540.411 135.712 539.051 136 537.453 136 535.87 136 534.525 135.72 533.418 135.16 532.31 134.599 531.464 133.779 530.878 132.697 530.293 131.616 530 130.312 530 128.787L530 118.563C530 116.96 530.293 115.595 530.878 114.466 531.464 113.338 532.314 112.478 533.43 111.887 534.545 111.296 535.886 111 537.453 111Z" fill-rule="evenodd"/><path d="M559.047 111C560.519 111 561.776 111.269 562.817 111.805 563.859 112.342 564.649 113.128 565.19 114.163 565.73 115.198 566 116.447 566 117.909L566 129.044C566 130.507 565.73 131.759 565.19 132.802 564.649 133.845 563.859 134.638 562.817 135.183 561.776 135.728 560.519 136 559.047 136 557.575 136 556.31 135.724 555.253 135.171 554.196 134.619 553.39 133.817 552.834 132.767 552.278 131.717 552 130.452 552 128.974L552 117.909C552 116.447 552.278 115.198 552.834 114.163 553.39 113.128 554.196 112.342 555.253 111.805 556.31 111.269 557.575 111 559.047 111ZM559 115.318C558.217 115.318 557.598 115.563 557.144 116.054 556.69 116.544 556.463 117.225 556.463 118.096L556.463 128.857C556.463 129.744 556.686 130.437 557.133 130.935 557.579 131.433 558.201 131.682 559 131.682 559.799 131.682 560.421 131.437 560.867 130.946 561.314 130.456 561.537 129.76 561.537 128.857L561.537 118.096C561.537 117.225 561.314 116.544 560.867 116.054 560.421 115.563 559.799 115.318 559 115.318Z" fill-rule="evenodd"/><path d="M604.428 111C606.003 111 607.354 111.307 608.479 111.922 609.604 112.537 610.461 113.432 611.047 114.606 611.634 115.781 611.928 117.201 611.928 118.867L611.928 125.262 601.389 125.262 601.389 128.087C601.389 129.27 601.67 130.192 602.233 130.853 602.796 131.514 603.592 131.845 604.621 131.845 605.569 131.845 606.305 131.6 606.827 131.11 607.35 130.62 607.611 129.923 607.611 129.02L607.611 128.857 612 128.857 612 129.02C612 131.246 611.357 132.965 610.071 134.179 608.785 135.393 606.968 136 604.621 136 603.013 136 601.642 135.685 600.509 135.055 599.375 134.424 598.507 133.51 597.904 132.312 597.302 131.114 597 129.666 597 127.97L597 119.497C597 117.707 597.293 116.174 597.88 114.898 598.467 113.622 599.315 112.653 600.424 111.992 601.534 111.331 602.868 111 604.428 111ZM604.428 115.015C603.463 115.015 602.715 115.381 602.185 116.112 601.654 116.843 601.389 117.886 601.389 119.24L601.389 121.598 607.539 121.598 607.539 118.96C607.539 117.699 607.269 116.727 606.731 116.042 606.192 115.357 605.424 115.015 604.428 115.015Z" fill-rule="evenodd"/><path d="M626.309 111C627.758 111 629.008 111.272 630.059 111.817 631.11 112.362 631.914 113.144 632.471 114.163 633.029 115.182 633.307 116.392 633.307 117.793L633.307 117.933 628.817 117.933 628.817 117.746C628.817 116.859 628.598 116.17 628.16 115.68 627.722 115.19 627.105 114.945 626.309 114.945 625.513 114.945 624.896 115.217 624.458 115.762 624.02 116.307 623.801 117.069 623.801 118.05 623.801 118.719 623.952 119.267 624.255 119.695 624.557 120.123 624.951 120.458 625.437 120.699 625.923 120.94 626.548 121.185 627.312 121.434 627.344 121.45 627.384 121.461 627.431 121.469 627.479 121.477 627.519 121.489 627.551 121.504 627.567 121.52 627.591 121.528 627.623 121.528 627.654 121.528 627.678 121.535 627.694 121.551 629.032 121.971 630.119 122.403 630.955 122.846 631.791 123.29 632.507 123.994 633.104 124.959 633.701 125.924 634 127.239 634 128.904 634 130.367 633.697 131.631 633.092 132.697 632.487 133.763 631.623 134.58 630.501 135.148 629.378 135.716 628.045 136 626.5 136 624.955 136 623.622 135.708 622.499 135.125 621.377 134.541 620.513 133.701 619.908 132.604 619.302 131.507 619 130.219 619 128.74L619 128.554 623.49 128.554 623.49 128.74C623.49 129.783 623.753 130.596 624.279 131.18 624.804 131.763 625.545 132.055 626.5 132.055 627.439 132.055 628.176 131.775 628.709 131.215 629.243 130.654 629.51 129.884 629.51 128.904 629.51 128.25 629.354 127.717 629.044 127.305 628.733 126.892 628.339 126.566 627.861 126.324 627.384 126.083 626.707 125.807 625.831 125.496 625.768 125.48 625.708 125.465 625.652 125.449 625.596 125.434 625.537 125.41 625.473 125.379 625.425 125.364 625.381 125.348 625.341 125.332 625.302 125.317 625.258 125.301 625.21 125.286 624.032 124.85 623.033 124.383 622.213 123.885 621.392 123.387 620.704 122.671 620.146 121.738 619.589 120.804 619.31 119.606 619.31 118.143 619.31 116.68 619.593 115.412 620.158 114.338 620.724 113.264 621.532 112.439 622.583 111.864 623.634 111.288 624.876 111 626.309 111Z" fill-rule="evenodd"/><path d="M457 157 463.294 157C463.687 157 464.007 157.119 464.255 157.357 464.503 157.594 464.628 157.901 464.628 158.277L464.628 165.109C464.628 165.975 464.019 166.408 462.802 166.408 462.682 166.408 462.506 166.403 462.273 166.391 462.041 166.38 461.873 166.374 461.769 166.374 462.85 169.242 463.927 172.117 465 175L463.246 175 459.751 165.362 459.979 165.04 462.958 165.04 462.958 158.415 458.67 158.415 458.67 175 457 175 457 157Z" fill="#0D0D0D" fill-rule="evenodd"/><path d="M546 157 547.656 157 549.252 169.952C549.26 170.243 549.276 170.671 549.3 171.237 549.292 170.946 549.308 170.518 549.348 169.952L551.292 157 552.72 157 554.652 169.952C554.668 170.243 554.684 170.671 554.7 171.237 554.7 170.946 554.72 170.518 554.76 169.952L556.356 157 558 157 555.444 175 554.088 175 552.048 161.463C552.04 161.226 552.024 160.874 552 160.407 552 160.652 551.984 161.004 551.952 161.463L549.912 175 548.556 175 546 157Z" fill="#0D0D0D" fill-rule="evenodd"/><path d="M590 157 591.461 157 591.461 168.433 594.209 163.809 595.78 163.809 595.78 163.855 592.67 168.801 596 175 594.407 175 591.461 169.295 591.461 175 590 175 590 157Z" fill="#0D0D0D" fill-rule="evenodd"/><path d="M515.4 160 516.967 160 516.967 163.562 519 163.562 519 164.937 516.967 164.937 516.967 173.625 519 173.625 519 175 516.739 175C515.846 175 515.4 174.557 515.4 173.672L515.4 164.937 514 164.937 514 163.562 515.4 163.562 515.4 160Z" fill="#0D0D0D" fill-rule="evenodd"/><path d="M489.016 164C489.474 164 489.811 164.139 490.029 164.416 490.658 164.333 491.285 164.247 491.907 164.157 492.724 164.052 493.343 164 493.763 164 494.588 164 495 164.408 495 165.225L495 175 493.504 175 493.504 165.405 490.242 165.494 490.242 175 488.758 175 488.758 165.405 485.496 165.494 485.496 175 484 175 484 164.067 485.496 164.067 485.496 164.371C486.081 164.296 486.666 164.217 487.25 164.135 487.963 164.045 488.551 164 489.016 164Z" fill="#0D0D0D" fill-rule="evenodd"/><path d="M582.703 164C583.568 164 584 164.408 584 165.225L584 167.663 582.456 167.663 582.456 165.405 579.568 165.494 579.568 175 578 175 578 164.067 579.568 164.067 579.568 164.371C580.086 164.296 580.609 164.217 581.136 164.135 581.764 164.045 582.287 164 582.703 164Z" fill="#0D0D0D" fill-rule="evenodd"/><path d="M619.809 164C620.603 164 621 164.404 621 165.213L621 172.568C621 173.236 620.789 173.79 620.367 174.232 619.945 174.673 619.415 174.894 618.778 174.894L616.427 174.894 616.427 179 615 179 615 164.067 616.427 164.067 616.427 164.367C616.993 164.293 617.558 164.219 618.123 164.145 618.839 164.048 619.401 164 619.809 164ZM619.572 165.391 616.427 165.48 616.427 173.592 618.403 173.592C619.182 173.592 619.572 173.177 619.572 172.346L619.572 165.391Z" fill="#0D0D0D" fill-rule="evenodd"/><path d="M472.235 164 475.765 164C476.588 164 477 164.426 477 165.277L477 169.234 476.504 169.766 472.423 169.766 472.423 173.745 475.577 173.745 475.577 171.733 477 171.733 477 173.723C477 174.574 476.588 175 475.765 175L472.235 175C471.412 175 471 174.574 471 173.723L471 165.277C471 164.426 471.412 164 472.235 164ZM472.423 165.255 472.423 168.567 475.577 168.567 475.577 165.255 472.423 165.255Z" fill="#0D0D0D" fill-rule="evenodd"/><path d="M503.202 164 506.787 164C507.596 164 508 164.426 508 165.277L508 173.723C508 174.574 507.596 175 506.787 175L503.202 175C502.401 175 502 174.574 502 173.723L502 165.277C502 164.426 502.401 164 503.202 164ZM503.427 165.323 503.427 173.677 506.572 173.677 506.572 165.323 503.427 165.323Z" fill="#0D0D0D" fill-rule="evenodd"/><path d="M525.235 164 528.765 164C529.588 164 530 164.426 530 165.277L530 169.234 529.504 169.766 525.423 169.766 525.423 173.745 528.577 173.745 528.577 171.733 530 171.733 530 173.723C530 174.574 529.588 175 528.765 175L525.235 175C524.412 175 524 174.574 524 173.723L524 165.277C524 164.426 524.412 164 525.235 164ZM525.423 165.255 525.423 168.567 528.577 168.567 528.577 165.255 525.423 165.255Z" fill="#0D0D0D" fill-rule="evenodd"/><path d="M566.202 164 569.787 164C570.596 164 571 164.426 571 165.277L571 173.723C571 174.574 570.596 175 569.787 175L566.202 175C565.401 175 565 174.574 565 173.723L565 165.277C565 164.426 565.401 164 566.202 164ZM566.427 165.323 566.427 173.677 569.572 173.677 569.572 165.323 566.427 165.323Z" fill="#0D0D0D" fill-rule="evenodd"/><path d="M603.299 164 606.701 164C607.552 164 607.977 164.426 607.977 165.277L607.977 167.471 606.52 167.471 606.52 165.3 603.48 165.3 603.48 167.222 607.446 170.444C607.815 170.738 608 171.137 608 171.642L608 173.723C608 174.574 607.574 175 606.723 175L603.277 175C602.426 175 602 174.574 602 173.723L602 171.224 603.48 171.224 603.48 173.7 606.52 173.7 606.52 171.507 602.588 168.285C602.211 167.983 602.023 167.591 602.023 167.109L602.023 165.277C602.023 164.426 602.448 164 603.299 164Z" fill="#0D0D0D" fill-rule="evenodd"/><path d="M629.33 164 632.789 164C633.596 164 634 164.423 634 165.27L634 174.933 632.584 174.933 632.584 174.629C632.014 174.712 631.445 174.79 630.876 174.865 630.169 174.955 629.604 175 629.178 175 628.393 175 628 174.596 628 173.787L628 169.798C628 168.959 628.407 168.539 629.222 168.539L632.605 168.539 632.605 165.247 629.514 165.247 629.514 167.112 628.119 167.112 628.119 165.27C628.119 164.423 628.523 164 629.33 164ZM629.395 169.708 629.395 173.64 632.605 173.573 632.605 169.708 629.395 169.708Z" fill="#0D0D0D" fill-rule="evenodd"/><path d="M642.244 164 645.756 164C646.585 164 647 164.426 647 165.277L647 167.471 645.544 167.471 645.544 165.323 642.478 165.323 642.478 173.677 645.544 173.677 645.544 171.224 647 171.224 647 173.723C647 174.574 646.585 175 645.756 175L642.244 175C641.415 175 641 174.574 641 173.723L641 165.277C641 164.426 641.415 164 642.244 164Z" fill="#0D0D0D" fill-rule="evenodd"/><path d="M655.235 164 658.765 164C659.588 164 660 164.426 660 165.277L660 169.234 659.504 169.766 655.423 169.766 655.423 173.745 658.577 173.745 658.577 171.733 660 171.733 660 173.723C660 174.574 659.588 175 658.765 175L655.235 175C654.412 175 654 174.574 654 173.723L654 165.277C654 164.426 654.412 164 655.235 164ZM655.423 165.255 655.423 168.567 658.577 168.567 658.577 165.255 655.423 165.255Z" fill="#0D0D0D" fill-rule="evenodd"/></g></svg>