<svg width="66" height="70" xmlns="http://www.w3.org/2000/svg" xmlns:xlink="http://www.w3.org/1999/xlink" overflow="hidden"><g transform="translate(-649 -425)"><path d="M680.288 426.9C680.288 426.9 657.421 436.425 654.967 437.461 652.529 438.496 651.302 440.98 651.302 443.465 651.302 445.949 649.462 478.371 680.288 494.045 680.288 494.045 683.09 494.83 685.213 494.045 687.335 493.261 714.281 480.01 714.281 443.361 714.281 443.361 714.281 439.635 710.003 437.564 705.708 435.494 684.981 426.9 684.981 426.9 684.981 426.9 682.444 425.761 680.288 426.9Z" stroke="#404040" stroke-width="0.666667" stroke-miterlimit="8" fill="#FFFFFF" fill-rule="evenodd"/><path d="M0 0 52 22.5 0 45 26.3673 21.6538 10.4867 26.5325 0 0Z" fill="#FFC000" fill-rule="evenodd" transform="matrix(-6.12323e-17 -1 -1 6.12323e-17 705 481)"/></g></svg>