<svg width="273" height="87" xmlns="http://www.w3.org/2000/svg" xmlns:xlink="http://www.w3.org/1999/xlink" overflow="hidden"><g transform="translate(-873 -157)"><path d="M903.288 158.9C903.288 158.9 880.421 168.425 877.967 169.461 875.529 170.496 874.302 172.98 874.302 175.465 874.302 177.949 872.462 210.371 903.288 226.045 903.288 226.045 906.09 226.83 908.213 226.045 910.335 225.261 937.281 212.01 937.281 175.361 937.281 175.361 937.281 171.635 933.003 169.564 928.708 167.494 907.981 158.9 907.981 158.9 907.981 158.9 905.444 157.761 903.288 158.9Z" stroke="#404040" stroke-width="0.666667" stroke-miterlimit="8" fill="#FFFFFF" fill-rule="evenodd"/><path d="M0 0 52 22.5 0 45 26.3673 21.6538 10.4867 26.5325 0 0Z" fill="#FFC000" fill-rule="evenodd" transform="matrix(-6.12323e-17 -1 -1 6.12323e-17 928 210)"/><path d="M951.943 172 956.057 172 964 206 959.177 206 957.758 198.587 950.242 198.587 948.823 206 944 206 951.943 172ZM954 178.968 951.044 194.402 956.956 194.402 954 178.968Z" fill-rule="evenodd"/><path d="M1070.43 172 1075 172 1075 205.584 1070.43 205.584 1070.43 202.52 1069.92 203.583C1069.58 204.097 1069.18 204.537 1068.73 204.903 1067.81 205.634 1066.74 206 1065.5 206 1064.35 206 1063.36 205.719 1062.54 205.157 1061.71 204.595 1061.08 203.779 1060.65 202.709 1060.22 201.638 1060 200.349 1060 198.84L1060 188.607C1060 187.052 1060.22 185.716 1060.65 184.6 1061.08 183.483 1061.71 182.637 1062.54 182.059 1063.36 181.482 1064.35 181.193 1065.5 181.193 1066.64 181.193 1067.68 181.562 1068.63 182.302 1069.1 182.671 1069.53 183.116 1069.92 183.635L1070.43 184.538 1070.43 172ZM1067.5 185.281C1066.59 185.281 1065.87 185.597 1065.35 186.228 1064.83 186.86 1064.57 187.737 1064.57 188.861L1064.57 198.655C1064.57 199.687 1064.83 200.487 1065.35 201.057 1065.87 201.627 1066.59 201.912 1067.5 201.912 1068.12 201.912 1068.65 201.777 1069.09 201.507 1069.52 201.238 1069.85 200.845 1070.08 200.329 1070.32 199.814 1070.43 199.194 1070.43 198.47L1070.43 188.838C1070.43 188.099 1070.32 187.46 1070.08 186.921 1069.85 186.382 1069.52 185.974 1069.09 185.697 1068.65 185.42 1068.12 185.281 1067.5 185.281Z" fill-rule="evenodd"/><path d="M1128 172 1132.35 172 1132.35 193.47 1139.51 181.728 1144.06 181.728 1137.81 191.241 1145 206 1140.24 206 1135.36 194.977 1132.35 199.557 1132.35 206 1128 206 1128 172Z" fill-rule="evenodd"/><path d="M979.772 181C980.879 181 981.825 181.304 982.611 181.912 983.396 182.52 983.99 183.408 984.394 184.576 984.798 185.744 985 187.157 985 188.815L985 198.405C985 200.079 984.787 201.511 984.361 202.703 983.934 203.895 983.317 204.803 982.51 205.427 981.702 206.05 980.722 206.362 979.57 206.362 978.464 206.362 977.503 205.991 976.688 205.249 976.28 204.878 975.931 204.434 975.641 203.917L975.263 202.949 975.263 216 971 216 971 181.426 975.263 181.426 975.263 184.465 975.661 183.59C976.001 183.036 976.392 182.563 976.833 182.172 977.716 181.391 978.695 181 979.772 181ZM978 185.121C977.432 185.121 976.942 185.27 976.53 185.57 976.119 185.87 975.805 186.305 975.588 186.873 975.371 187.441 975.263 188.12 975.263 188.909L975.263 198.334C975.263 199.155 975.371 199.858 975.588 200.442 975.805 201.026 976.119 201.472 976.53 201.78 976.942 202.088 977.432 202.242 978 202.242 978.853 202.242 979.522 201.89 980.008 201.188 980.494 200.485 980.737 199.503 980.737 198.24L980.737 189.004C980.737 187.789 980.494 186.837 980.008 186.151 979.522 185.464 978.853 185.121 978 185.121Z" fill-rule="evenodd"/><path d="M1002.77 181C1003.88 181 1004.83 181.304 1005.61 181.912 1006.4 182.52 1006.99 183.408 1007.39 184.576 1007.8 185.744 1008 187.157 1008 188.815L1008 198.405C1008 200.079 1007.79 201.511 1007.36 202.703 1006.93 203.895 1006.32 204.803 1005.51 205.427 1004.7 206.05 1003.72 206.362 1002.57 206.362 1001.46 206.362 1000.5 205.991 999.688 205.249 999.28 204.878 998.931 204.434 998.641 203.917L998.263 202.949 998.263 216 994 216 994 181.426 998.263 181.426 998.263 184.465 998.661 183.59C999.001 183.036 999.392 182.563 999.833 182.172 1000.72 181.391 1001.7 181 1002.77 181ZM1001 185.121C1000.43 185.121 999.942 185.27 999.53 185.57 999.119 185.87 998.805 186.305 998.588 186.873 998.371 187.441 998.263 188.12 998.263 188.909L998.263 198.334C998.263 199.155 998.371 199.858 998.588 200.442 998.805 201.026 999.119 201.472 999.53 201.78 999.942 202.088 1000.43 202.242 1001 202.242 1001.85 202.242 1002.52 201.89 1003.01 201.188 1003.49 200.485 1003.74 199.503 1003.74 198.24L1003.74 189.004C1003.74 187.789 1003.49 186.837 1003.01 186.151 1002.52 185.464 1001.85 185.121 1001 185.121Z" fill-rule="evenodd"/><path d="M1023.45 181C1025.03 181 1026.39 181.296 1027.51 181.887 1028.63 182.478 1029.49 183.346 1030.07 184.49 1030.66 185.634 1030.95 187.007 1030.95 188.61L1030.95 189.403 1026.49 189.403 1026.49 188.61C1026.49 187.505 1026.23 186.649 1025.71 186.042 1025.19 185.435 1024.46 185.132 1023.52 185.132 1022.57 185.132 1021.83 185.431 1021.3 186.03 1020.77 186.63 1020.51 187.474 1020.51 188.563L1020.51 198.787C1020.51 199.767 1020.77 200.526 1021.3 201.063 1021.83 201.6 1022.57 201.868 1023.52 201.868 1024.46 201.868 1025.19 201.588 1025.72 201.028 1026.25 200.468 1026.51 199.69 1026.51 198.694L1026.51 197.923 1031 197.923 1031 198.694C1031 200.234 1030.7 201.549 1030.11 202.639 1029.52 203.728 1028.66 204.561 1027.53 205.136 1026.41 205.712 1025.05 206 1023.45 206 1021.87 206 1020.53 205.72 1019.42 205.16 1018.31 204.599 1017.46 203.779 1016.88 202.697 1016.29 201.616 1016 200.312 1016 198.787L1016 188.563C1016 186.96 1016.29 185.595 1016.88 184.466 1017.46 183.338 1018.31 182.478 1019.43 181.887 1020.55 181.296 1021.89 181 1023.45 181Z" fill-rule="evenodd"/><path d="M1045.05 181C1046.52 181 1047.78 181.269 1048.82 181.805 1049.86 182.342 1050.65 183.128 1051.19 184.163 1051.73 185.198 1052 186.447 1052 187.909L1052 199.044C1052 200.507 1051.73 201.759 1051.19 202.802 1050.65 203.845 1049.86 204.638 1048.82 205.183 1047.78 205.728 1046.52 206 1045.05 206 1043.57 206 1042.31 205.724 1041.25 205.171 1040.2 204.619 1039.39 203.817 1038.83 202.767 1038.28 201.717 1038 200.452 1038 198.974L1038 187.909C1038 186.447 1038.28 185.198 1038.83 184.163 1039.39 183.128 1040.2 182.342 1041.25 181.805 1042.31 181.269 1043.57 181 1045.05 181ZM1045 185.318C1044.22 185.318 1043.6 185.563 1043.14 186.054 1042.69 186.544 1042.46 187.225 1042.46 188.096L1042.46 198.857C1042.46 199.744 1042.69 200.437 1043.13 200.935 1043.58 201.433 1044.2 201.682 1045 201.682 1045.8 201.682 1046.42 201.437 1046.87 200.946 1047.31 200.456 1047.54 199.76 1047.54 198.857L1047.54 188.096C1047.54 187.225 1047.31 186.544 1046.87 186.054 1046.42 185.563 1045.8 185.318 1045 185.318Z" fill-rule="evenodd"/><path d="M1090.43 181C1092 181 1093.35 181.307 1094.48 181.922 1095.6 182.537 1096.46 183.432 1097.05 184.606 1097.63 185.781 1097.93 187.201 1097.93 188.867L1097.93 195.262 1087.39 195.262 1087.39 198.087C1087.39 199.27 1087.67 200.192 1088.23 200.853 1088.8 201.514 1089.59 201.845 1090.62 201.845 1091.57 201.845 1092.3 201.6 1092.83 201.11 1093.35 200.62 1093.61 199.923 1093.61 199.02L1093.61 198.857 1098 198.857 1098 199.02C1098 201.246 1097.36 202.965 1096.07 204.179 1094.78 205.393 1092.97 206 1090.62 206 1089.01 206 1087.64 205.685 1086.51 205.055 1085.38 204.424 1084.51 203.51 1083.9 202.312 1083.3 201.114 1083 199.666 1083 197.97L1083 189.497C1083 187.707 1083.29 186.174 1083.88 184.898 1084.47 183.622 1085.32 182.653 1086.42 181.992 1087.53 181.331 1088.87 181 1090.43 181ZM1090.43 185.015C1089.46 185.015 1088.72 185.381 1088.18 186.112 1087.65 186.843 1087.39 187.886 1087.39 189.24L1087.39 191.598 1093.54 191.598 1093.54 188.96C1093.54 187.699 1093.27 186.727 1092.73 186.042 1092.19 185.357 1091.42 185.015 1090.43 185.015Z" fill-rule="evenodd"/><path d="M1112.31 181C1113.76 181 1115.01 181.272 1116.06 181.817 1117.11 182.362 1117.91 183.144 1118.47 184.163 1119.03 185.182 1119.31 186.392 1119.31 187.793L1119.31 187.933 1114.82 187.933 1114.82 187.746C1114.82 186.859 1114.6 186.17 1114.16 185.68 1113.72 185.19 1113.11 184.945 1112.31 184.945 1111.51 184.945 1110.9 185.217 1110.46 185.762 1110.02 186.307 1109.8 187.069 1109.8 188.05 1109.8 188.719 1109.95 189.267 1110.25 189.695 1110.56 190.123 1110.95 190.458 1111.44 190.699 1111.92 190.94 1112.55 191.185 1113.31 191.434 1113.34 191.45 1113.38 191.461 1113.43 191.469 1113.48 191.477 1113.52 191.489 1113.55 191.504 1113.57 191.52 1113.59 191.528 1113.62 191.528 1113.65 191.528 1113.68 191.535 1113.69 191.551 1115.03 191.971 1116.12 192.403 1116.95 192.846 1117.79 193.29 1118.51 193.994 1119.1 194.959 1119.7 195.924 1120 197.239 1120 198.904 1120 200.367 1119.7 201.631 1119.09 202.697 1118.49 203.763 1117.62 204.58 1116.5 205.148 1115.38 205.716 1114.04 206 1112.5 206 1110.96 206 1109.62 205.708 1108.5 205.125 1107.38 204.541 1106.51 203.701 1105.91 202.604 1105.3 201.507 1105 200.219 1105 198.74L1105 198.554 1109.49 198.554 1109.49 198.74C1109.49 199.783 1109.75 200.596 1110.28 201.18 1110.8 201.763 1111.54 202.055 1112.5 202.055 1113.44 202.055 1114.18 201.775 1114.71 201.215 1115.24 200.654 1115.51 199.884 1115.51 198.904 1115.51 198.25 1115.35 197.717 1115.04 197.305 1114.73 196.892 1114.34 196.566 1113.86 196.324 1113.38 196.083 1112.71 195.807 1111.83 195.496 1111.77 195.48 1111.71 195.465 1111.65 195.449 1111.6 195.434 1111.54 195.41 1111.47 195.379 1111.43 195.364 1111.38 195.348 1111.34 195.332 1111.3 195.317 1111.26 195.301 1111.21 195.286 1110.03 194.85 1109.03 194.383 1108.21 193.885 1107.39 193.387 1106.7 192.671 1106.15 191.738 1105.59 190.804 1105.31 189.606 1105.31 188.143 1105.31 186.68 1105.59 185.412 1106.16 184.338 1106.72 183.264 1107.53 182.439 1108.58 181.864 1109.63 181.288 1110.88 181 1112.31 181Z" fill-rule="evenodd"/><path d="M941 220 947.294 220C947.687 220 948.007 220.126 948.255 220.376 948.503 220.627 948.628 220.951 948.628 221.348L948.628 228.559C948.628 229.474 948.019 229.931 946.802 229.931 946.682 229.931 946.505 229.925 946.273 229.913 946.041 229.901 945.873 229.895 945.769 229.895 946.85 232.922 947.927 235.957 949 239L947.246 239 943.751 228.826 943.979 228.486 946.958 228.486 946.958 221.493 942.67 221.493 942.67 239 941 239 941 220Z" fill="#0D0D0D" fill-rule="evenodd"/><path d="M1030 220 1031.66 220 1033.25 233.672C1033.26 233.979 1033.28 234.431 1033.3 235.028 1033.29 234.721 1033.31 234.269 1033.35 233.672L1035.29 220 1036.72 220 1038.65 233.672C1038.67 233.979 1038.68 234.431 1038.7 235.028 1038.7 234.721 1038.72 234.269 1038.76 233.672L1040.36 220 1042 220 1039.44 239 1038.09 239 1036.05 224.711C1036.04 224.46 1036.02 224.089 1036 223.597 1036 223.855 1035.98 224.226 1035.95 224.711L1033.91 239 1032.56 239 1030 220Z" fill="#0D0D0D" fill-rule="evenodd"/><path d="M1074 220 1075.46 220 1075.46 232.068 1078.21 227.187 1079.78 227.187 1079.78 227.236 1076.67 232.456 1080 239 1078.41 239 1075.46 232.978 1075.46 239 1074 239 1074 220Z" fill="#0D0D0D" fill-rule="evenodd"/><path d="M999.4 224 1000.97 224 1000.97 227.562 1003 227.562 1003 228.937 1000.97 228.937 1000.97 237.625 1003 237.625 1003 239 1000.74 239C999.846 239 999.4 238.557 999.4 237.672L999.4 228.937 998 228.937 998 227.562 999.4 227.562 999.4 224Z" fill="#0D0D0D" fill-rule="evenodd"/><path d="M973.016 227C973.474 227 973.811 227.151 974.029 227.454 974.658 227.364 975.285 227.27 975.907 227.172 976.724 227.057 977.343 227 977.763 227 978.588 227 979 227.445 979 228.336L979 239 977.504 239 977.504 228.532 974.242 228.63 974.242 239 972.758 239 972.758 228.532 969.496 228.63 969.496 239 968 239 968 227.074 969.496 227.074 969.496 227.405C970.081 227.323 970.666 227.237 971.25 227.147 971.963 227.049 972.551 227 973.016 227Z" fill="#0D0D0D" fill-rule="evenodd"/><path d="M1066.7 227C1067.57 227 1068 227.445 1068 228.336L1068 230.996 1066.46 230.996 1066.46 228.532 1063.57 228.63 1063.57 239 1062 239 1062 227.074 1063.57 227.074 1063.57 227.405C1064.09 227.323 1064.61 227.237 1065.14 227.147 1065.76 227.049 1066.29 227 1066.7 227Z" fill="#0D0D0D" fill-rule="evenodd"/><path d="M1103.81 227C1104.6 227 1105 227.431 1105 228.294L1105 236.139C1105 236.852 1104.79 237.443 1104.37 237.914 1103.94 238.385 1103.42 238.62 1102.78 238.62L1100.43 238.62 1100.43 243 1099 243 1099 227.071 1100.43 227.071 1100.43 227.392C1100.99 227.313 1101.56 227.233 1102.12 227.154 1102.84 227.051 1103.4 227 1103.81 227ZM1103.57 228.484 1100.43 228.579 1100.43 237.232 1102.4 237.232C1103.18 237.232 1103.57 236.788 1103.57 235.902L1103.57 228.484Z" fill="#0D0D0D" fill-rule="evenodd"/><path d="M956.235 227 959.765 227C960.588 227 961 227.465 961 228.394L961 232.71 960.504 233.29 956.423 233.29 956.423 237.631 959.577 237.631 959.577 235.436 961 235.436 961 237.606C961 238.535 960.588 239 959.765 239L956.235 239C955.412 239 955 238.535 955 237.606L955 228.394C955 227.465 955.412 227 956.235 227ZM956.423 228.369 956.423 231.983 959.577 231.983 959.577 228.369 956.423 228.369Z" fill="#0D0D0D" fill-rule="evenodd"/><path d="M987.202 227 990.787 227C991.596 227 992 227.465 992 228.394L992 237.606C992 238.535 991.596 239 990.787 239L987.202 239C986.401 239 986 238.535 986 237.606L986 228.394C986 227.465 986.401 227 987.202 227ZM987.427 228.443 987.427 237.557 990.572 237.557 990.572 228.443 987.427 228.443Z" fill="#0D0D0D" fill-rule="evenodd"/><path d="M1009.24 227 1012.76 227C1013.59 227 1014 227.465 1014 228.394L1014 232.71 1013.5 233.29 1009.42 233.29 1009.42 237.631 1012.58 237.631 1012.58 235.436 1014 235.436 1014 237.606C1014 238.535 1013.59 239 1012.76 239L1009.24 239C1008.41 239 1008 238.535 1008 237.606L1008 228.394C1008 227.465 1008.41 227 1009.24 227ZM1009.42 228.369 1009.42 231.983 1012.58 231.983 1012.58 228.369 1009.42 228.369Z" fill="#0D0D0D" fill-rule="evenodd"/><path d="M1050.2 227 1053.79 227C1054.6 227 1055 227.465 1055 228.394L1055 237.606C1055 238.535 1054.6 239 1053.79 239L1050.2 239C1049.4 239 1049 238.535 1049 237.606L1049 228.394C1049 227.465 1049.4 227 1050.2 227ZM1050.43 228.443 1050.43 237.557 1053.57 237.557 1053.57 228.443 1050.43 228.443Z" fill="#0D0D0D" fill-rule="evenodd"/><path d="M1087.3 227 1090.7 227C1091.55 227 1091.98 227.465 1091.98 228.394L1091.98 230.786 1090.52 230.786 1090.52 228.418 1087.48 228.418 1087.48 230.515 1091.45 234.03C1091.82 234.35 1092 234.786 1092 235.337L1092 237.606C1092 238.535 1091.57 239 1090.72 239L1087.28 239C1086.43 239 1086 238.535 1086 237.606L1086 234.881 1087.48 234.881 1087.48 237.582 1090.52 237.582 1090.52 235.189 1086.59 231.674C1086.21 231.345 1086.02 230.918 1086.02 230.392L1086.02 228.394C1086.02 227.465 1086.45 227 1087.3 227Z" fill="#0D0D0D" fill-rule="evenodd"/><path d="M1113.33 227 1116.79 227C1117.6 227 1118 227.462 1118 228.385L1118 238.926 1116.58 238.926 1116.58 238.595C1116.01 238.685 1115.45 238.771 1114.88 238.853 1114.17 238.951 1113.6 239 1113.18 239 1112.39 239 1112 238.559 1112 237.676L1112 233.325C1112 232.41 1112.41 231.952 1113.22 231.952L1116.61 231.952 1116.61 228.361 1113.51 228.361 1113.51 230.395 1112.12 230.395 1112.12 228.385C1112.12 227.462 1112.52 227 1113.33 227ZM1113.39 233.227 1113.39 237.517 1116.61 237.443 1116.61 233.227 1113.39 233.227Z" fill="#0D0D0D" fill-rule="evenodd"/><path d="M1126.24 227 1129.76 227C1130.59 227 1131 227.465 1131 228.394L1131 230.786 1129.54 230.786 1129.54 228.443 1126.48 228.443 1126.48 237.557 1129.54 237.557 1129.54 234.881 1131 234.881 1131 237.606C1131 238.535 1130.59 239 1129.76 239L1126.24 239C1125.41 239 1125 238.535 1125 237.606L1125 228.394C1125 227.465 1125.41 227 1126.24 227Z" fill="#0D0D0D" fill-rule="evenodd"/><path d="M1139.24 227 1142.76 227C1143.59 227 1144 227.465 1144 228.394L1144 232.71 1143.5 233.29 1139.42 233.29 1139.42 237.631 1142.58 237.631 1142.58 235.436 1144 235.436 1144 237.606C1144 238.535 1143.59 239 1142.76 239L1139.24 239C1138.41 239 1138 238.535 1138 237.606L1138 228.394C1138 227.465 1138.41 227 1139.24 227ZM1139.42 228.369 1139.42 231.983 1142.58 231.983 1142.58 228.369 1139.42 228.369Z" fill="#0D0D0D" fill-rule="evenodd"/></g></svg>