<svg width="66" height="71" xmlns="http://www.w3.org/2000/svg" xmlns:xlink="http://www.w3.org/1999/xlink" overflow="hidden"><g transform="translate(-536 -98)"><path d="M566.745 99.9061C566.745 99.9061 543.515 109.571 541.022 110.622 538.545 111.672 537.299 114.193 537.299 116.715 537.299 119.235 535.429 152.134 566.745 168.038 566.745 168.038 569.592 168.835 571.748 168.038 573.904 167.243 601.278 153.797 601.278 116.609 601.278 116.609 601.278 112.828 596.932 110.727 592.569 108.626 571.512 99.9061 571.512 99.9061 571.512 99.9061 568.935 98.7504 566.745 99.9061Z" stroke="#404040" stroke-width="0.666667" stroke-miterlimit="8" fill="#FFFFFF" fill-rule="evenodd"/><path d="M0 0 53 23 0 46 26.8743 22.135 10.6883 27.1221 0 0Z" fill="#FFC000" fill-rule="evenodd" transform="matrix(-6.12323e-17 -1 -1 6.12323e-17 592 155)"/></g></svg>