<svg width="273" height="70" xmlns="http://www.w3.org/2000/svg" xmlns:xlink="http://www.w3.org/1999/xlink" overflow="hidden"><g transform="translate(-649 -425)"><path d="M680.288 426.9C680.288 426.9 657.421 436.425 654.967 437.461 652.529 438.496 651.302 440.98 651.302 443.465 651.302 445.949 649.462 478.371 680.288 494.045 680.288 494.045 683.09 494.83 685.213 494.045 687.335 493.261 714.281 480.01 714.281 443.361 714.281 443.361 714.281 439.635 710.003 437.564 705.708 435.494 684.981 426.9 684.981 426.9 684.981 426.9 682.444 425.761 680.288 426.9Z" stroke="#404040" stroke-width="0.666667" stroke-miterlimit="8" fill="#FFFFFF" fill-rule="evenodd"/><path d="M0 0 52 22.5 0 45 26.3673 21.6538 10.4867 26.5325 0 0Z" fill="#FFC000" fill-rule="evenodd" transform="matrix(-6.12323e-17 -1 -1 6.12323e-17 705 481)"/><path d="M727.943 439 732.057 439 740 474 735.177 474 733.758 466.369 726.242 466.369 724.823 474 720 474 727.943 439ZM730 446.173 727.044 462.061 732.956 462.061 730 446.173Z" fill-rule="evenodd"/><path d="M846.737 439 851 439 851 473.572 846.737 473.572 846.737 470.417 846.26 471.512C845.943 472.041 845.571 472.494 845.144 472.871 844.292 473.624 843.289 474 842.138 474 841.061 474 840.137 473.711 839.367 473.132 838.597 472.553 838.01 471.713 837.606 470.612 837.202 469.51 837 468.183 837 466.629L837 456.096C837 454.495 837.202 453.12 837.606 451.97 838.01 450.821 838.597 449.949 839.367 449.355 840.137 448.761 841.061 448.463 842.138 448.463 843.2 448.463 844.172 448.844 845.055 449.605 845.496 449.985 845.896 450.443 846.255 450.978L846.737 451.907 846.737 439ZM844 452.672C843.147 452.672 842.478 452.997 841.992 453.647 841.506 454.297 841.263 455.2 841.263 456.357L841.263 466.439C841.263 467.501 841.506 468.325 841.992 468.912 842.478 469.498 843.147 469.791 844 469.791 844.583 469.791 845.077 469.653 845.481 469.375 845.885 469.098 846.195 468.694 846.412 468.163 846.629 467.632 846.737 466.994 846.737 466.249L846.737 456.334C846.737 455.573 846.629 454.915 846.412 454.36 846.195 453.805 845.885 453.385 845.481 453.1 845.077 452.815 844.583 452.672 844 452.672Z" fill-rule="evenodd"/><path d="M904 439 908.347 439 908.347 461.102 915.509 449.014 920.062 449.014 913.811 458.807 921 474 916.241 474 911.357 462.653 908.347 467.368 908.347 474 904 474 904 439Z" fill-rule="evenodd"/><path d="M756.399 449C757.585 449 758.599 449.295 759.44 449.886 760.281 450.476 760.918 451.339 761.351 452.474 761.784 453.608 762 454.981 762 456.591L762 465.908C762 467.534 761.772 468.925 761.315 470.083 760.858 471.241 760.197 472.123 759.332 472.729 758.466 473.335 757.417 473.637 756.183 473.637 754.997 473.637 753.967 473.277 753.094 472.556 752.657 472.196 752.284 471.764 751.973 471.262L751.567 470.322 751.567 483 747 483 747 449.414 751.567 449.414 751.567 452.366 751.994 451.516C752.359 450.977 752.777 450.518 753.25 450.139 754.196 449.38 755.245 449 756.399 449ZM754.5 453.003C753.891 453.003 753.366 453.148 752.925 453.44 752.485 453.731 752.148 454.153 751.916 454.705 751.683 455.257 751.567 455.917 751.567 456.683L751.567 465.839C751.567 466.637 751.683 467.319 751.916 467.886 752.148 468.454 752.485 468.887 752.925 469.186 753.366 469.485 753.891 469.635 754.5 469.635 755.414 469.635 756.131 469.293 756.651 468.611 757.172 467.929 757.433 466.974 757.433 465.747L757.433 456.775C757.433 455.595 757.172 454.671 756.651 454.003 756.131 453.336 755.414 453.003 754.5 453.003Z" fill-rule="evenodd"/><path d="M779.399 449C780.585 449 781.599 449.295 782.44 449.886 783.281 450.476 783.918 451.339 784.351 452.474 784.784 453.608 785 454.981 785 456.591L785 465.908C785 467.534 784.772 468.925 784.315 470.083 783.858 471.241 783.197 472.123 782.332 472.729 781.466 473.335 780.417 473.637 779.183 473.637 777.997 473.637 776.967 473.277 776.094 472.556 775.657 472.196 775.284 471.764 774.973 471.262L774.567 470.322 774.567 483 770 483 770 449.414 774.567 449.414 774.567 452.366 774.994 451.516C775.359 450.977 775.777 450.518 776.25 450.139 777.196 449.38 778.245 449 779.399 449ZM777.5 453.003C776.891 453.003 776.366 453.148 775.925 453.44 775.485 453.731 775.148 454.153 774.916 454.705 774.683 455.257 774.567 455.917 774.567 456.683L774.567 465.839C774.567 466.637 774.683 467.319 774.916 467.886 775.148 468.454 775.485 468.887 775.925 469.186 776.366 469.485 776.891 469.635 777.5 469.635 778.414 469.635 779.131 469.293 779.651 468.611 780.172 467.929 780.433 466.974 780.433 465.747L780.433 456.775C780.433 455.595 780.172 454.671 779.651 454.003 779.131 453.336 778.414 453.003 777.5 453.003Z" fill-rule="evenodd"/><path d="M799.956 449C801.432 449 802.695 449.296 803.744 449.887 804.792 450.478 805.59 451.346 806.136 452.49 806.682 453.634 806.956 455.007 806.956 456.61L806.956 457.403 802.791 457.403 802.791 456.61C802.791 455.505 802.547 454.649 802.06 454.042 801.573 453.435 800.893 453.132 800.022 453.132 799.136 453.132 798.446 453.431 797.951 454.03 797.456 454.63 797.209 455.474 797.209 456.563L797.209 466.787C797.209 467.767 797.456 468.526 797.951 469.063 798.446 469.6 799.136 469.868 800.022 469.868 800.893 469.868 801.576 469.588 802.071 469.028 802.566 468.468 802.813 467.69 802.813 466.694L802.813 465.923 807 465.923 807 466.694C807 468.234 806.723 469.549 806.169 470.639 805.615 471.728 804.814 472.56 803.766 473.136 802.717 473.712 801.447 474 799.956 474 798.479 474 797.224 473.72 796.19 473.16 795.156 472.599 794.366 471.779 793.82 470.697 793.273 469.616 793 468.312 793 466.787L793 456.563C793 454.96 793.273 453.595 793.82 452.466 794.366 451.338 795.16 450.478 796.201 449.887 797.242 449.296 798.494 449 799.956 449Z" fill-rule="evenodd"/><path d="M821.544 449C822.91 449 824.078 449.269 825.044 449.805 826.011 450.342 826.746 451.128 827.247 452.163 827.749 453.198 828 454.447 828 455.909L828 467.044C828 468.507 827.749 469.759 827.247 470.802 826.746 471.845 826.011 472.638 825.044 473.183 824.078 473.728 822.91 474 821.544 474 820.177 474 819.003 473.724 818.021 473.171 817.039 472.619 816.291 471.817 815.774 470.767 815.258 469.717 815 468.452 815 466.974L815 455.909C815 454.447 815.258 453.198 815.774 452.163 816.291 451.128 817.039 450.342 818.021 449.805 819.003 449.269 820.177 449 821.544 449ZM821.5 453.318C820.773 453.318 820.199 453.564 819.777 454.054 819.355 454.544 819.144 455.225 819.144 456.096L819.144 466.857C819.144 467.744 819.352 468.437 819.766 468.935 820.18 469.433 820.758 469.682 821.5 469.682 822.242 469.682 822.82 469.436 823.234 468.946 823.648 468.456 823.856 467.76 823.856 466.857L823.856 456.096C823.856 455.225 823.648 454.544 823.234 454.054 822.82 453.564 822.242 453.318 821.5 453.318Z" fill-rule="evenodd"/><path d="M866.932 449C868.403 449 869.663 449.307 870.714 449.922 871.764 450.537 872.563 451.432 873.111 452.606 873.659 453.781 873.932 455.201 873.932 456.866L873.932 463.262 864.096 463.262 864.096 466.087C864.096 467.27 864.359 468.192 864.884 468.853 865.409 469.514 866.152 469.845 867.113 469.845 867.998 469.845 868.684 469.6 869.172 469.11 869.66 468.62 869.904 467.923 869.904 467.021L869.904 466.857 874 466.857 874 467.021C874 469.246 873.4 470.965 872.199 472.179 870.999 473.393 869.303 474 867.113 474 865.612 474 864.333 473.685 863.275 473.055 862.217 472.424 861.407 471.51 860.844 470.312 860.281 469.114 860 467.666 860 465.97L860 457.497C860 455.707 860.274 454.174 860.822 452.898 861.369 451.622 862.161 450.653 863.196 449.992 864.232 449.331 865.477 449 866.932 449ZM866.932 453.015C866.032 453.015 865.334 453.381 864.839 454.112 864.344 454.843 864.096 455.886 864.096 457.24L864.096 459.598 869.836 459.598 869.836 456.96C869.836 455.699 869.585 454.727 869.082 454.042 868.579 453.357 867.863 453.015 866.932 453.015Z" fill-rule="evenodd"/><path d="M889.309 449C890.758 449 892.008 449.272 893.059 449.817 894.11 450.362 894.914 451.144 895.471 452.163 896.029 453.182 896.307 454.392 896.307 455.793L896.307 455.933 891.817 455.933 891.817 455.746C891.817 454.859 891.598 454.17 891.16 453.68 890.722 453.19 890.105 452.945 889.309 452.945 888.513 452.945 887.896 453.217 887.458 453.762 887.02 454.307 886.801 455.069 886.801 456.05 886.801 456.719 886.952 457.267 887.255 457.695 887.557 458.123 887.951 458.458 888.437 458.699 888.923 458.94 889.548 459.185 890.312 459.434 890.344 459.45 890.384 459.461 890.431 459.469 890.479 459.477 890.519 459.489 890.551 459.504 890.567 459.52 890.591 459.528 890.623 459.528 890.654 459.528 890.678 459.535 890.694 459.551 892.032 459.971 893.119 460.403 893.955 460.846 894.791 461.29 895.507 461.994 896.104 462.959 896.701 463.924 897 465.239 897 466.904 897 468.367 896.697 469.631 896.092 470.697 895.487 471.763 894.623 472.58 893.501 473.148 892.378 473.716 891.045 474 889.5 474 887.955 474 886.622 473.708 885.499 473.125 884.377 472.541 883.513 471.701 882.908 470.604 882.302 469.507 882 468.219 882 466.74L882 466.554 886.49 466.554 886.49 466.74C886.49 467.783 886.753 468.596 887.279 469.18 887.804 469.763 888.545 470.055 889.5 470.055 890.439 470.055 891.176 469.775 891.709 469.215 892.243 468.654 892.51 467.884 892.51 466.904 892.51 466.25 892.354 465.717 892.044 465.305 891.733 464.892 891.339 464.566 890.861 464.324 890.384 464.083 889.707 463.807 888.831 463.496 888.768 463.48 888.708 463.465 888.652 463.449 888.596 463.434 888.537 463.41 888.473 463.379 888.425 463.364 888.381 463.348 888.341 463.332 888.302 463.317 888.258 463.301 888.21 463.286 887.032 462.85 886.033 462.383 885.213 461.885 884.392 461.387 883.704 460.671 883.146 459.738 882.589 458.804 882.31 457.606 882.31 456.143 882.31 454.68 882.593 453.412 883.158 452.338 883.724 451.264 884.532 450.44 885.583 449.864 886.634 449.288 887.876 449 889.309 449Z" fill-rule="evenodd"/></g></svg>