<svg width="293" height="192" xmlns="http://www.w3.org/2000/svg" xmlns:xlink="http://www.w3.org/1999/xlink" overflow="hidden"><g transform="translate(-938 -438)"><path d="M1008 542 1014.29 542C1014.69 542 1015.01 542.119 1015.26 542.357 1015.5 542.594 1015.63 542.901 1015.63 543.277L1015.63 550.109C1015.63 550.975 1015.02 551.408 1013.8 551.408 1013.68 551.408 1013.51 551.403 1013.27 551.391 1013.04 551.38 1012.87 551.374 1012.77 551.374 1013.85 554.242 1014.93 557.117 1016 560L1014.25 560 1010.75 550.362 1010.98 550.04 1013.96 550.04 1013.96 543.415 1009.67 543.415 1009.67 560 1008 560 1008 542Z" fill="#FFFFFF" fill-rule="evenodd"/><path d="M1098 542 1099.52 542 1100.98 554.952C1100.99 555.243 1101 555.671 1101.03 556.237 1101.02 555.946 1101.03 555.518 1101.07 554.952L1102.85 542 1104.16 542 1105.93 554.952C1105.95 555.243 1105.96 555.671 1105.97 556.237 1105.97 555.946 1105.99 555.518 1106.03 554.952L1107.49 542 1109 542 1106.66 560 1105.41 560 1103.54 546.463C1103.54 546.226 1103.52 545.874 1103.5 545.407 1103.5 545.652 1103.49 546.004 1103.46 546.463L1101.59 560 1100.34 560 1098 542Z" fill="#FFFFFF" fill-rule="evenodd"/><path d="M1141 542 1142.71 542 1142.71 553.433 1145.91 548.809 1147.74 548.809 1147.74 548.855 1144.12 553.801 1148 560 1146.14 560 1142.71 554.295 1142.71 560 1141 560 1141 542Z" fill="#FFFFFF" fill-rule="evenodd"/><path d="M1066.4 545 1067.97 545 1067.97 548.562 1070 548.562 1070 549.937 1067.97 549.937 1067.97 558.625 1070 558.625 1070 560 1067.74 560C1066.85 560 1066.4 559.557 1066.4 558.672L1066.4 549.937 1065 549.937 1065 548.562 1066.4 548.562 1066.4 545Z" fill="#FFFFFF" fill-rule="evenodd"/><path d="M1040.47 548C1040.97 548 1041.34 548.151 1041.58 548.454 1042.26 548.364 1042.95 548.27 1043.63 548.172 1044.52 548.057 1045.19 548 1045.65 548 1046.55 548 1047 548.445 1047 549.336L1047 560 1045.37 560 1045.37 549.532 1041.81 549.63 1041.81 560 1040.19 560 1040.19 549.532 1036.63 549.63 1036.63 560 1035 560 1035 548.074 1036.63 548.074 1036.63 548.405C1037.27 548.323 1037.91 548.237 1038.55 548.147 1039.32 548.049 1039.97 548 1040.47 548Z" fill="#FFFFFF" fill-rule="evenodd"/><path d="M1133.7 548C1134.57 548 1135 548.445 1135 549.336L1135 551.996 1133.46 551.996 1133.46 549.532 1130.57 549.63 1130.57 560 1129 560 1129 548.074 1130.57 548.074 1130.57 548.405C1131.09 548.323 1131.61 548.237 1132.14 548.147 1132.76 548.049 1133.29 548 1133.7 548Z" fill="#FFFFFF" fill-rule="evenodd"/><path d="M1171.61 548C1172.54 548 1173 548.431 1173 549.294L1173 557.139C1173 557.852 1172.75 558.443 1172.26 558.914 1171.77 559.385 1171.15 559.62 1170.41 559.62L1167.67 559.62 1167.67 564 1166 564 1166 548.071 1167.67 548.071 1167.67 548.392C1168.32 548.313 1168.98 548.233 1169.64 548.154 1170.48 548.051 1171.13 548 1171.61 548ZM1171.33 549.484 1167.67 549.579 1167.67 558.232 1169.97 558.232C1170.88 558.232 1171.33 557.788 1171.33 556.902L1171.33 549.484Z" fill="#FFFFFF" fill-rule="evenodd"/><path d="M1023.24 548 1026.76 548C1027.59 548 1028 548.464 1028 549.394L1028 553.71 1027.5 554.29 1023.42 554.29 1023.42 558.631 1026.58 558.631 1026.58 556.436 1028 556.436 1028 558.606C1028 559.536 1027.59 560 1026.76 560L1023.24 560C1022.41 560 1022 559.536 1022 558.606L1022 549.394C1022 548.464 1022.41 548 1023.24 548ZM1023.42 549.369 1023.42 552.983 1026.58 552.983 1026.58 549.369 1023.42 549.369Z" fill="#FFFFFF" fill-rule="evenodd"/><path d="M1054.4 548 1058.58 548C1059.53 548 1060 548.464 1060 549.394L1060 558.606C1060 559.536 1059.53 560 1058.58 560L1054.4 560C1053.47 560 1053 559.536 1053 558.606L1053 549.394C1053 548.464 1053.47 548 1054.4 548ZM1054.67 549.443 1054.67 558.557 1058.33 558.557 1058.33 549.443 1054.67 549.443Z" fill="#FFFFFF" fill-rule="evenodd"/><path d="M1076.24 548 1079.76 548C1080.59 548 1081 548.464 1081 549.394L1081 553.71 1080.5 554.29 1076.42 554.29 1076.42 558.631 1079.58 558.631 1079.58 556.436 1081 556.436 1081 558.606C1081 559.536 1080.59 560 1079.76 560L1076.24 560C1075.41 560 1075 559.536 1075 558.606L1075 549.394C1075 548.464 1075.41 548 1076.24 548ZM1076.42 549.369 1076.42 552.983 1079.58 552.983 1079.58 549.369 1076.42 549.369Z" fill="#FFFFFF" fill-rule="evenodd"/><path d="M1117.4 548 1121.58 548C1122.53 548 1123 548.464 1123 549.394L1123 558.606C1123 559.536 1122.53 560 1121.58 560L1117.4 560C1116.47 560 1116 559.536 1116 558.606L1116 549.394C1116 548.464 1116.47 548 1117.4 548ZM1117.67 549.443 1117.67 558.557 1121.33 558.557 1121.33 549.443 1117.67 549.443Z" fill="#FFFFFF" fill-rule="evenodd"/><path d="M1154.3 548 1157.7 548C1158.55 548 1158.98 548.464 1158.98 549.394L1158.98 551.786 1157.52 551.786 1157.52 549.418 1154.48 549.418 1154.48 551.515 1158.45 555.03C1158.82 555.35 1159 555.786 1159 556.337L1159 558.606C1159 559.536 1158.57 560 1157.72 560L1154.28 560C1153.43 560 1153 559.536 1153 558.606L1153 555.881 1154.48 555.881 1154.48 558.582 1157.52 558.582 1157.52 556.189 1153.59 552.674C1153.21 552.345 1153.02 551.918 1153.02 551.392L1153.02 549.394C1153.02 548.464 1153.45 548 1154.3 548Z" fill="#FFFFFF" fill-rule="evenodd"/><path d="M1180.55 548 1184.59 548C1185.53 548 1186 548.462 1186 549.385L1186 559.926 1184.35 559.926 1184.35 559.595C1183.68 559.685 1183.02 559.771 1182.35 559.853 1181.53 559.951 1180.87 560 1180.37 560 1179.46 560 1179 559.559 1179 558.676L1179 554.325C1179 553.41 1179.47 552.952 1180.43 552.952L1184.37 552.952 1184.37 549.361 1180.77 549.361 1180.77 551.395 1179.14 551.395 1179.14 549.385C1179.14 548.462 1179.61 548 1180.55 548ZM1180.63 554.227 1180.63 558.517 1184.37 558.443 1184.37 554.227 1180.63 554.227Z" fill="#FFFFFF" fill-rule="evenodd"/><path d="M1193.24 548 1196.76 548C1197.59 548 1198 548.464 1198 549.394L1198 551.786 1196.54 551.786 1196.54 549.443 1193.48 549.443 1193.48 558.557 1196.54 558.557 1196.54 555.881 1198 555.881 1198 558.606C1198 559.536 1197.59 560 1196.76 560L1193.24 560C1192.41 560 1192 559.536 1192 558.606L1192 549.394C1192 548.464 1192.41 548 1193.24 548Z" fill="#FFFFFF" fill-rule="evenodd"/><path d="M1206.24 548 1209.76 548C1210.59 548 1211 548.464 1211 549.394L1211 553.71 1210.5 554.29 1206.42 554.29 1206.42 558.631 1209.58 558.631 1209.58 556.436 1211 556.436 1211 558.606C1211 559.536 1210.59 560 1209.76 560L1206.24 560C1205.41 560 1205 559.536 1205 558.606L1205 549.394C1205 548.464 1205.41 548 1206.24 548ZM1206.42 549.369 1206.42 552.983 1209.58 552.983 1209.58 549.369 1206.42 549.369Z" fill="#FFFFFF" fill-rule="evenodd"/><path d="M1229.49 578.493 969.49 578.493 969.49 444.785C969.493 441.864 972.161 439.496 975.452 439.493L1223.53 439.493C1226.82 439.496 1229.49 441.864 1229.49 444.785Z" stroke="#FFFFFF" stroke-width="0.333333" stroke-miterlimit="8" fill="none" fill-rule="evenodd"/><path d="M1039.5 628.5 1150.37 628.5" stroke="#FFFFFF" stroke-width="0.666667" stroke-miterlimit="8" fill="none" fill-rule="evenodd"/><path d="M971.455 591 976.571 591C976.996 591 977.34 591.125 977.604 591.376 977.868 591.627 978 591.951 978 592.348L978 596.767 976.195 596.767 976.195 592.493 971.805 592.493 971.805 596.5 977.442 602.837C977.814 603.258 978 603.731 978 604.258L978 608.652C978 609.049 977.868 609.373 977.604 609.624 977.34 609.875 976.996 610 976.571 610L971.455 610C971.03 610 970.682 609.875 970.409 609.624 970.136 609.373 970 609.049 970 608.652L970 603.833 971.805 603.833 971.805 608.507 976.195 608.507 976.195 603.978 970.584 597.641C970.195 597.204 970 596.722 970 596.196L970 592.348C970 591.951 970.136 591.627 970.409 591.376 970.682 591.125 971.03 591 971.455 591Z" fill="#FFFFFF" fill-rule="evenodd"/><path d="M991.604 591 994 591 994 592.42 991.824 592.42 991.824 598.187 993.745 598.187 993.745 599.608 991.824 599.608 991.824 610 990.308 610 990.308 599.608 989 599.608 989 598.187 990.308 598.187 990.308 592.372C990.308 591.457 990.74 591 991.604 591Z" fill="#FFFFFF" fill-rule="evenodd"/><path d="M1044.34 591 1046 591 1046 609.927 1044.34 609.927 1044.34 609.601C1042.55 609.867 1041.56 610 1041.37 610 1040.66 610 1040.09 609.768 1039.65 609.305 1039.22 608.841 1039 608.263 1039 607.569L1039 600.688C1039 599.962 1039.25 599.359 1039.74 598.879 1040.23 598.4 1040.85 598.16 1041.6 598.16L1044.34 598.16 1044.34 591ZM1042.04 599.575C1041.12 599.575 1040.66 600.03 1040.66 600.941L1040.66 607.23C1040.66 608.133 1041.12 608.585 1042.04 608.585 1042.25 608.585 1043.02 608.545 1044.34 608.464L1044.34 599.575 1042.04 599.575Z" fill="#FFFFFF" fill-rule="evenodd"/><path d="M1054 591 1055.59 591 1058.02 600.506 1060.42 591 1062 591C1062 591.057 1062 591.093 1062 591.109L1059.86 598.794C1059.59 599.563 1059.23 600.846 1058.78 602.643L1058.78 610 1057.22 610 1057.22 602.643C1057.11 602.028 1056.95 601.38 1056.73 600.7 1056.37 599.535 1056.17 598.899 1056.14 598.794L1054 591.109C1054 591.101 1054 591.065 1054 591Z" fill="#FFFFFF" fill-rule="evenodd"/><path d="M1095 591 1099.44 591C1100.47 591 1101.33 591.322 1102 591.965 1102.67 592.609 1103 593.432 1103 594.436L1103 606.564C1103 607.568 1102.66 608.391 1101.99 609.035 1101.32 609.678 1100.47 610 1099.44 610L1095 610 1095 591ZM1096.72 592.493 1096.72 608.507 1099.02 608.507C1099.69 608.507 1100.23 608.319 1100.65 607.942 1101.07 607.566 1101.28 607.05 1101.28 606.394L1101.28 594.581C1101.28 593.958 1101.08 593.454 1100.67 593.07 1100.27 592.686 1099.75 592.493 1099.12 592.493L1096.72 592.493Z" fill="#FFFFFF" fill-rule="evenodd"/><path d="M1137 591 1139 591 1139 610 1137 610 1137 591Z" fill="#FFFFFF" fill-rule="evenodd"/><path d="M1148 591 1149.66 591 1151.25 604.672C1151.26 604.979 1151.28 605.431 1151.3 606.028 1151.29 605.721 1151.31 605.269 1151.35 604.672L1153.29 591 1154.72 591 1156.65 604.672C1156.67 604.979 1156.68 605.431 1156.7 606.028 1156.7 605.721 1156.72 605.269 1156.76 604.672L1158.36 591 1160 591 1157.44 610 1156.09 610 1154.05 595.711C1154.04 595.46 1154.02 595.089 1154 594.597 1154 594.855 1153.98 595.226 1153.95 595.711L1151.91 610 1150.56 610 1148 591Z" fill="#FFFFFF" fill-rule="evenodd"/><path d="M1179 591 1180.71 591 1180.71 603.068 1183.91 598.187 1185.74 598.187 1185.74 598.236 1182.12 603.456 1186 610 1184.14 610 1180.71 603.978 1180.71 610 1179 610 1179 591Z" fill="#FFFFFF" fill-rule="evenodd"/><path d="M1106 594 1107 594 1107 596 1106 596 1106 594Z" fill="#FFFFFF" fill-rule="evenodd"/><path d="M1119 594 1120 594 1120 596 1119 596 1119 594Z" fill="#FFFFFF" fill-rule="evenodd"/><path d="M1123.4 595 1124.97 595 1124.97 598.562 1127 598.562 1127 599.937 1124.97 599.937 1124.97 608.625 1127 608.625 1127 610 1124.74 610C1123.85 610 1123.4 609.557 1123.4 608.672L1123.4 599.937 1122 599.937 1122 598.562 1123.4 598.562 1123.4 595Z" fill="#FFFFFF" fill-rule="evenodd"/><path d="M1006.37 599C1006.56 599 1007.55 599.131 1009.34 599.392L1009.34 599.071 1011 599.071 1011 613.659C1011 614.553 1010.53 615 1009.58 615L1005.62 615C1004.66 615 1004.18 614.434 1004.18 613.303 1004.18 613.168 1004.18 612.968 1004.19 612.703 1004.21 612.438 1004.21 612.246 1004.21 612.128L1005.86 612.128 1005.86 613.659 1009.34 613.659 1009.34 610.62 1006.6 610.62C1005.85 610.62 1005.23 610.385 1004.74 609.914 1004.25 609.443 1004 608.852 1004 608.139L1004 601.386C1004 600.705 1004.22 600.138 1004.65 599.682 1005.09 599.227 1005.66 599 1006.37 599ZM1007.04 600.389C1006.12 600.389 1005.66 600.832 1005.66 601.718L1005.66 607.902C1005.66 608.788 1006.12 609.231 1007.04 609.231L1009.34 609.231 1009.34 600.507C1008.02 600.428 1007.25 600.389 1007.04 600.389Z" fill="#FFFFFF" fill-rule="evenodd"/><path d="M1036.7 599C1037.57 599 1038 599.408 1038 600.225L1038 602.663 1036.46 602.663 1036.46 600.405 1033.57 600.494 1033.57 610 1032 610 1032 599.067 1033.57 599.067 1033.57 599.371C1034.09 599.296 1034.61 599.217 1035.14 599.135 1035.76 599.045 1036.29 599 1036.7 599Z" fill="#FFFFFF" fill-rule="evenodd"/><path d="M1086.49 599C1087.5 599 1088 599.408 1088 600.225L1088 602.663 1086.2 602.663 1086.2 600.405 1082.83 600.494 1082.83 610 1081 610 1081 599.067 1082.83 599.067 1082.83 599.371C1083.43 599.296 1084.04 599.217 1084.66 599.135 1085.39 599.045 1086 599 1086.49 599Z" fill="#FFFFFF" fill-rule="evenodd"/><path d="M1111.37 599C1111.56 599 1112.55 599.131 1114.34 599.392L1114.34 599.071 1116 599.071 1116 613.659C1116 614.553 1115.53 615 1114.58 615L1110.62 615C1109.66 615 1109.18 614.434 1109.18 613.303 1109.18 613.168 1109.18 612.968 1109.19 612.703 1109.21 612.438 1109.21 612.246 1109.21 612.128L1110.86 612.128 1110.86 613.659 1114.34 613.659 1114.34 610.62 1111.6 610.62C1110.85 610.62 1110.23 610.385 1109.74 609.914 1109.25 609.443 1109 608.852 1109 608.139L1109 601.386C1109 600.705 1109.22 600.138 1109.65 599.682 1110.09 599.227 1110.66 599 1111.37 599ZM1112.04 600.389C1111.12 600.389 1110.66 600.832 1110.66 601.718L1110.66 607.902C1110.66 608.788 1111.12 609.231 1112.04 609.231L1114.34 609.231 1114.34 600.507C1113.02 600.428 1112.25 600.389 1112.04 600.389Z" fill="#FFFFFF" fill-rule="evenodd"/><path d="M1175.7 599C1176.57 599 1177 599.408 1177 600.225L1177 602.663 1175.46 602.663 1175.46 600.405 1172.57 600.494 1172.57 610 1171 610 1171 599.067 1172.57 599.067 1172.57 599.371C1173.09 599.296 1173.61 599.217 1174.14 599.135 1174.76 599.045 1175.29 599 1175.7 599Z" fill="#FFFFFF" fill-rule="evenodd"/><path d="M1201.61 599C1202.54 599 1203 599.431 1203 600.294L1203 608.139C1203 608.852 1202.75 609.443 1202.26 609.914 1201.77 610.385 1201.15 610.62 1200.41 610.62L1197.67 610.62 1197.67 615 1196 615 1196 599.071 1197.67 599.071 1197.67 599.392C1198.32 599.313 1198.98 599.233 1199.64 599.154 1200.48 599.051 1201.13 599 1201.61 599ZM1201.33 600.484 1197.67 600.579 1197.67 609.231 1199.97 609.231C1200.88 609.231 1201.33 608.788 1201.33 607.902L1201.33 600.484Z" fill="#FFFFFF" fill-rule="evenodd"/><path d="M981.551 599 985.587 599C986.529 599 987 599.423 987 600.27L987 609.933 985.348 609.933 985.348 609.629C984.683 609.712 984.019 609.79 983.355 609.865 982.531 609.955 981.871 610 981.375 610 980.458 610 980 609.596 980 608.786L980 604.798C980 603.959 980.475 603.539 981.425 603.539L985.373 603.539 985.373 600.247 981.766 600.247 981.766 602.112 980.139 602.112 980.139 600.27C980.139 599.423 980.61 599 981.551 599ZM981.627 604.708 981.627 608.641 985.373 608.573 985.373 604.708 981.627 604.708Z" fill="#FFFFFF" fill-rule="evenodd"/><path d="M996.235 599 999.765 599C1000.59 599 1001 599.426 1001 600.278L1001 604.234 1000.5 604.766 996.423 604.766 996.423 608.745 999.577 608.745 999.577 606.733 1001 606.733 1001 608.723C1001 609.574 1000.59 610 999.765 610L996.235 610C995.412 610 995 609.574 995 608.723L995 600.278C995 599.426 995.412 599 996.235 599ZM996.423 600.255 996.423 603.567 999.577 603.567 999.577 600.255 996.423 600.255Z" fill="#FFFFFF" fill-rule="evenodd"/><path d="M1013 599 1014.65 599 1014.65 608.596 1018.35 608.506 1018.35 599 1020 599 1020 609.933 1018.35 609.933 1018.35 609.629C1017.68 609.712 1017.02 609.79 1016.36 609.865 1015.55 609.955 1014.89 610 1014.36 610 1013.45 610 1013 609.596 1013 608.786L1013 599Z" fill="#FFFFFF" fill-rule="evenodd"/><path d="M1023.55 599 1027.59 599C1028.53 599 1029 599.423 1029 600.27L1029 609.933 1027.35 609.933 1027.35 609.629C1026.68 609.712 1026.02 609.79 1025.35 609.865 1024.53 609.955 1023.87 610 1023.37 610 1022.46 610 1022 609.596 1022 608.786L1022 604.798C1022 603.959 1022.48 603.539 1023.43 603.539L1027.37 603.539 1027.37 600.247 1023.77 600.247 1023.77 602.112 1022.14 602.112 1022.14 600.27C1022.14 599.423 1022.61 599 1023.55 599ZM1023.63 604.708 1023.63 608.641 1027.37 608.573 1027.37 604.708 1023.63 604.708Z" fill="#FFFFFF" fill-rule="evenodd"/><path d="M1064.4 599 1068.58 599C1069.53 599 1070 599.426 1070 600.278L1070 608.723C1070 609.574 1069.53 610 1068.58 610L1064.4 610C1063.47 610 1063 609.574 1063 608.723L1063 600.278C1063 599.426 1063.47 599 1064.4 599ZM1064.67 600.323 1064.67 608.677 1068.33 608.677 1068.33 600.323 1064.67 600.323Z" fill="#FFFFFF" fill-rule="evenodd"/><path d="M1072 599 1073.65 599 1073.65 608.596 1077.35 608.506 1077.35 599 1079 599 1079 609.933 1077.35 609.933 1077.35 609.629C1076.68 609.712 1076.02 609.79 1075.36 609.865 1074.55 609.955 1073.89 610 1073.36 610 1072.45 610 1072 609.596 1072 608.786L1072 599Z" fill="#FFFFFF" fill-rule="evenodd"/><path d="M1106 599 1107 599 1107 610 1106 610 1106 599Z" fill="#FFFFFF" fill-rule="evenodd"/><path d="M1119 599 1120 599 1120 610 1119 610 1119 599Z" fill="#FFFFFF" fill-rule="evenodd"/><path d="M1129.55 599 1133.59 599C1134.53 599 1135 599.423 1135 600.27L1135 609.933 1133.35 609.933 1133.35 609.629C1132.68 609.712 1132.02 609.79 1131.35 609.865 1130.53 609.955 1129.87 610 1129.37 610 1128.46 610 1128 609.596 1128 608.786L1128 604.798C1128 603.959 1128.48 603.539 1129.43 603.539L1133.37 603.539 1133.37 600.247 1129.77 600.247 1129.77 602.112 1128.14 602.112 1128.14 600.27C1128.14 599.423 1128.61 599 1129.55 599ZM1129.63 604.708 1129.63 608.641 1133.37 608.573 1133.37 604.708 1129.63 604.708Z" fill="#FFFFFF" fill-rule="evenodd"/><path d="M1163.2 599 1166.79 599C1167.6 599 1168 599.426 1168 600.278L1168 608.723C1168 609.574 1167.6 610 1166.79 610L1163.2 610C1162.4 610 1162 609.574 1162 608.723L1162 600.278C1162 599.426 1162.4 599 1163.2 599ZM1163.43 600.323 1163.43 608.677 1166.57 608.677 1166.57 600.323 1163.43 600.323Z" fill="#FFFFFF" fill-rule="evenodd"/><path d="M1188.3 599 1191.7 599C1192.55 599 1192.98 599.426 1192.98 600.278L1192.98 602.471 1191.52 602.471 1191.52 600.3 1188.48 600.3 1188.48 602.222 1192.45 605.444C1192.82 605.738 1193 606.137 1193 606.642L1193 608.723C1193 609.574 1192.57 610 1191.72 610L1188.28 610C1187.43 610 1187 609.574 1187 608.723L1187 606.224 1188.48 606.224 1188.48 608.7 1191.52 608.7 1191.52 606.507 1187.59 603.285C1187.21 602.983 1187.02 602.591 1187.02 602.109L1187.02 600.278C1187.02 599.426 1187.45 599 1188.3 599Z" fill="#FFFFFF" fill-rule="evenodd"/><path d="M1206.55 599 1210.59 599C1211.53 599 1212 599.423 1212 600.27L1212 609.933 1210.35 609.933 1210.35 609.629C1209.68 609.712 1209.02 609.79 1208.35 609.865 1207.53 609.955 1206.87 610 1206.37 610 1205.46 610 1205 609.596 1205 608.786L1205 604.798C1205 603.959 1205.48 603.539 1206.43 603.539L1210.37 603.539 1210.37 600.247 1206.77 600.247 1206.77 602.112 1205.14 602.112 1205.14 600.27C1205.14 599.423 1205.61 599 1206.55 599ZM1206.63 604.708 1206.63 608.641 1210.37 608.573 1210.37 604.708 1206.63 604.708Z" fill="#FFFFFF" fill-rule="evenodd"/><path d="M1216.24 599 1219.76 599C1220.59 599 1221 599.426 1221 600.278L1221 602.471 1219.54 602.471 1219.54 600.323 1216.48 600.323 1216.48 608.677 1219.54 608.677 1219.54 606.224 1221 606.224 1221 608.723C1221 609.574 1220.59 610 1219.76 610L1216.24 610C1215.41 610 1215 609.574 1215 608.723L1215 600.278C1215 599.426 1215.41 599 1216.24 599Z" fill="#FFFFFF" fill-rule="evenodd"/><path d="M1225.24 599 1228.76 599C1229.59 599 1230 599.426 1230 600.278L1230 604.234 1229.5 604.766 1225.42 604.766 1225.42 608.745 1228.58 608.745 1228.58 606.733 1230 606.733 1230 608.723C1230 609.574 1229.59 610 1228.76 610L1225.24 610C1224.41 610 1224 609.574 1224 608.723L1224 600.278C1224 599.426 1224.41 599 1225.24 599ZM1225.42 600.255 1225.42 603.567 1228.58 603.567 1228.58 600.255 1225.42 600.255Z" fill="#FFFFFF" fill-rule="evenodd"/><path d="M968.288 473.9C968.288 473.9 945.421 483.425 942.967 484.461 940.529 485.496 939.302 487.98 939.302 490.465 939.302 492.949 937.462 525.371 968.288 541.045 968.288 541.045 971.09 541.831 973.213 541.045 975.335 540.261 1002.28 527.01 1002.28 490.361 1002.28 490.361 1002.28 486.635 998.003 484.564 993.708 482.494 972.981 473.9 972.981 473.9 972.981 473.9 970.444 472.761 968.288 473.9Z" stroke="#FFFFFF" stroke-width="0.666667" stroke-miterlimit="8" fill="#521C94" fill-rule="evenodd"/><path d="M0 0 50 21.5 0 43 25.3532 20.6914 10.0833 25.3532 0 0Z" fill="#FFC000" fill-rule="evenodd" transform="matrix(-6.12323e-17 -1 -1 6.12323e-17 991 526)"/><path d="M1015.94 488 1020.06 488 1028 522 1023.18 522 1021.76 514.587 1014.24 514.587 1012.82 522 1008 522 1015.94 488ZM1018 494.968 1015.04 510.402 1020.96 510.402 1018 494.968Z" fill="#FFFFFF" fill-rule="evenodd"/><path d="M1134.74 488 1139 488 1139 521.584 1134.74 521.584 1134.74 518.52 1134.26 519.583C1133.94 520.097 1133.57 520.537 1133.14 520.903 1132.29 521.634 1131.29 522 1130.14 522 1129.06 522 1128.14 521.719 1127.37 521.157 1126.6 520.595 1126.01 519.779 1125.61 518.709 1125.2 517.638 1125 516.349 1125 514.84L1125 504.607C1125 503.052 1125.2 501.716 1125.61 500.6 1126.01 499.483 1126.6 498.637 1127.37 498.059 1128.14 497.482 1129.06 497.193 1130.14 497.193 1131.2 497.193 1132.17 497.562 1133.05 498.302 1133.5 498.671 1133.9 499.116 1134.25 499.635L1134.74 500.538 1134.74 488ZM1132 501.281C1131.15 501.281 1130.48 501.597 1129.99 502.228 1129.51 502.86 1129.26 503.737 1129.26 504.861L1129.26 514.655C1129.26 515.687 1129.51 516.487 1129.99 517.057 1130.48 517.627 1131.15 517.912 1132 517.912 1132.58 517.912 1133.08 517.777 1133.48 517.507 1133.88 517.238 1134.19 516.845 1134.41 516.329 1134.63 515.814 1134.74 515.194 1134.74 514.47L1134.74 504.838C1134.74 504.099 1134.63 503.46 1134.41 502.921 1134.19 502.382 1133.88 501.974 1133.48 501.697 1133.08 501.42 1132.58 501.281 1132 501.281Z" fill="#FFFFFF" fill-rule="evenodd"/><path d="M1192 488 1196.6 488 1196.6 509.47 1204.19 497.728 1209.01 497.728 1202.39 507.241 1210 522 1204.96 522 1199.79 510.977 1196.6 515.557 1196.6 522 1192 522 1192 488Z" fill="#FFFFFF" fill-rule="evenodd"/><path d="M1044.4 497C1045.58 497 1046.6 497.304 1047.44 497.912 1048.28 498.52 1048.92 499.408 1049.35 500.576 1049.78 501.744 1050 503.157 1050 504.815L1050 514.405C1050 516.079 1049.77 517.511 1049.31 518.703 1048.86 519.895 1048.2 520.803 1047.33 521.427 1046.47 522.05 1045.42 522.362 1044.18 522.362 1043 522.362 1041.97 521.991 1041.09 521.249 1040.66 520.878 1040.28 520.434 1039.97 519.917L1039.57 518.949 1039.57 532 1035 532 1035 497.426 1039.57 497.426 1039.57 500.465 1039.99 499.59C1040.36 499.036 1040.78 498.563 1041.25 498.172 1042.2 497.391 1043.25 497 1044.4 497ZM1042.5 501.121C1041.89 501.121 1041.37 501.27 1040.93 501.57 1040.48 501.87 1040.15 502.305 1039.92 502.873 1039.68 503.441 1039.57 504.12 1039.57 504.909L1039.57 514.334C1039.57 515.155 1039.68 515.858 1039.92 516.442 1040.15 517.026 1040.48 517.472 1040.93 517.78 1041.37 518.088 1041.89 518.242 1042.5 518.242 1043.41 518.242 1044.13 517.89 1044.65 517.188 1045.17 516.485 1045.43 515.503 1045.43 514.24L1045.43 505.004C1045.43 503.789 1045.17 502.837 1044.65 502.151 1044.13 501.464 1043.41 501.121 1042.5 501.121Z" fill="#FFFFFF" fill-rule="evenodd"/><path d="M1067.4 497C1068.58 497 1069.6 497.304 1070.44 497.912 1071.28 498.52 1071.92 499.408 1072.35 500.576 1072.78 501.744 1073 503.157 1073 504.815L1073 514.405C1073 516.079 1072.77 517.511 1072.31 518.703 1071.86 519.895 1071.2 520.803 1070.33 521.427 1069.47 522.05 1068.42 522.362 1067.18 522.362 1066 522.362 1064.97 521.991 1064.09 521.249 1063.66 520.878 1063.28 520.434 1062.97 519.917L1062.57 518.949 1062.57 532 1058 532 1058 497.426 1062.57 497.426 1062.57 500.465 1062.99 499.59C1063.36 499.036 1063.78 498.563 1064.25 498.172 1065.2 497.391 1066.25 497 1067.4 497ZM1065.5 501.121C1064.89 501.121 1064.37 501.27 1063.93 501.57 1063.48 501.87 1063.15 502.305 1062.92 502.873 1062.68 503.441 1062.57 504.12 1062.57 504.909L1062.57 514.334C1062.57 515.155 1062.68 515.858 1062.92 516.442 1063.15 517.026 1063.48 517.472 1063.93 517.78 1064.37 518.088 1064.89 518.242 1065.5 518.242 1066.41 518.242 1067.13 517.89 1067.65 517.188 1068.17 516.485 1068.43 515.503 1068.43 514.24L1068.43 505.004C1068.43 503.789 1068.17 502.837 1067.65 502.151 1067.13 501.464 1066.41 501.121 1065.5 501.121Z" fill="#FFFFFF" fill-rule="evenodd"/><path d="M1087.96 497C1089.43 497 1090.7 497.296 1091.74 497.887 1092.79 498.478 1093.59 499.346 1094.14 500.49 1094.68 501.634 1094.96 503.007 1094.96 504.61L1094.96 505.403 1090.79 505.403 1090.79 504.61C1090.79 503.505 1090.55 502.649 1090.06 502.042 1089.57 501.435 1088.89 501.132 1088.02 501.132 1087.14 501.132 1086.45 501.431 1085.95 502.03 1085.46 502.63 1085.21 503.474 1085.21 504.563L1085.21 514.787C1085.21 515.768 1085.46 516.526 1085.95 517.063 1086.45 517.6 1087.14 517.868 1088.02 517.868 1088.89 517.868 1089.58 517.588 1090.07 517.028 1090.57 516.468 1090.81 515.69 1090.81 514.694L1090.81 513.923 1095 513.923 1095 514.694C1095 516.234 1094.72 517.549 1094.17 518.639 1093.62 519.728 1092.81 520.56 1091.77 521.136 1090.72 521.712 1089.45 522 1087.96 522 1086.48 522 1085.22 521.72 1084.19 521.16 1083.16 520.599 1082.37 519.779 1081.82 518.697 1081.27 517.616 1081 516.312 1081 514.787L1081 504.563C1081 502.96 1081.27 501.595 1081.82 500.466 1082.37 499.338 1083.16 498.478 1084.2 497.887 1085.24 497.296 1086.49 497 1087.96 497Z" fill="#FFFFFF" fill-rule="evenodd"/><path d="M1110.05 497C1111.52 497 1112.78 497.269 1113.82 497.805 1114.86 498.342 1115.65 499.128 1116.19 500.163 1116.73 501.198 1117 502.447 1117 503.909L1117 515.044C1117 516.507 1116.73 517.759 1116.19 518.802 1115.65 519.845 1114.86 520.638 1113.82 521.183 1112.78 521.728 1111.52 522 1110.05 522 1108.57 522 1107.31 521.724 1106.25 521.171 1105.2 520.619 1104.39 519.818 1103.83 518.767 1103.28 517.717 1103 516.452 1103 514.974L1103 503.909C1103 502.447 1103.28 501.198 1103.83 500.163 1104.39 499.128 1105.2 498.342 1106.25 497.805 1107.31 497.269 1108.57 497 1110.05 497ZM1110 501.318C1109.22 501.318 1108.6 501.564 1108.14 502.054 1107.69 502.544 1107.46 503.225 1107.46 504.096L1107.46 514.857C1107.46 515.744 1107.69 516.437 1108.13 516.935 1108.58 517.433 1109.2 517.682 1110 517.682 1110.8 517.682 1111.42 517.437 1111.87 516.946 1112.31 516.456 1112.54 515.76 1112.54 514.857L1112.54 504.096C1112.54 503.225 1112.31 502.544 1111.87 502.054 1111.42 501.564 1110.8 501.318 1110 501.318Z" fill="#FFFFFF" fill-rule="evenodd"/><path d="M1154.93 497C1156.4 497 1157.66 497.307 1158.71 497.922 1159.76 498.537 1160.56 499.432 1161.11 500.606 1161.66 501.781 1161.93 503.201 1161.93 504.866L1161.93 511.262 1152.1 511.262 1152.1 514.087C1152.1 515.27 1152.36 516.192 1152.88 516.853 1153.41 517.514 1154.15 517.845 1155.11 517.845 1156 517.845 1156.68 517.6 1157.17 517.11 1157.66 516.62 1157.9 515.923 1157.9 515.021L1157.9 514.857 1162 514.857 1162 515.021C1162 517.246 1161.4 518.965 1160.2 520.179 1159 521.393 1157.3 522 1155.11 522 1153.61 522 1152.33 521.685 1151.27 521.055 1150.22 520.424 1149.41 519.51 1148.84 518.312 1148.28 517.114 1148 515.666 1148 513.97L1148 505.497C1148 503.707 1148.27 502.174 1148.82 500.898 1149.37 499.622 1150.16 498.653 1151.2 497.992 1152.23 497.331 1153.48 497 1154.93 497ZM1154.93 501.015C1154.03 501.015 1153.33 501.381 1152.84 502.112 1152.34 502.843 1152.1 503.886 1152.1 505.24L1152.1 507.598 1157.84 507.598 1157.84 504.96C1157.84 503.699 1157.58 502.727 1157.08 502.042 1156.58 501.357 1155.86 501.015 1154.93 501.015Z" fill="#FFFFFF" fill-rule="evenodd"/><path d="M1177.31 497C1178.76 497 1180.01 497.272 1181.06 497.817 1182.11 498.362 1182.91 499.144 1183.47 500.163 1184.03 501.182 1184.31 502.392 1184.31 503.793L1184.31 503.933 1179.82 503.933 1179.82 503.746C1179.82 502.859 1179.6 502.17 1179.16 501.68 1178.72 501.19 1178.11 500.945 1177.31 500.945 1176.51 500.945 1175.9 501.217 1175.46 501.762 1175.02 502.307 1174.8 503.069 1174.8 504.05 1174.8 504.719 1174.95 505.267 1175.25 505.695 1175.56 506.123 1175.95 506.458 1176.44 506.699 1176.92 506.94 1177.55 507.185 1178.31 507.434 1178.34 507.45 1178.38 507.461 1178.43 507.469 1178.48 507.477 1178.52 507.489 1178.55 507.504 1178.57 507.52 1178.59 507.528 1178.62 507.528 1178.65 507.528 1178.68 507.535 1178.69 507.551 1180.03 507.971 1181.12 508.403 1181.95 508.846 1182.79 509.29 1183.51 509.994 1184.1 510.959 1184.7 511.924 1185 513.239 1185 514.904 1185 516.367 1184.7 517.631 1184.09 518.697 1183.49 519.763 1182.62 520.58 1181.5 521.148 1180.38 521.716 1179.04 522 1177.5 522 1175.96 522 1174.62 521.708 1173.5 521.125 1172.38 520.541 1171.51 519.701 1170.91 518.604 1170.3 517.507 1170 516.219 1170 514.74L1170 514.554 1174.49 514.554 1174.49 514.74C1174.49 515.783 1174.75 516.596 1175.28 517.18 1175.8 517.763 1176.54 518.055 1177.5 518.055 1178.44 518.055 1179.18 517.775 1179.71 517.215 1180.24 516.654 1180.51 515.884 1180.51 514.904 1180.51 514.25 1180.35 513.717 1180.04 513.305 1179.73 512.892 1179.34 512.566 1178.86 512.324 1178.38 512.083 1177.71 511.807 1176.83 511.496 1176.77 511.48 1176.71 511.465 1176.65 511.449 1176.6 511.434 1176.54 511.41 1176.47 511.379 1176.43 511.364 1176.38 511.348 1176.34 511.332 1176.3 511.317 1176.26 511.301 1176.21 511.286 1175.03 510.85 1174.03 510.383 1173.21 509.885 1172.39 509.387 1171.7 508.671 1171.15 507.738 1170.59 506.804 1170.31 505.606 1170.31 504.143 1170.31 502.68 1170.59 501.412 1171.16 500.338 1171.72 499.264 1172.53 498.44 1173.58 497.864 1174.63 497.288 1175.88 497 1177.31 497Z" fill="#FFFFFF" fill-rule="evenodd"/></g></svg>