<svg width="278" height="71" xmlns="http://www.w3.org/2000/svg" xmlns:xlink="http://www.w3.org/1999/xlink" overflow="hidden"><g transform="translate(-471 -438)"><path d="M502.745 439.906C502.745 439.906 479.515 449.571 477.022 450.622 474.545 451.672 473.299 454.193 473.299 456.715 473.299 459.235 471.429 492.134 502.745 508.038 502.745 508.038 505.592 508.835 507.748 508.038 509.904 507.243 537.278 493.797 537.278 456.609 537.278 456.609 537.278 452.828 532.932 450.727 528.569 448.626 507.512 439.906 507.512 439.906 507.512 439.906 504.935 438.75 502.745 439.906Z" stroke="#404040" stroke-width="0.666667" stroke-miterlimit="8" fill="#FFFFFF" fill-rule="evenodd"/><path d="M0 0 53 23 0 46 26.8743 22.135 10.6883 27.1221 0 0Z" fill="#FFC000" fill-rule="evenodd" transform="matrix(-6.12323e-17 -1 -1 6.12323e-17 528 495)"/><path d="M550.943 453 555.057 453 563 488 558.177 488 556.758 480.369 549.242 480.369 547.823 488 543 488 550.943 453ZM553 460.173 550.044 476.061 555.956 476.061 553 460.173Z" fill-rule="evenodd"/><path d="M672.433 453 677 453 677 487.572 672.433 487.572 672.433 484.417 671.922 485.512C671.581 486.041 671.183 486.494 670.726 486.871 669.813 487.624 668.739 488 667.505 488 666.351 488 665.361 487.711 664.536 487.132 663.711 486.553 663.082 485.713 662.649 484.612 662.216 483.51 662 482.183 662 480.629L662 470.096C662 468.495 662.216 467.12 662.649 465.97 663.082 464.821 663.711 463.949 664.536 463.355 665.361 462.761 666.351 462.463 667.505 462.463 668.643 462.463 669.684 462.844 670.63 463.605 671.103 463.985 671.531 464.443 671.916 464.978L672.433 465.907 672.433 453ZM669.5 466.672C668.586 466.672 667.869 466.997 667.349 467.647 666.828 468.297 666.567 469.2 666.567 470.357L666.567 480.439C666.567 481.501 666.828 482.325 667.349 482.912 667.869 483.498 668.586 483.791 669.5 483.791 670.125 483.791 670.654 483.653 671.087 483.375 671.519 483.098 671.852 482.694 672.084 482.163 672.317 481.632 672.433 480.994 672.433 480.249L672.433 470.334C672.433 469.573 672.317 468.915 672.084 468.36 671.852 467.805 671.519 467.385 671.087 467.1 670.654 466.815 670.125 466.672 669.5 466.672Z" fill-rule="evenodd"/><path d="M730 453 734.603 453 734.603 475.102 742.186 463.014 747.007 463.014 740.388 472.807 748 488 742.961 488 737.789 476.653 734.603 481.368 734.603 488 730 488 730 453Z" fill-rule="evenodd"/><path d="M580.399 462C581.585 462 582.599 462.313 583.44 462.938 584.281 463.563 584.918 464.476 585.351 465.678 585.784 466.88 586 468.333 586 470.038L586 479.903C586 481.624 585.772 483.097 585.315 484.323 584.858 485.549 584.197 486.483 583.332 487.125 582.466 487.766 581.417 488.087 580.183 488.087 578.997 488.087 577.967 487.705 577.094 486.942 576.657 486.56 576.284 486.104 575.973 485.572L575.567 484.577 575.567 498 571 498 571 462.439 575.567 462.439 575.567 465.564 575.994 464.664C576.359 464.094 576.777 463.608 577.25 463.206 578.196 462.402 579.245 462 580.399 462ZM578.5 466.238C577.891 466.238 577.366 466.392 576.925 466.701 576.485 467.01 576.148 467.456 575.916 468.041 575.683 468.625 575.567 469.323 575.567 470.135L575.567 479.83C575.567 480.674 575.683 481.397 575.916 481.997 576.148 482.598 576.485 483.057 576.925 483.373 577.366 483.69 577.891 483.849 578.5 483.849 579.414 483.849 580.131 483.487 580.651 482.765 581.172 482.042 581.433 481.031 581.433 479.732L581.433 470.233C581.433 468.983 581.172 468.004 580.651 467.298 580.131 466.591 579.414 466.238 578.5 466.238Z" fill-rule="evenodd"/><path d="M603.399 462C604.585 462 605.599 462.313 606.44 462.938 607.281 463.563 607.918 464.476 608.351 465.678 608.784 466.88 609 468.333 609 470.038L609 479.903C609 481.624 608.772 483.097 608.315 484.323 607.858 485.549 607.197 486.483 606.332 487.125 605.466 487.766 604.417 488.087 603.183 488.087 601.997 488.087 600.967 487.705 600.094 486.942 599.657 486.56 599.284 486.104 598.973 485.572L598.567 484.577 598.567 498 594 498 594 462.439 598.567 462.439 598.567 465.564 598.994 464.664C599.359 464.094 599.777 463.608 600.25 463.206 601.196 462.402 602.245 462 603.399 462ZM601.5 466.238C600.891 466.238 600.366 466.392 599.925 466.701 599.485 467.01 599.148 467.456 598.916 468.041 598.683 468.625 598.567 469.323 598.567 470.135L598.567 479.83C598.567 480.674 598.683 481.397 598.916 481.997 599.148 482.598 599.485 483.057 599.925 483.373 600.366 483.69 600.891 483.849 601.5 483.849 602.414 483.849 603.131 483.487 603.651 482.765 604.172 482.042 604.433 481.031 604.433 479.732L604.433 470.233C604.433 468.983 604.172 468.004 603.651 467.298 603.131 466.591 602.414 466.238 601.5 466.238Z" fill-rule="evenodd"/><path d="M624.453 462C626.035 462 627.388 462.308 628.511 462.923 629.634 463.538 630.489 464.44 631.074 465.629 631.66 466.819 631.953 468.247 631.953 469.914L631.953 470.74 627.49 470.74 627.49 469.914C627.49 468.765 627.229 467.875 626.707 467.244 626.185 466.612 625.457 466.297 624.524 466.297 623.574 466.297 622.835 466.608 622.305 467.232 621.775 467.855 621.51 468.733 621.51 469.866L621.51 480.499C621.51 481.518 621.775 482.307 622.305 482.866 622.835 483.424 623.574 483.703 624.524 483.703 625.457 483.703 626.189 483.412 626.719 482.829 627.249 482.246 627.514 481.437 627.514 480.401L627.514 479.6 632 479.6 632 480.401C632 482.004 631.703 483.371 631.11 484.504 630.517 485.637 629.658 486.503 628.535 487.102 627.411 487.701 626.051 488 624.453 488 622.87 488 621.525 487.709 620.418 487.126 619.31 486.543 618.464 485.69 617.878 484.565 617.293 483.44 617 482.085 617 480.499L617 469.866C617 468.199 617.293 466.778 617.878 465.605 618.464 464.432 619.314 463.538 620.43 462.923 621.545 462.308 622.886 462 624.453 462Z" fill-rule="evenodd"/><path d="M646.047 462C647.519 462 648.776 462.279 649.817 462.838 650.859 463.396 651.649 464.213 652.19 465.29 652.73 466.366 653 467.664 653 469.186L653 480.766C653 482.287 652.73 483.59 652.19 484.674 651.649 485.758 650.859 486.584 649.817 487.15 648.776 487.717 647.519 488 646.047 488 644.575 488 643.31 487.713 642.253 487.138 641.196 486.564 640.39 485.73 639.834 484.638 639.278 483.545 639 482.23 639 480.693L639 469.186C639 467.664 639.278 466.366 639.834 465.29 640.39 464.213 641.196 463.396 642.253 462.838 643.31 462.279 644.575 462 646.047 462ZM646 466.491C645.217 466.491 644.598 466.746 644.144 467.256 643.69 467.766 643.463 468.474 643.463 469.38L643.463 480.571C643.463 481.494 643.686 482.214 644.133 482.732 644.579 483.25 645.201 483.509 646 483.509 646.799 483.509 647.421 483.254 647.867 482.744 648.314 482.234 648.537 481.51 648.537 480.571L648.537 469.38C648.537 468.474 648.314 467.766 647.867 467.256 647.421 466.746 646.799 466.491 646 466.491Z" fill-rule="evenodd"/><path d="M692.428 462C694.003 462 695.354 462.32 696.479 462.959 697.604 463.598 698.461 464.529 699.047 465.751 699.634 466.973 699.928 468.449 699.928 470.181L699.928 476.833 689.389 476.833 689.389 479.77C689.389 481 689.67 481.959 690.233 482.647 690.796 483.335 691.592 483.679 692.621 483.679 693.569 483.679 694.305 483.424 694.827 482.914 695.35 482.404 695.611 481.68 695.611 480.741L695.611 480.571 700 480.571 700 480.741C700 483.056 699.357 484.844 698.071 486.106 696.785 487.369 694.968 488 692.621 488 691.013 488 689.642 487.672 688.509 487.017 687.375 486.361 686.507 485.41 685.904 484.164 685.302 482.918 685 481.413 685 479.649L685 470.837C685 468.975 685.293 467.381 685.88 466.054 686.467 464.727 687.315 463.72 688.424 463.032 689.534 462.344 690.868 462 692.428 462ZM692.428 466.176C691.463 466.176 690.715 466.556 690.185 467.317 689.654 468.077 689.389 469.162 689.389 470.57L689.389 473.021 695.539 473.021 695.539 470.278C695.539 468.967 695.269 467.956 694.731 467.244 694.192 466.532 693.424 466.176 692.428 466.176Z" fill-rule="evenodd"/><path d="M715.309 462C716.758 462 718.008 462.283 719.059 462.85 720.11 463.416 720.914 464.229 721.471 465.29 722.029 466.35 722.307 467.608 722.307 469.064L722.307 469.21 717.817 469.21 717.817 469.016C717.817 468.093 717.598 467.377 717.16 466.867 716.722 466.358 716.105 466.103 715.309 466.103 714.513 466.103 713.896 466.386 713.458 466.952 713.02 467.519 712.801 468.312 712.801 469.332 712.801 470.027 712.952 470.598 713.255 471.043 713.557 471.488 713.951 471.836 714.437 472.087 714.923 472.338 715.548 472.593 716.312 472.852 716.344 472.868 716.384 472.88 716.431 472.888 716.479 472.896 716.519 472.908 716.551 472.924 716.567 472.941 716.591 472.949 716.623 472.949 716.654 472.949 716.678 472.957 716.694 472.973 718.032 473.41 719.119 473.859 719.955 474.32 720.791 474.781 721.507 475.514 722.104 476.517 722.701 477.521 723 478.888 723 480.62 723 482.141 722.697 483.456 722.092 484.565 721.487 485.674 720.623 486.523 719.501 487.114 718.378 487.705 717.045 488 715.5 488 713.955 488 712.622 487.697 711.499 487.09 710.377 486.483 709.513 485.609 708.908 484.468 708.302 483.327 708 481.988 708 480.45L708 480.256 712.49 480.256 712.49 480.45C712.49 481.534 712.753 482.38 713.279 482.987 713.804 483.594 714.545 483.897 715.5 483.897 716.439 483.897 717.176 483.606 717.709 483.023 718.243 482.441 718.51 481.64 718.51 480.62 718.51 479.94 718.354 479.386 718.044 478.957 717.733 478.528 717.339 478.188 716.861 477.937 716.384 477.687 715.707 477.399 714.831 477.076 714.768 477.059 714.708 477.043 714.652 477.027 714.596 477.011 714.537 476.987 714.473 476.954 714.425 476.938 714.381 476.922 714.341 476.906 714.302 476.889 714.258 476.873 714.21 476.857 713.032 476.404 712.033 475.919 711.213 475.401 710.392 474.883 709.704 474.138 709.146 473.167 708.589 472.196 708.31 470.95 708.31 469.429 708.31 467.907 708.593 466.588 709.158 465.472 709.724 464.355 710.532 463.497 711.583 462.898 712.634 462.299 713.876 462 715.309 462Z" fill-rule="evenodd"/></g></svg>