<svg width="540" height="231" xmlns="http://www.w3.org/2000/svg" xmlns:xlink="http://www.w3.org/1999/xlink" overflow="hidden"><g transform="translate(-33 -266)"><path d="M41.4999 267C43.2895 267 44.8199 267.325 46.0914 267.974 47.3629 268.623 48.3322 269.574 48.9993 270.826 49.6664 272.079 50 273.591 50 275.363L50 292.637C50 294.394 49.6664 295.898 48.9993 297.151 48.3322 298.403 47.3629 299.358 46.0914 300.015 44.8199 300.672 43.2895 301 41.4999 301 39.7105 301 38.18 300.672 36.9086 300.015 35.6371 299.358 34.6678 298.403 34.0007 297.151 33.3335 295.898 33 294.394 33 292.637L33 275.363C33 273.591 33.3335 272.079 34.0007 270.826 34.6678 269.574 35.6371 268.623 36.9086 267.974 38.18 267.325 39.7105 267 41.4999 267ZM41.4999 271.239C40.6524 271.239 39.9263 271.395 39.322 271.708 38.7177 272.021 38.2585 272.476 37.9446 273.072 37.6306 273.667 37.4737 274.385 37.4737 275.225L37.4737 292.775C37.4737 293.615 37.6306 294.333 37.9446 294.929 38.2585 295.524 38.7177 295.979 39.322 296.292 39.9263 296.605 40.6524 296.761 41.4999 296.761 42.3476 296.761 43.0736 296.605 43.6779 296.292 44.2823 295.979 44.7414 295.524 45.0554 294.929 45.3693 294.333 45.5263 293.615 45.5263 292.775L45.5263 275.225C45.5263 274.385 45.3693 273.667 45.0554 273.072 44.7414 272.476 44.2823 272.021 43.6779 271.708 43.0736 271.395 42.3476 271.239 41.4999 271.239Z" fill="#0D0D0D" fill-rule="evenodd"/><path d="M130.536 267C132.31 267 133.813 267.302 135.046 267.905 136.279 268.508 137.215 269.394 137.851 270.563 138.488 271.731 138.807 273.148 138.807 274.813L138.807 276.554 134.212 276.554 134.212 274.996C134.212 273.774 133.898 272.842 133.269 272.201 132.64 271.559 131.729 271.239 130.536 271.239 129.263 271.239 128.291 271.544 127.622 272.155 126.953 272.766 126.619 273.637 126.619 274.767L126.619 276.852C126.619 277.692 126.828 278.398 127.247 278.971 127.667 279.544 128.191 280.006 128.819 280.357 129.448 280.708 130.31 281.113 131.407 281.571 131.52 281.617 131.624 281.663 131.721 281.709 131.818 281.755 131.923 281.801 132.036 281.846 132.116 281.877 132.201 281.911 132.289 281.949 132.378 281.988 132.463 282.022 132.543 282.053 133.946 282.648 135.074 283.217 135.929 283.759 136.783 284.302 137.509 285.084 138.105 286.108 138.702 287.131 139 288.468 139 290.117L139 293.164C139 294.845 138.674 296.269 138.021 297.437 137.368 298.606 136.413 299.492 135.155 300.095 133.898 300.698 132.366 301 130.56 301 128.723 301 127.167 300.698 125.893 300.095 124.62 299.492 123.652 298.606 122.991 297.437 122.33 296.269 122 294.845 122 293.164L122 291.515 126.595 291.515 126.595 293.004C126.595 294.211 126.937 295.139 127.622 295.788 128.307 296.437 129.287 296.761 130.56 296.761 131.802 296.761 132.753 296.441 133.414 295.799 134.075 295.158 134.405 294.226 134.405 293.004L134.405 290.094C134.405 289.285 134.196 288.597 133.777 288.032 133.357 287.467 132.834 287.005 132.205 286.646 131.576 286.287 130.706 285.871 129.593 285.398 129.561 285.382 129.529 285.371 129.496 285.363 129.464 285.356 129.432 285.344 129.4 285.329L129.061 285.191C127.578 284.55 126.365 283.924 125.422 283.313 124.479 282.702 123.677 281.854 123.016 280.77 122.355 279.685 122.024 278.31 122.024 276.646L122.024 274.721C122.024 273.072 122.351 271.67 123.004 270.517 123.656 269.364 124.62 268.489 125.893 267.894 127.167 267.298 128.714 267 130.536 267Z" fill="#0D0D0D" fill-rule="evenodd"/><path d="M239 267C240.688 267 242.132 267.336 243.331 268.008 244.531 268.68 245.442 269.654 246.065 270.929 246.688 272.205 247 273.736 247 275.523L247 276.943 242.456 276.943 242.456 275.523C242.456 274.622 242.321 273.85 242.053 273.209 241.785 272.567 241.39 272.079 240.87 271.743 240.349 271.407 239.726 271.239 239 271.239 238.274 271.239 237.655 271.407 237.142 271.743 236.629 272.079 236.235 272.567 235.959 273.209 235.682 273.85 235.544 274.629 235.544 275.546L235.544 292.477C235.544 293.378 235.682 294.15 235.959 294.791 236.235 295.433 236.629 295.921 237.142 296.257 237.655 296.593 238.274 296.761 239 296.761 239.726 296.761 240.349 296.593 240.87 296.257 241.39 295.921 241.785 295.433 242.053 294.791 242.321 294.15 242.456 293.378 242.456 292.477L242.456 291.057 247 291.057 247 292.477C247 294.264 246.688 295.795 246.065 297.071 245.442 298.346 244.531 299.32 243.331 299.992 242.132 300.664 240.688 301 239 301 237.327 301 235.892 300.664 234.692 299.992 233.493 299.32 232.578 298.346 231.947 297.071 231.316 295.795 231 294.264 231 292.477L231 275.546C231 273.743 231.316 272.205 231.947 270.929 232.578 269.654 233.489 268.68 234.68 268.008 235.872 267.336 237.312 267 239 267Z" fill="#0D0D0D" fill-rule="evenodd"/><path d="M285.536 267C287.31 267 288.813 267.302 290.046 267.905 291.279 268.508 292.215 269.394 292.851 270.563 293.488 271.731 293.807 273.148 293.807 274.813L293.807 276.554 289.212 276.554 289.212 274.996C289.212 273.774 288.898 272.842 288.269 272.201 287.64 271.559 286.729 271.239 285.536 271.239 284.263 271.239 283.291 271.544 282.622 272.155 281.953 272.766 281.619 273.637 281.619 274.767L281.619 276.852C281.619 277.692 281.828 278.398 282.247 278.971 282.667 279.544 283.191 280.006 283.819 280.357 284.448 280.708 285.31 281.113 286.407 281.571 286.52 281.617 286.624 281.663 286.721 281.709 286.818 281.755 286.923 281.801 287.036 281.846 287.116 281.877 287.201 281.911 287.289 281.949 287.378 281.988 287.463 282.022 287.543 282.053 288.946 282.648 290.074 283.217 290.929 283.759 291.783 284.302 292.509 285.084 293.105 286.108 293.702 287.131 294 288.468 294 290.117L294 293.164C294 294.845 293.674 296.269 293.021 297.437 292.368 298.606 291.413 299.492 290.155 300.095 288.898 300.698 287.366 301 285.56 301 283.723 301 282.167 300.698 280.893 300.095 279.62 299.492 278.652 298.606 277.991 297.437 277.33 296.269 277 294.845 277 293.164L277 291.515 281.594 291.515 281.594 293.004C281.594 294.211 281.937 295.139 282.622 295.788 283.307 296.437 284.287 296.761 285.56 296.761 286.802 296.761 287.753 296.441 288.414 295.799 289.075 295.158 289.405 294.226 289.405 293.004L289.405 290.094C289.405 289.285 289.196 288.597 288.777 288.032 288.357 287.467 287.834 287.005 287.205 286.646 286.576 286.287 285.706 285.871 284.593 285.398 284.561 285.382 284.529 285.371 284.496 285.363 284.464 285.356 284.432 285.344 284.4 285.329L284.061 285.191C282.578 284.55 281.365 283.924 280.422 283.313 279.479 282.702 278.677 281.854 278.016 280.77 277.355 279.685 277.024 278.31 277.024 276.646L277.024 274.721C277.024 273.072 277.351 271.67 278.004 270.517 278.656 269.364 279.62 268.489 280.893 267.894 282.167 267.298 283.715 267 285.536 267Z" fill="#0D0D0D" fill-rule="evenodd"/><path d="M490.5 267C492.289 267 493.82 267.325 495.091 267.974 496.363 268.623 497.332 269.574 497.999 270.826 498.666 272.079 499 273.591 499 275.363L499 292.637C499 294.394 498.666 295.898 497.999 297.151 497.332 298.403 496.363 299.358 495.091 300.015 493.82 300.672 492.289 301 490.5 301 488.711 301 487.18 300.672 485.909 300.015 484.637 299.358 483.668 298.403 483.001 297.151 482.334 295.898 482 294.394 482 292.637L482 275.363C482 273.591 482.334 272.079 483.001 270.826 483.668 269.574 484.637 268.623 485.909 267.974 487.18 267.325 488.711 267 490.5 267ZM490.5 271.239C489.652 271.239 488.926 271.395 488.322 271.708 487.718 272.021 487.258 272.476 486.945 273.072 486.631 273.667 486.474 274.385 486.474 275.225L486.474 292.775C486.474 293.615 486.631 294.333 486.945 294.929 487.258 295.524 487.718 295.979 488.322 296.292 488.926 296.605 489.652 296.761 490.5 296.761 491.348 296.761 492.074 296.605 492.678 296.292 493.282 295.979 493.741 295.524 494.055 294.929 494.369 294.333 494.526 293.615 494.526 292.775L494.526 275.225C494.526 274.385 494.369 273.667 494.055 273.072 493.741 272.476 493.282 272.021 492.678 271.708 492.074 271.395 491.348 271.239 490.5 271.239Z" fill="#0D0D0D" fill-rule="evenodd"/><path d="M83 267 85.1359 267 87.56 267 91.16 267C93.016 267 94.6081 267.3 95.936 267.9 97.264 268.499 98.2761 269.38 98.9721 270.54 99.6681 271.701 100.016 273.091 100.016 274.711L100.016 278.684C100.016 280.351 99.6681 281.78 98.9721 282.972 98.2761 284.164 97.264 285.071 95.936 285.694L95.8442 285.724 101 301 96.008 301 91.4596 286.602 91.16 286.629 87.56 286.629 87.56 301 83 301 83 267ZM87.56 271.206 87.56 282.423 91.568 282.423C92.3841 282.423 93.084 282.275 93.668 281.979 94.252 281.683 94.696 281.254 95 280.693 95.3041 280.133 95.4561 279.455 95.4561 278.661L95.4561 275.202C95.4561 274.361 95.3041 273.64 95 273.041 94.696 272.441 94.252 271.985 93.668 271.673 93.084 271.362 92.3841 271.206 91.568 271.206L87.56 271.206Z" fill="#0D0D0D" fill-rule="evenodd"/><path d="M169 267 171.136 267 173.56 267 177.16 267C179.016 267 180.608 267.3 181.936 267.9 183.264 268.499 184.276 269.38 184.972 270.54 185.668 271.701 186.016 273.091 186.016 274.711L186.016 278.684C186.016 280.351 185.668 281.78 184.972 282.972 184.276 284.164 183.264 285.071 181.936 285.694L181.844 285.724 187 301 182.008 301 177.46 286.602 177.16 286.629 173.56 286.629 173.56 301 169 301 169 267ZM173.56 271.206 173.56 282.423 177.568 282.423C178.384 282.423 179.084 282.275 179.668 281.979 180.252 281.683 180.696 281.254 181 280.693 181.304 280.133 181.456 279.455 181.456 278.661L181.456 275.202C181.456 274.361 181.304 273.64 181 273.041 180.696 272.441 180.252 271.985 179.668 271.673 179.084 271.362 178.384 271.206 177.568 271.206L173.56 271.206Z" fill="#0D0D0D" fill-rule="evenodd"/><path d="M339 267 341.136 267 343.56 267 347.16 267C349.016 267 350.608 267.3 351.936 267.9 353.264 268.499 354.276 269.38 354.972 270.54 355.668 271.701 356.016 273.091 356.016 274.711L356.016 278.684C356.016 280.351 355.668 281.78 354.972 282.972 354.276 284.164 353.264 285.071 351.936 285.694L351.844 285.724 357 301 352.008 301 347.46 286.602 347.16 286.629 343.56 286.629 343.56 301 339 301 339 267ZM343.56 271.206 343.56 282.423 347.568 282.423C348.384 282.423 349.084 282.275 349.668 281.979 350.252 281.683 350.696 281.254 351 280.693 351.304 280.133 351.456 279.455 351.456 278.661L351.456 275.202C351.456 274.361 351.304 273.64 351 273.041 350.696 272.441 350.252 271.985 349.668 271.673 349.084 271.362 348.384 271.206 347.568 271.206L343.56 271.206Z" fill="#0D0D0D" fill-rule="evenodd"/><path d="M508 267 510.136 267 512.56 267 516.16 267C518.016 267 519.608 267.3 520.936 267.9 522.264 268.499 523.276 269.38 523.972 270.54 524.668 271.701 525.016 273.091 525.016 274.711L525.016 278.684C525.016 280.351 524.668 281.78 523.972 282.972 523.276 284.164 522.264 285.071 520.936 285.694L520.844 285.724 526 301 521.008 301 516.46 286.602 516.16 286.629 512.56 286.629 512.56 301 508 301 508 267ZM512.56 271.206 512.56 282.423 516.568 282.423C517.384 282.423 518.084 282.275 518.668 281.979 519.252 281.683 519.696 281.254 520 280.693 520.304 280.133 520.456 279.455 520.456 278.661L520.456 275.202C520.456 274.361 520.304 273.64 520 273.041 519.696 272.441 519.252 271.985 518.668 271.673 518.084 271.362 517.384 271.206 516.568 271.206L512.56 271.206Z" fill="#0D0D0D" fill-rule="evenodd"/><path d="M59 267 63.592 267 63.592 293.27C63.592 294.381 63.8821 295.233 64.4622 295.827 65.0423 296.421 65.8801 296.718 66.9757 296.718 68.0876 296.718 68.9375 296.421 69.5256 295.827 70.1138 295.233 70.4078 294.381 70.4078 293.27L70.4078 267 75 267 75 293.084C75 294.782 74.6898 296.221 74.0695 297.401 73.4491 298.581 72.5428 299.476 71.3504 300.086 70.1581 300.695 68.6999 301 66.9757 301 65.2679 301 63.8177 300.695 62.6254 300.086 61.433 299.476 60.5306 298.581 59.9184 297.401 59.3061 296.221 59 294.782 59 293.084L59 267Z" fill="#0D0D0D" fill-rule="evenodd"/><path d="M147 267 149.38 267 151.567 267 162 267 162 271.209 151.567 271.209 151.567 282.012 160.798 282.012 160.798 286.221 151.567 286.221 151.567 296.791 162 296.791 162 301 151.567 301 149.38 301 147 301 147 267Z" fill="#0D0D0D" fill-rule="evenodd"/><path d="M193 267 197.811 267 202.5 293.096 207.189 267 212 267 204.905 301 200.095 301 193 267Z" fill="#0D0D0D" fill-rule="evenodd"/><path d="M218 267 223 267 223 301 218 301 218 267Z" fill="#0D0D0D" fill-rule="evenodd"/><path d="M255 267 257.38 267 259.567 267 270 267 270 271.209 259.567 271.209 259.567 282.012 268.798 282.012 268.798 286.221 259.567 286.221 259.567 296.791 270 296.791 270 301 259.567 301 257.38 301 255 301 255 267Z" fill="#0D0D0D" fill-rule="evenodd"/><path d="M320.943 267 325.057 267 333 301 328.177 301 326.758 293.587 319.242 293.587 317.823 301 313 301 320.943 267ZM323 273.968 320.044 289.402 325.956 289.402 323 273.968Z" fill="#0D0D0D" fill-rule="evenodd"/><path d="M365 267 367.38 267 369.567 267 380 267 380 271.209 369.567 271.209 369.567 282.012 378.798 282.012 378.798 286.221 369.567 286.221 369.567 296.791 380 296.791 380 301 369.567 301 367.38 301 365 301 365 267Z" fill="#0D0D0D" fill-rule="evenodd"/><path d="M399 267 416 267 416 271.209 409.787 271.209 409.787 301 405.212 301 405.212 271.209 399 271.209 399 267Z" fill="#0D0D0D" fill-rule="evenodd"/><path d="M428.943 267 433.057 267 441 301 436.177 301 434.758 293.587 427.242 293.587 425.823 301 421 301 428.943 267ZM431 273.968 428.044 289.402 433.956 289.402 431 273.968Z" fill="#0D0D0D" fill-rule="evenodd"/><path d="M447 267 452 267 452 301 447 301 447 267Z" fill="#0D0D0D" fill-rule="evenodd"/><path d="M460 267 464.719 267 464.719 296.791 475 296.791 475 301 464.719 301 462.533 301 460 301 460 267Z" fill="#0D0D0D" fill-rule="evenodd"/><path d="M534 267 536.38 267 538.567 267 549 267 549 271.209 538.567 271.209 538.567 282.012 547.798 282.012 547.798 286.221 538.567 286.221 538.567 296.791 549 296.791 549 301 538.567 301 536.38 301 534 301 534 267Z" fill="#0D0D0D" fill-rule="evenodd"/><path d="M556 267 559.007 267 560.722 267 565.444 267C567.052 267 568.419 267.277 569.545 267.83 570.672 268.383 571.529 269.19 572.118 270.25 572.706 271.31 573 272.596 573 274.109L573 293.891C573 295.388 572.702 296.67 572.105 297.738 571.509 298.806 570.647 299.617 569.52 300.17 568.394 300.723 567.027 301 565.42 301L560.722 301 559.007 301 556 301 556 267ZM560.722 271.209 560.722 296.791 565.594 296.791C566.455 296.791 567.118 296.549 567.582 296.066 568.046 295.583 568.278 294.897 568.278 294.008L568.278 273.992C568.278 273.103 568.046 272.417 567.582 271.934 567.118 271.451 566.455 271.209 565.594 271.209L560.722 271.209Z" fill="#0D0D0D" fill-rule="evenodd"/><path d="M347.5 353C349.289 353 350.82 353.325 352.091 353.974 353.363 354.623 354.332 355.574 354.999 356.826 355.666 358.079 356 359.591 356 361.363L356 378.637C356 380.394 355.666 381.898 354.999 383.151 354.332 384.403 353.363 385.358 352.091 386.015 350.82 386.672 349.289 387 347.5 387 345.711 387 344.18 386.672 342.909 386.015 341.637 385.358 340.668 384.403 340.001 383.151 339.333 381.898 339 380.394 339 378.637L339 361.363C339 359.591 339.333 358.079 340.001 356.826 340.668 355.574 341.637 354.623 342.909 353.974 344.18 353.325 345.711 353 347.5 353ZM347.5 357.239C346.652 357.239 345.926 357.395 345.322 357.708 344.718 358.021 344.258 358.476 343.945 359.072 343.631 359.667 343.474 360.385 343.474 361.225L343.474 378.775C343.474 379.615 343.631 380.333 343.945 380.929 344.258 381.524 344.718 381.979 345.322 382.292 345.926 382.605 346.652 382.761 347.5 382.761 348.348 382.761 349.074 382.605 349.678 382.292 350.282 381.979 350.741 381.524 351.055 380.929 351.369 380.333 351.526 379.615 351.526 378.775L351.526 361.225C351.526 360.385 351.369 359.667 351.055 359.072 350.741 358.476 350.282 358.021 349.678 357.708 349.074 357.395 348.348 357.239 347.5 357.239Z" fill="#0D0D0D" fill-rule="evenodd"/><path d="M249 353 251.4 353 253.56 353 264 353 264 357.209 253.56 357.209 253.56 368.316 262.8 368.316 262.8 372.525 253.56 372.525 253.56 387 249 387 249 353Z" fill="#0D0D0D" fill-rule="evenodd"/><path d="M271 353 276 353 276 387 271 387 271 353Z" fill="#0D0D0D" fill-rule="evenodd"/><path d="M282 353 299 353 299 357.209 292.787 357.209 292.787 387 288.212 387 288.212 357.209 282 357.209 282 353Z" fill="#0D0D0D" fill-rule="evenodd"/><path d="M316 353 333 353 333 357.209 326.787 357.209 326.787 387 322.212 387 322.212 357.209 316 357.209 316 353Z" fill="#0D0D0D" fill-rule="evenodd"/><path d="M178.5 444C181.331 444 183.756 444.467 185.776 445.402 187.796 446.336 189.339 447.703 190.403 449.501 191.468 451.3 192 453.461 192 455.984L192 484.016C192 486.539 191.468 488.694 190.403 490.481 189.339 492.268 187.796 493.635 185.776 494.581 183.756 495.527 181.331 496 178.5 496 175.669 496 173.244 495.527 171.224 494.581 169.204 493.635 167.661 492.268 166.597 490.481 165.532 488.694 165 486.539 165 484.016L165 455.984C165 453.461 165.532 451.3 166.597 449.501 167.661 447.703 169.204 446.336 171.224 445.402 173.244 444.467 175.669 444 178.5 444ZM178.5 452.655C177.581 452.655 176.794 452.83 176.141 453.181 175.488 453.531 174.992 454.033 174.653 454.687 174.314 455.341 174.145 456.124 174.145 457.035L174.145 482.895C174.145 483.829 174.314 484.624 174.653 485.278 174.992 485.932 175.488 486.434 176.141 486.784 176.794 487.135 177.581 487.31 178.5 487.31 179.419 487.31 180.212 487.135 180.877 486.784 181.542 486.434 182.044 485.932 182.383 485.278 182.722 484.624 182.891 483.829 182.891 482.895L182.891 457.035C182.891 456.124 182.722 455.341 182.383 454.687 182.044 454.033 181.542 453.531 180.877 453.181 180.212 452.83 179.419 452.655 178.5 452.655Z" fill="#0D0D0D" fill-rule="evenodd"/><path d="M435.483 444C438.034 444 440.23 444.491 442.069 445.472 443.908 446.453 445.31 447.884 446.276 449.764 447.241 451.645 447.724 453.905 447.724 456.544L447.724 459.418 439.207 459.523 439.207 456.615C439.207 455.306 438.879 454.284 438.224 453.548 437.569 452.813 436.655 452.445 435.483 452.445 434.241 452.445 433.282 452.778 432.603 453.443 431.925 454.109 431.586 455.026 431.586 456.194L431.586 459.593C431.586 460.551 431.833 461.38 432.328 462.081 432.822 462.782 433.443 463.372 434.19 463.85 434.937 464.329 435.977 464.907 437.31 465.585 437.563 465.702 437.822 465.83 438.086 465.97 438.351 466.111 438.621 466.251 438.897 466.391 438.942 466.414 438.983 466.438 439.017 466.461 439.052 466.484 439.092 466.508 439.138 466.531 441.046 467.559 442.586 468.511 443.759 469.387 444.931 470.263 445.931 471.495 446.759 473.084 447.586 474.672 448 476.704 448 479.181L448 483.42C448 486.06 447.511 488.32 446.534 490.201 445.557 492.081 444.138 493.518 442.276 494.511 440.414 495.504 438.184 496 435.586 496 432.965 496 430.713 495.504 428.828 494.511 426.943 493.518 425.5 492.081 424.5 490.201 423.5 488.32 423 486.06 423 483.42L423 480.687 431.517 480.617 431.517 483.35C431.517 484.635 431.874 485.646 432.586 486.381 433.299 487.117 434.287 487.485 435.552 487.485 436.793 487.485 437.753 487.123 438.431 486.399 439.109 485.675 439.448 484.682 439.448 483.42L439.448 478.97C439.448 478.036 439.19 477.224 438.672 476.535 438.155 475.846 437.488 475.25 436.672 474.748 435.856 474.246 434.747 473.644 433.345 472.943 433.253 472.897 433.167 472.85 433.086 472.803 433.006 472.757 432.92 472.71 432.828 472.663L432.379 472.453C430.517 471.495 428.931 470.496 427.621 469.457 426.31 468.417 425.218 467.045 424.345 465.34 423.471 463.634 423.034 461.532 423.034 459.032L423.034 456.404C423.034 453.811 423.523 451.586 424.5 449.729 425.477 447.872 426.896 446.453 428.759 445.472 430.621 444.491 432.862 444 435.483 444Z" fill="#0D0D0D" fill-rule="evenodd"/><path d="M235 444 239.026 444 243.813 444 247.984 444C250.838 444 253.274 444.45 255.293 445.349 257.312 446.249 258.853 447.569 259.917 449.31 260.981 451.051 261.513 453.137 261.513 455.567L261.513 461.526C261.513 464.026 260.981 466.17 259.917 467.958 258.853 469.745 257.306 471.107 255.275 472.041L255.201 472.064 263 495 253.352 495 246.83 473.443 243.813 473.443 243.813 495 235 495 235 444ZM243.813 452.342 243.813 465.101 248.528 465.101C249.302 465.101 249.973 464.967 250.541 464.698 251.11 464.429 251.539 464.044 251.829 463.541 252.119 463.039 252.264 462.437 252.264 461.736L252.264 456.058C252.264 455.287 252.119 454.621 251.829 454.06 251.539 453.499 251.11 453.073 250.541 452.78 249.973 452.488 249.302 452.342 248.528 452.342L243.813 452.342Z" fill="#0D0D0D" fill-rule="evenodd"/><path d="M132 444 141.238 444 146.107 465.116 150.762 444 160 444 150.619 475.463 150.619 495 141.739 495 141.739 475.463 132 444Z" fill="#0D0D0D" fill-rule="evenodd"/><path d="M201 444 209.586 444 209.586 483.257C209.586 484.507 209.885 485.481 210.483 486.177 211.08 486.873 211.908 487.221 212.966 487.221 214.046 487.221 214.891 486.873 215.5 486.177 216.109 485.481 216.414 484.507 216.414 483.257L216.414 444 225 444 225 483.009C225 485.723 224.523 488.053 223.569 490 222.615 491.947 221.236 493.434 219.431 494.46 217.626 495.487 215.471 496 212.966 496 210.483 496 208.339 495.487 206.535 494.46 204.73 493.434 203.356 491.947 202.414 490 201.471 488.053 201 485.723 201 483.009L201 444Z" fill="#0D0D0D" fill-rule="evenodd"/><path d="M290 444 296.889 444 308.016 475.359 308.016 444 316 444 316 495 309.041 495 298.019 465.387 298.019 495 290 495 290 444Z" fill="#0D0D0D" fill-rule="evenodd"/><path d="M326 444 329.916 444 334.83 444 349 444 349 452.488 334.83 452.488 334.83 465.431 347.22 465.431 347.22 473.885 334.83 473.885 334.83 486.512 349 486.512 349 495 334.83 495 329.916 495 326 495 326 444Z" fill="#0D0D0D" fill-rule="evenodd"/><path d="M357 444 360.916 444 365.83 444 380 444 380 452.488 365.83 452.488 365.83 465.431 378.22 465.431 378.22 473.885 365.83 473.885 365.83 486.512 380 486.512 380 495 365.83 495 360.916 495 357 495 357 444Z" fill="#0D0D0D" fill-rule="evenodd"/><path d="M388 444 393.843 444 396.782 444 401.315 444C403.77 444 405.871 444.45 407.618 445.35 409.365 446.251 410.698 447.56 411.619 449.279 412.54 450.998 413 453.05 413 455.435L413 483.565C413 485.951 412.54 488.002 411.619 489.721 410.698 491.44 409.359 492.749 407.6 493.65 405.841 494.55 403.734 495 401.279 495L396.782 495 393.843 495 388 495 388 444ZM396.782 452.348 396.782 486.652 400.429 486.652C401.61 486.652 402.518 486.295 403.156 485.582 403.793 484.869 404.112 483.869 404.112 482.583L404.112 456.417C404.112 455.131 403.793 454.131 403.156 453.418 402.518 452.705 401.61 452.348 400.429 452.348L396.782 452.348Z" fill="#0D0D0D" fill-rule="evenodd"/></g></svg>