<svg width="421" height="284" xmlns="http://www.w3.org/2000/svg" xmlns:xlink="http://www.w3.org/1999/xlink" overflow="hidden"><g transform="translate(-95 -310)"><path d="M188 311C189.684 311 191.125 311.334 192.321 312.002 193.518 312.671 194.43 313.649 195.058 314.939 195.686 316.228 196 317.785 196 319.609L196 337.391C196 339.2 195.686 340.748 195.058 342.038 194.43 343.327 193.518 344.31 192.321 344.986 191.125 345.662 189.684 346 188 346 186.316 346 184.875 345.662 183.679 344.986 182.482 344.31 181.57 343.327 180.942 342.038 180.314 340.748 180 339.2 180 337.391L180 319.609C180 317.785 180.314 316.228 180.942 314.939 181.57 313.649 182.482 312.671 183.679 312.002 184.875 311.334 186.316 311 188 311ZM188 315.363C187.202 315.363 186.519 315.524 185.95 315.847 185.381 316.169 184.949 316.637 184.654 317.25 184.358 317.863 184.211 318.602 184.211 319.467L184.211 337.533C184.211 338.398 184.358 339.137 184.654 339.75 184.949 340.363 185.381 340.831 185.95 341.153 186.519 341.476 187.202 341.637 188 341.637 188.798 341.637 189.481 341.476 190.05 341.153 190.619 340.831 191.051 340.363 191.346 339.75 191.642 339.137 191.789 338.398 191.789 337.533L191.789 319.467C191.789 318.602 191.642 317.863 191.346 317.25 191.051 316.637 190.619 316.169 190.05 315.847 189.481 315.524 188.798 315.363 188 315.363Z" fill="#0D0D0D" fill-rule="evenodd"/><path d="M276.536 311C278.31 311 279.813 311.311 281.046 311.932 282.279 312.553 283.215 313.465 283.851 314.668 284.488 315.87 284.807 317.329 284.807 319.042L284.807 320.835 280.212 320.835 280.212 319.231C280.212 317.973 279.898 317.014 279.269 316.354 278.64 315.693 277.729 315.363 276.536 315.363 275.263 315.363 274.291 315.678 273.622 316.307 272.953 316.936 272.619 317.832 272.619 318.995L272.619 321.142C272.619 322.006 272.828 322.733 273.247 323.323 273.667 323.913 274.191 324.388 274.819 324.75 275.448 325.112 276.31 325.528 277.407 326 277.52 326.047 277.624 326.094 277.721 326.142 277.818 326.189 277.923 326.236 278.036 326.283 278.116 326.314 278.201 326.35 278.289 326.389 278.378 326.428 278.463 326.464 278.543 326.495 279.946 327.109 281.074 327.694 281.929 328.252 282.783 328.81 283.509 329.616 284.105 330.67 284.702 331.723 285 333.099 285 334.797L285 337.934C285 339.664 284.674 341.13 284.021 342.333 283.368 343.535 282.413 344.447 281.155 345.068 279.898 345.689 278.366 346 276.56 346 274.723 346 273.167 345.689 271.893 345.068 270.62 344.447 269.652 343.535 268.991 342.333 268.331 341.13 268 339.664 268 337.934L268 336.236 272.595 336.236 272.595 337.769C272.595 339.011 272.937 339.966 273.622 340.634 274.307 341.303 275.287 341.637 276.56 341.637 277.802 341.637 278.753 341.307 279.414 340.646 280.075 339.986 280.405 339.027 280.405 337.769L280.405 334.774C280.405 333.94 280.196 333.233 279.777 332.651 279.357 332.069 278.834 331.594 278.205 331.224 277.576 330.855 276.706 330.426 275.593 329.939 275.561 329.923 275.529 329.911 275.496 329.903 275.464 329.895 275.432 329.884 275.4 329.868L275.061 329.726C273.578 329.066 272.365 328.421 271.422 327.792 270.479 327.164 269.677 326.291 269.016 325.175 268.355 324.058 268.024 322.643 268.024 320.929L268.024 318.948C268.024 317.25 268.351 315.807 269.004 314.62 269.656 313.433 270.62 312.533 271.893 311.92 273.167 311.307 274.714 311 276.536 311Z" fill="#0D0D0D" fill-rule="evenodd"/><path d="M385.5 311C387.083 311 388.436 311.346 389.561 312.038 390.685 312.73 391.539 313.732 392.124 315.045 392.708 316.358 393 317.934 393 319.774L393 321.236 388.74 321.236 388.74 319.774C388.74 318.846 388.614 318.052 388.362 317.392 388.111 316.731 387.741 316.228 387.253 315.882 386.765 315.536 386.18 315.363 385.5 315.363 384.82 315.363 384.239 315.536 383.758 315.882 383.277 316.228 382.908 316.731 382.649 317.392 382.39 318.052 382.26 318.854 382.26 319.797L382.26 337.226C382.26 338.154 382.39 338.948 382.649 339.608 382.908 340.269 383.277 340.772 383.758 341.118 384.239 341.464 384.82 341.637 385.5 341.637 386.18 341.637 386.765 341.464 387.253 341.118 387.741 340.772 388.111 340.269 388.362 339.608 388.614 338.948 388.74 338.154 388.74 337.226L388.74 335.764 393 335.764 393 337.226C393 339.066 392.708 340.642 392.124 341.955 391.539 343.268 390.685 344.27 389.561 344.962 388.436 345.654 387.083 346 385.5 346 383.932 346 382.586 345.654 381.462 344.962 380.337 344.27 379.479 343.268 378.888 341.955 378.296 340.642 378 339.066 378 337.226L378 319.797C378 317.942 378.296 316.358 378.888 315.045 379.479 313.732 380.334 312.73 381.45 312.038 382.567 311.346 383.917 311 385.5 311Z" fill="#0D0D0D" fill-rule="evenodd"/><path d="M431.536 311C433.31 311 434.813 311.311 436.046 311.932 437.279 312.553 438.215 313.465 438.851 314.668 439.488 315.87 439.807 317.329 439.807 319.042L439.807 320.835 435.212 320.835 435.212 319.231C435.212 317.973 434.898 317.014 434.269 316.354 433.64 315.693 432.729 315.363 431.536 315.363 430.263 315.363 429.291 315.678 428.622 316.307 427.953 316.936 427.619 317.832 427.619 318.995L427.619 321.142C427.619 322.006 427.828 322.733 428.247 323.323 428.667 323.913 429.191 324.388 429.819 324.75 430.448 325.112 431.31 325.528 432.407 326 432.52 326.047 432.624 326.094 432.721 326.142 432.818 326.189 432.923 326.236 433.036 326.283 433.116 326.314 433.201 326.35 433.289 326.389 433.378 326.428 433.463 326.464 433.543 326.495 434.946 327.109 436.074 327.694 436.929 328.252 437.783 328.81 438.509 329.616 439.105 330.67 439.702 331.723 440 333.099 440 334.797L440 337.934C440 339.664 439.674 341.13 439.021 342.333 438.368 343.535 437.413 344.447 436.155 345.068 434.898 345.689 433.366 346 431.56 346 429.723 346 428.167 345.689 426.893 345.068 425.62 344.447 424.652 343.535 423.991 342.333 423.33 341.13 423 339.664 423 337.934L423 336.236 427.594 336.236 427.594 337.769C427.594 339.011 427.937 339.966 428.622 340.634 429.307 341.303 430.287 341.637 431.56 341.637 432.802 341.637 433.753 341.307 434.414 340.646 435.075 339.986 435.405 339.027 435.405 337.769L435.405 334.774C435.405 333.94 435.196 333.233 434.777 332.651 434.357 332.069 433.834 331.594 433.205 331.224 432.576 330.855 431.706 330.426 430.593 329.939 430.561 329.923 430.529 329.911 430.496 329.903 430.464 329.895 430.432 329.884 430.4 329.868L430.061 329.726C428.578 329.066 427.365 328.421 426.422 327.792 425.479 327.164 424.677 326.291 424.016 325.175 423.355 324.058 423.024 322.643 423.024 320.929L423.024 318.948C423.024 317.25 423.351 315.807 424.004 314.62 424.656 313.433 425.62 312.533 426.893 311.92 428.167 311.307 429.715 311 431.536 311Z" fill="#0D0D0D" fill-rule="evenodd"/><path d="M230 311 232.017 311 234.307 311 237.707 311C239.46 311 240.963 311.3 242.217 311.9 243.472 312.499 244.427 313.38 245.085 314.54 245.742 315.701 246.071 317.091 246.071 318.711L246.071 322.684C246.071 324.351 245.742 325.78 245.085 326.972 244.427 328.164 243.472 329.071 242.217 329.694L242.131 329.724 247 345 242.285 345 237.99 330.602 237.707 330.629 234.307 330.629 234.307 345 230 345 230 311ZM234.307 315.206 234.307 326.423 238.092 326.423C238.863 326.423 239.524 326.275 240.075 325.979 240.627 325.683 241.046 325.254 241.333 324.693 241.62 324.133 241.764 323.455 241.764 322.661L241.764 319.202C241.764 318.361 241.62 317.64 241.333 317.041 241.046 316.441 240.627 315.985 240.075 315.673 239.524 315.362 238.863 315.206 238.092 315.206L234.307 315.206Z" fill="#0D0D0D" fill-rule="evenodd"/><path d="M316 311 318.017 311 320.307 311 323.707 311C325.46 311 326.963 311.3 328.217 311.9 329.471 312.499 330.427 313.38 331.085 314.54 331.742 315.701 332.071 317.091 332.071 318.711L332.071 322.684C332.071 324.351 331.742 325.78 331.085 326.972 330.427 328.164 329.471 329.071 328.217 329.694L328.131 329.724 333 345 328.285 345 323.99 330.602 323.707 330.629 320.307 330.629 320.307 345 316 345 316 311ZM320.307 315.206 320.307 326.423 324.092 326.423C324.863 326.423 325.524 326.275 326.075 325.979 326.627 325.683 327.046 325.254 327.333 324.693 327.62 324.133 327.764 323.455 327.764 322.661L327.764 319.202C327.764 318.361 327.62 317.64 327.333 317.041 327.046 316.441 326.627 315.985 326.075 315.673 325.524 315.362 324.863 315.206 324.092 315.206L320.307 315.206Z" fill="#0D0D0D" fill-rule="evenodd"/><path d="M205 311 209.592 311 209.592 338.042C209.592 339.186 209.882 340.063 210.462 340.675 211.042 341.286 211.88 341.592 212.976 341.592 214.088 341.592 214.938 341.286 215.526 340.675 216.114 340.063 216.408 339.186 216.408 338.042L216.408 311 221 311 221 337.852C221 339.599 220.69 341.08 220.069 342.295 219.449 343.51 218.543 344.431 217.35 345.059 216.158 345.686 214.7 346 212.976 346 211.268 346 209.818 345.686 208.625 345.059 207.433 344.431 206.531 343.51 205.918 342.295 205.306 341.08 205 339.599 205 337.852L205 311Z" fill="#0D0D0D" fill-rule="evenodd"/><path d="M294 311 296.221 311 298.263 311 308 311 308 315.209 298.263 315.209 298.263 326.012 306.878 326.012 306.878 330.221 298.263 330.221 298.263 340.791 308 340.791 308 345 298.263 345 296.221 345 294 345 294 311Z" fill="#0D0D0D" fill-rule="evenodd"/><path d="M339 311 343.811 311 348.5 337.096 353.189 311 358 311 350.905 345 346.095 345 339 311Z" fill="#0D0D0D" fill-rule="evenodd"/><path d="M364 311 369 311 369 345 364 345 364 311Z" fill="#0D0D0D" fill-rule="evenodd"/><path d="M402 311 404.221 311 406.263 311 416 311 416 315.209 406.263 315.209 406.263 326.012 414.878 326.012 414.878 330.221 406.263 330.221 406.263 340.791 416 340.791 416 345 406.263 345 404.221 345 402 345 402 311Z" fill="#0D0D0D" fill-rule="evenodd"/><path d="M355.5 371C357.289 371 358.82 371.334 360.091 372.002 361.363 372.671 362.332 373.649 362.999 374.939 363.666 376.228 364 377.785 364 379.609L364 397.391C364 399.2 363.666 400.748 362.999 402.038 362.332 403.327 361.363 404.31 360.091 404.986 358.82 405.662 357.289 406 355.5 406 353.711 406 352.18 405.662 350.909 404.986 349.637 404.31 348.668 403.327 348.001 402.038 347.334 400.748 347 399.2 347 397.391L347 379.609C347 377.785 347.334 376.228 348.001 374.939 348.668 373.649 349.637 372.671 350.909 372.002 352.18 371.334 353.711 371 355.5 371ZM355.5 375.363C354.652 375.363 353.926 375.524 353.322 375.847 352.718 376.169 352.258 376.637 351.945 377.25 351.631 377.863 351.474 378.602 351.474 379.467L351.474 397.533C351.474 398.398 351.631 399.137 351.945 399.75 352.258 400.363 352.718 400.831 353.322 401.153 353.926 401.476 354.652 401.637 355.5 401.637 356.348 401.637 357.074 401.476 357.678 401.153 358.282 400.831 358.741 400.363 359.055 399.75 359.369 399.137 359.526 398.398 359.526 397.533L359.526 379.467C359.526 378.602 359.369 377.863 359.055 377.25 358.741 376.637 358.282 376.169 357.678 375.847 357.074 375.524 356.348 375.363 355.5 375.363Z" fill="#0D0D0D" fill-rule="evenodd"/><path d="M204 371 206.017 371 208.307 371 211.707 371C213.46 371 214.963 371.3 216.217 371.9 217.472 372.499 218.427 373.38 219.085 374.54 219.742 375.701 220.071 377.091 220.071 378.711L220.071 382.684C220.071 384.351 219.742 385.78 219.085 386.972 218.427 388.164 217.472 389.071 216.217 389.694L216.131 389.724 221 405 216.285 405 211.99 390.602 211.707 390.629 208.307 390.629 208.307 405 204 405 204 371ZM208.307 375.206 208.307 386.423 212.092 386.423C212.863 386.423 213.524 386.275 214.075 385.979 214.627 385.683 215.046 385.254 215.333 384.693 215.62 384.133 215.764 383.455 215.764 382.661L215.764 379.202C215.764 378.361 215.62 377.64 215.333 377.041 215.046 376.441 214.627 375.985 214.075 375.673 213.524 375.362 212.863 375.206 212.092 375.206L208.307 375.206Z" fill="#0D0D0D" fill-rule="evenodd"/><path d="M373 371 375.017 371 377.307 371 380.707 371C382.46 371 383.963 371.3 385.217 371.9 386.472 372.499 387.427 373.38 388.085 374.54 388.742 375.701 389.071 377.091 389.071 378.711L389.071 382.684C389.071 384.351 388.742 385.78 388.085 386.972 387.427 388.164 386.472 389.071 385.217 389.694L385.131 389.724 390 405 385.285 405 380.99 390.602 380.707 390.629 377.307 390.629 377.307 405 373 405 373 371ZM377.307 375.206 377.307 386.423 381.092 386.423C381.863 386.423 382.524 386.275 383.075 385.979 383.627 385.683 384.046 385.254 384.333 384.693 384.62 384.133 384.764 383.455 384.764 382.661L384.764 379.202C384.764 378.361 384.62 377.64 384.333 377.041 384.046 376.441 383.627 375.985 383.075 375.673 382.524 375.362 381.863 375.206 381.092 375.206L377.307 375.206Z" fill="#0D0D0D" fill-rule="evenodd"/><path d="M184.943 371 189.057 371 197 405 192.177 405 190.758 397.587 183.242 397.587 181.823 405 177 405 184.943 371ZM187 377.968 184.044 393.402 189.956 393.402 187 377.968Z" fill="#0D0D0D" fill-rule="evenodd"/><path d="M230 371 232.38 371 234.567 371 245 371 245 375.209 234.567 375.209 234.567 386.012 243.798 386.012 243.798 390.221 234.567 390.221 234.567 400.791 245 400.791 245 405 234.567 405 232.38 405 230 405 230 371Z" fill="#0D0D0D" fill-rule="evenodd"/><path d="M264 371 280 371 280 375.209 274.153 375.209 274.153 405 269.847 405 269.847 375.209 264 375.209 264 371Z" fill="#0D0D0D" fill-rule="evenodd"/><path d="M292.943 371 297.057 371 305 405 300.177 405 298.758 397.587 291.242 397.587 289.823 405 285 405 292.943 371ZM295 377.968 292.044 393.402 297.956 393.402 295 377.968Z" fill="#0D0D0D" fill-rule="evenodd"/><path d="M312 371 316 371 316 405 312 405 312 371Z" fill="#0D0D0D" fill-rule="evenodd"/><path d="M325 371 329.404 371 329.404 400.791 339 400.791 339 405 329.404 405 327.364 405 325 405 325 371Z" fill="#0D0D0D" fill-rule="evenodd"/><path d="M399 371 401.38 371 403.567 371 414 371 414 375.209 403.567 375.209 403.567 386.012 412.798 386.012 412.798 390.221 403.567 390.221 403.567 400.791 414 400.791 414 405 403.567 405 401.38 405 399 405 399 371Z" fill="#0D0D0D" fill-rule="evenodd"/><path d="M421 371 423.83 371 425.444 371 429.889 371C431.402 371 432.688 371.277 433.749 371.83 434.809 372.383 435.616 373.19 436.17 374.25 436.723 375.31 437 376.596 437 378.109L437 397.891C437 399.388 436.719 400.67 436.158 401.738 435.596 402.806 434.786 403.617 433.725 404.17 432.665 404.723 431.378 405 429.866 405L425.444 405 423.83 405 421 405 421 371ZM425.444 375.209 425.444 400.791 430.029 400.791C430.84 400.791 431.464 400.549 431.901 400.066 432.337 399.583 432.556 398.897 432.556 398.008L432.556 377.992C432.556 377.103 432.337 376.417 431.901 375.934 431.464 375.451 430.84 375.209 430.029 375.209L425.444 375.209Z" fill="#0D0D0D" fill-rule="evenodd"/><path d="M355.5 436C357.289 436 358.82 436.334 360.091 437.002 361.363 437.671 362.332 438.649 362.999 439.939 363.666 441.228 364 442.785 364 444.609L364 462.391C364 464.2 363.666 465.748 362.999 467.038 362.332 468.327 361.363 469.31 360.091 469.986 358.82 470.662 357.289 471 355.5 471 353.711 471 352.18 470.662 350.909 469.986 349.637 469.31 348.668 468.327 348.001 467.038 347.333 465.748 347 464.2 347 462.391L347 444.609C347 442.785 347.333 441.228 348.001 439.939 348.668 438.649 349.637 437.671 350.909 437.002 352.18 436.334 353.711 436 355.5 436ZM355.5 440.363C354.652 440.363 353.926 440.524 353.322 440.847 352.718 441.169 352.258 441.637 351.945 442.25 351.631 442.863 351.474 443.602 351.474 444.467L351.474 462.533C351.474 463.398 351.631 464.137 351.945 464.75 352.258 465.363 352.718 465.831 353.322 466.153 353.926 466.476 354.652 466.637 355.5 466.637 356.348 466.637 357.074 466.476 357.678 466.153 358.282 465.831 358.741 465.363 359.055 464.75 359.369 464.137 359.526 463.398 359.526 462.533L359.526 444.467C359.526 443.602 359.369 442.863 359.055 442.25 358.741 441.637 358.282 441.169 357.678 440.847 357.074 440.524 356.348 440.363 355.5 440.363Z" fill="#0D0D0D" fill-rule="evenodd"/><path d="M257 436 259.4 436 261.56 436 272 436 272 440.209 261.56 440.209 261.56 451.316 270.8 451.316 270.8 455.525 261.56 455.525 261.56 470 257 470 257 436Z" fill="#0D0D0D" fill-rule="evenodd"/><path d="M279 436 283 436 283 470 279 470 279 436Z" fill="#0D0D0D" fill-rule="evenodd"/><path d="M290 436 306 436 306 440.209 300.153 440.209 300.153 470 295.847 470 295.847 440.209 290 440.209 290 436Z" fill="#0D0D0D" fill-rule="evenodd"/><path d="M324 436 340 436 340 440.209 334.153 440.209 334.153 470 329.847 470 329.847 440.209 324 440.209 324 436Z" fill="#0D0D0D" fill-rule="evenodd"/><path d="M157.5 524C161.169 524 164.313 524.62 166.932 525.86 169.551 527.1 171.55 528.913 172.93 531.3 174.31 533.687 175 536.554 175 539.902L175 577.098C175 580.446 174.31 583.306 172.93 585.677 171.55 588.048 169.551 589.862 166.932 591.117 164.313 592.372 161.169 593 157.5 593 153.831 593 150.687 592.372 148.068 591.117 145.449 589.862 143.45 588.048 142.07 585.677 140.69 583.306 140 580.446 140 577.098L140 539.902C140 536.554 140.69 533.687 142.07 531.3 143.45 528.913 145.449 527.1 148.068 525.86 150.687 524.62 153.831 524 157.5 524ZM157.5 535.484C156.308 535.484 155.289 535.717 154.442 536.182 153.595 536.647 152.953 537.313 152.514 538.181 152.074 539.049 151.855 540.088 151.855 541.297L151.855 575.61C151.855 576.85 152.074 577.904 152.514 578.772 152.953 579.64 153.595 580.307 154.442 580.772 155.289 581.237 156.308 581.469 157.5 581.469 158.692 581.469 159.719 581.237 160.581 580.772 161.444 580.307 162.095 579.64 162.534 578.772 162.973 577.904 163.192 576.85 163.192 575.61L163.192 541.297C163.192 540.088 162.973 539.049 162.534 538.181 162.095 537.313 161.444 536.647 160.581 536.182 159.719 535.717 158.692 535.484 157.5 535.484Z" fill="#0D0D0D" fill-rule="evenodd"/><path d="M498.976 524C502.447 524 505.433 524.651 507.934 525.953 510.435 527.255 512.342 529.153 513.655 531.649 514.968 534.144 515.625 537.143 515.625 540.646L515.625 544.458 504.041 544.598 504.041 540.739C504.041 539.003 503.596 537.646 502.705 536.67 501.814 535.694 500.571 535.206 498.976 535.206 497.288 535.206 495.983 535.647 495.061 536.531 494.138 537.414 493.677 538.631 493.677 540.181L493.677 544.691C493.677 545.962 494.013 547.062 494.685 547.992 495.358 548.922 496.202 549.705 497.218 550.34 498.234 550.975 499.649 551.743 501.462 552.642 501.806 552.797 502.158 552.967 502.517 553.153 502.877 553.339 503.244 553.525 503.619 553.711 503.682 553.742 503.737 553.773 503.783 553.804 503.83 553.835 503.885 553.866 503.948 553.897 506.543 555.261 508.637 556.524 510.232 557.686 511.826 558.849 513.186 560.484 514.312 562.592 515.437 564.699 516 567.396 516 570.682L516 576.308C516 579.811 515.336 582.81 514.007 585.305 512.678 587.8 510.748 589.707 508.215 591.024 505.683 592.341 502.65 593 499.117 593 495.553 593 492.489 592.341 489.926 591.024 487.362 589.707 485.4 587.8 484.04 585.305 482.68 582.81 482 579.811 482 576.308L482 572.681 493.583 572.588 493.583 576.215C493.583 577.92 494.068 579.26 495.037 580.237 496.006 581.213 497.351 581.701 499.07 581.701 500.759 581.701 502.064 581.221 502.986 580.26 503.909 579.299 504.37 577.982 504.37 576.308L504.37 570.403C504.37 569.163 504.018 568.086 503.314 567.172 502.611 566.257 501.704 565.467 500.594 564.8 499.485 564.134 497.976 563.336 496.069 562.406 495.944 562.344 495.827 562.282 495.717 562.22 495.608 562.158 495.491 562.096 495.366 562.034L494.756 561.755C492.223 560.484 490.066 559.159 488.284 557.779 486.502 556.4 485.017 554.579 483.829 552.316 482.641 550.053 482.047 547.263 482.047 543.947L482.047 540.46C482.047 537.019 482.711 534.066 484.04 531.602 485.369 529.138 487.299 527.255 489.832 525.953 492.364 524.651 495.412 524 498.976 524Z" fill="#0D0D0D" fill-rule="evenodd"/><path d="M233 525 238.176 525 244.332 525 249.694 525C253.363 525 256.495 525.6 259.091 526.799 261.686 527.999 263.668 529.759 265.036 532.08 266.404 534.402 267.088 537.182 267.088 540.423L267.088 548.368C267.088 551.702 266.404 554.56 265.036 556.944 263.668 559.327 261.679 561.142 259.067 562.388L258.973 562.419 269 593 256.596 593 248.21 564.258 244.332 564.258 244.332 593 233 593 233 525ZM244.332 536.123 244.332 553.135 250.394 553.135C251.389 553.135 252.251 552.956 252.982 552.597 253.712 552.239 254.264 551.725 254.637 551.055 255.01 550.385 255.197 549.583 255.197 548.648L255.197 541.077C255.197 540.049 255.01 539.161 254.637 538.413 254.264 537.665 253.712 537.097 252.982 536.707 252.251 536.318 251.389 536.123 250.394 536.123L244.332 536.123Z" fill="#0D0D0D" fill-rule="evenodd"/><path d="M96 525 107.877 525 114.138 553.154 120.123 525 132 525 119.939 566.95 119.939 593 108.522 593 108.522 566.95 96 525Z" fill="#0D0D0D" fill-rule="evenodd"/><path d="M187 525 198.448 525 198.448 576.336C198.448 577.971 198.847 579.244 199.644 580.155 200.441 581.065 201.544 581.52 202.954 581.52 204.395 581.52 205.521 581.065 206.333 580.155 207.146 579.244 207.552 577.971 207.552 576.336L207.552 525 219 525 219 576.012C219 579.56 218.364 582.608 217.092 585.154 215.82 587.7 213.981 589.644 211.575 590.986 209.169 592.329 206.295 593 202.954 593 199.644 593 196.785 592.329 194.379 590.986 191.973 589.644 190.142 587.7 188.885 585.154 187.628 582.608 187 579.56 187 576.012L187 525Z" fill="#0D0D0D" fill-rule="evenodd"/><path d="M306 525 315.008 525 329.56 566.812 329.56 525 340 525 340 593 330.899 593 316.486 553.516 316.486 593 306 593 306 525Z" fill="#0D0D0D" fill-rule="evenodd"/><path d="M354 525 359.108 525 365.517 525 384 525 384 536.318 365.517 536.318 365.517 553.575 381.678 553.575 381.678 564.846 365.517 564.846 365.517 581.682 384 581.682 384 593 365.517 593 359.108 593 354 593 354 525Z" fill="#0D0D0D" fill-rule="evenodd"/><path d="M395 525 400.108 525 406.517 525 425 525 425 536.318 406.517 536.318 406.517 553.575 422.678 553.575 422.678 564.846 406.517 564.846 406.517 581.682 425 581.682 425 593 406.517 593 400.108 593 395 593 395 525Z" fill="#0D0D0D" fill-rule="evenodd"/><path d="M436 525 443.712 525 447.592 525 453.575 525C456.816 525 459.589 525.6 461.895 526.801 464.201 528.001 465.962 529.747 467.177 532.039 468.392 534.33 469 537.066 469 540.246L469 577.754C469 580.934 468.392 583.67 467.177 585.961 465.962 588.253 464.193 589.999 461.872 591.199 459.55 592.4 456.769 593 453.528 593L447.592 593 443.712 593 436 593 436 525ZM447.592 536.131 447.592 581.869 452.407 581.869C453.965 581.869 455.164 581.394 456.006 580.443 456.847 579.492 457.268 578.159 457.268 576.444L457.268 541.556C457.268 539.841 456.847 538.508 456.006 537.557 455.164 536.606 453.965 536.131 452.407 536.131L447.592 536.131Z" fill="#0D0D0D" fill-rule="evenodd"/></g></svg>