<svg width="517" height="139" xmlns="http://www.w3.org/2000/svg" xmlns:xlink="http://www.w3.org/1999/xlink" overflow="hidden"><g transform="translate(-68 -195)"><path d="M131.483 196C134.035 196 136.23 196.491 138.069 197.472 139.908 198.453 141.31 199.884 142.276 201.764 143.241 203.645 143.724 205.905 143.724 208.544L143.724 211.418 135.207 211.523 135.207 208.615C135.207 207.306 134.879 206.284 134.224 205.548 133.569 204.813 132.655 204.445 131.483 204.445 130.241 204.445 129.282 204.778 128.604 205.443 127.925 206.109 127.586 207.026 127.586 208.194L127.586 211.593C127.586 212.551 127.833 213.38 128.328 214.081 128.822 214.782 129.443 215.371 130.19 215.85 130.937 216.329 131.977 216.907 133.31 217.585 133.563 217.702 133.822 217.83 134.086 217.97 134.351 218.111 134.621 218.251 134.897 218.391 134.943 218.414 134.983 218.438 135.017 218.461 135.052 218.484 135.092 218.508 135.138 218.531 137.046 219.559 138.586 220.511 139.759 221.387 140.931 222.263 141.931 223.495 142.759 225.084 143.586 226.672 144 228.704 144 231.181L144 235.42C144 238.06 143.511 240.32 142.534 242.201 141.558 244.081 140.138 245.518 138.276 246.511 136.414 247.504 134.184 248 131.586 248 128.966 248 126.713 247.504 124.828 246.511 122.943 245.518 121.5 244.081 120.5 242.201 119.5 240.32 119 238.06 119 235.42L119 232.687 127.517 232.617 127.517 235.35C127.517 236.635 127.874 237.646 128.586 238.381 129.299 239.117 130.287 239.485 131.552 239.485 132.793 239.485 133.753 239.123 134.431 238.399 135.109 237.675 135.448 236.682 135.448 235.42L135.448 230.97C135.448 230.036 135.19 229.224 134.672 228.535 134.155 227.846 133.489 227.25 132.672 226.748 131.856 226.246 130.747 225.644 129.345 224.943 129.253 224.897 129.167 224.85 129.086 224.803 129.006 224.757 128.92 224.71 128.828 224.663L128.379 224.453C126.517 223.495 124.931 222.496 123.621 221.457 122.31 220.417 121.218 219.045 120.345 217.34 119.471 215.634 119.035 213.532 119.035 211.032L119.035 208.404C119.035 205.811 119.523 203.586 120.5 201.729 121.477 199.872 122.897 198.453 124.759 197.472 126.621 196.491 128.862 196 131.483 196Z" fill="#0D0D0D" fill-rule="evenodd"/><path d="M197.5 196C200.127 196 202.377 196.508 204.251 197.524 206.126 198.54 207.553 200.024 208.532 201.974 209.511 203.925 210 206.267 210 209L210 213.1 201.01 213.1 201.01 209C201.01 208.136 200.879 207.388 200.616 206.757 200.353 206.127 199.953 205.642 199.416 205.303 198.879 204.964 198.24 204.795 197.5 204.795 196.784 204.795 196.163 204.959 195.638 205.286 195.112 205.613 194.712 206.092 194.438 206.722 194.163 207.353 194.026 208.101 194.026 208.965L194.026 235.035C194.026 235.899 194.163 236.641 194.438 237.26 194.712 237.879 195.112 238.352 195.638 238.679 196.163 239.006 196.784 239.17 197.5 239.17 198.264 239.17 198.909 239.006 199.434 238.679 199.959 238.352 200.353 237.879 200.616 237.26 200.879 236.641 201.01 235.888 201.01 235L201.01 230.9 210 230.9 210 235C210 237.733 209.511 240.075 208.532 242.026 207.553 243.976 206.126 245.46 204.251 246.476 202.377 247.492 200.127 248 197.5 248 194.873 248 192.629 247.492 190.767 246.476 188.904 245.46 187.477 243.982 186.486 242.043 185.496 240.104 185 237.768 185 235.035L185 208.965C185 206.232 185.496 203.896 186.486 201.957 187.477 200.018 188.904 198.54 190.767 197.524 192.629 196.508 194.873 196 197.5 196Z" fill="#0D0D0D" fill-rule="evenodd"/><path d="M387.5 196C390.127 196 392.377 196.508 394.251 197.524 396.126 198.54 397.553 200.024 398.532 201.974 399.51 203.925 400 206.267 400 209L400 213.1 391.01 213.1 391.01 209C391.01 208.136 390.879 207.388 390.616 206.757 390.353 206.127 389.953 205.642 389.416 205.303 388.879 204.964 388.24 204.795 387.5 204.795 386.784 204.795 386.163 204.959 385.638 205.286 385.112 205.613 384.712 206.092 384.438 206.722 384.163 207.353 384.026 208.101 384.026 208.965L384.026 235.035C384.026 235.899 384.163 236.641 384.438 237.26 384.712 237.879 385.112 238.352 385.638 238.679 386.163 239.006 386.784 239.17 387.5 239.17 388.264 239.17 388.909 239.006 389.434 238.679 389.959 238.352 390.353 237.879 390.616 237.26 390.879 236.641 391.01 235.888 391.01 235L391.01 230.9 400 230.9 400 235C400 237.733 399.51 240.075 398.532 242.026 397.553 243.976 396.126 245.46 394.251 246.476 392.377 247.492 390.127 248 387.5 248 384.873 248 382.629 247.492 380.766 246.476 378.904 245.46 377.477 243.982 376.486 242.043 375.496 240.104 375 237.768 375 235.035L375 208.965C375 206.232 375.496 203.896 376.486 201.957 377.477 200.018 378.904 198.54 380.766 197.524 382.629 196.508 384.873 196 387.5 196Z" fill="#0D0D0D" fill-rule="evenodd"/><path d="M421.5 196C424.127 196 426.377 196.508 428.251 197.524 430.126 198.54 431.553 200.024 432.532 201.974 433.51 203.925 434 206.267 434 209L434 213.1 425.01 213.1 425.01 209C425.01 208.136 424.879 207.388 424.616 206.757 424.353 206.127 423.953 205.642 423.416 205.303 422.879 204.964 422.24 204.795 421.5 204.795 420.784 204.795 420.163 204.959 419.638 205.286 419.112 205.613 418.712 206.092 418.438 206.722 418.163 207.353 418.026 208.101 418.026 208.965L418.026 235.035C418.026 235.899 418.163 236.641 418.438 237.26 418.712 237.879 419.112 238.352 419.638 238.679 420.163 239.006 420.784 239.17 421.5 239.17 422.264 239.17 422.909 239.006 423.434 238.679 423.959 238.352 424.353 237.879 424.616 237.26 424.879 236.641 425.01 235.888 425.01 235L425.01 230.9 434 230.9 434 235C434 237.733 433.51 240.075 432.532 242.026 431.553 243.976 430.126 245.46 428.251 246.476 426.377 247.492 424.127 248 421.5 248 418.873 248 416.629 247.492 414.766 246.476 412.904 245.46 411.477 243.982 410.486 242.043 409.495 240.104 409 237.768 409 235.035L409 208.965C409 206.232 409.496 203.896 410.486 201.957 411.477 200.018 412.904 198.54 414.766 197.524 416.629 196.508 418.873 196 421.5 196Z" fill="#0D0D0D" fill-rule="evenodd"/><path d="M486.483 196C489.035 196 491.23 196.491 493.069 197.472 494.908 198.453 496.31 199.884 497.276 201.764 498.241 203.645 498.724 205.905 498.724 208.544L498.724 211.418 490.207 211.523 490.207 208.615C490.207 207.306 489.879 206.284 489.224 205.548 488.569 204.813 487.655 204.445 486.483 204.445 485.241 204.445 484.282 204.778 483.604 205.443 482.925 206.109 482.586 207.026 482.586 208.194L482.586 211.593C482.586 212.551 482.833 213.38 483.328 214.081 483.822 214.782 484.443 215.371 485.19 215.85 485.937 216.329 486.977 216.907 488.31 217.585 488.563 217.702 488.822 217.83 489.086 217.97 489.351 218.111 489.621 218.251 489.897 218.391 489.943 218.414 489.983 218.438 490.017 218.461 490.052 218.484 490.092 218.508 490.138 218.531 492.046 219.559 493.586 220.511 494.759 221.387 495.931 222.263 496.931 223.495 497.759 225.084 498.586 226.672 499 228.704 499 231.181L499 235.42C499 238.06 498.511 240.32 497.534 242.201 496.558 244.081 495.138 245.518 493.276 246.511 491.414 247.504 489.184 248 486.586 248 483.966 248 481.713 247.504 479.828 246.511 477.943 245.518 476.5 244.081 475.5 242.201 474.5 240.32 474 238.06 474 235.42L474 232.687 482.517 232.617 482.517 235.35C482.517 236.635 482.874 237.646 483.586 238.381 484.299 239.117 485.287 239.485 486.552 239.485 487.793 239.485 488.753 239.123 489.431 238.399 490.109 237.675 490.448 236.682 490.448 235.42L490.448 230.97C490.448 230.036 490.19 229.224 489.672 228.535 489.155 227.846 488.489 227.25 487.672 226.748 486.856 226.246 485.747 225.644 484.345 224.943 484.253 224.897 484.167 224.85 484.086 224.803 484.006 224.757 483.92 224.71 483.828 224.663L483.379 224.453C481.517 223.495 479.931 222.496 478.621 221.457 477.31 220.417 476.218 219.045 475.345 217.34 474.471 215.634 474.034 213.532 474.034 211.032L474.034 208.404C474.034 205.811 474.523 203.586 475.5 201.729 476.477 199.872 477.897 198.453 479.759 197.472 481.621 196.491 483.862 196 486.483 196Z" fill="#0D0D0D" fill-rule="evenodd"/><path d="M521.483 196C524.035 196 526.23 196.491 528.069 197.472 529.908 198.453 531.31 199.884 532.276 201.764 533.241 203.645 533.724 205.905 533.724 208.544L533.724 211.418 525.207 211.523 525.207 208.615C525.207 207.306 524.879 206.284 524.224 205.548 523.569 204.813 522.655 204.445 521.483 204.445 520.241 204.445 519.282 204.778 518.604 205.443 517.925 206.109 517.586 207.026 517.586 208.194L517.586 211.593C517.586 212.551 517.833 213.38 518.328 214.081 518.822 214.782 519.443 215.371 520.19 215.85 520.937 216.329 521.977 216.907 523.31 217.585 523.563 217.702 523.822 217.83 524.086 217.97 524.351 218.111 524.621 218.251 524.897 218.391 524.943 218.414 524.983 218.438 525.017 218.461 525.052 218.484 525.092 218.508 525.138 218.531 527.046 219.559 528.586 220.511 529.759 221.387 530.931 222.263 531.931 223.495 532.759 225.084 533.586 226.672 534 228.704 534 231.181L534 235.42C534 238.06 533.511 240.32 532.534 242.201 531.557 244.081 530.138 245.518 528.276 246.511 526.414 247.504 524.184 248 521.586 248 518.966 248 516.713 247.504 514.828 246.511 512.943 245.518 511.5 244.081 510.5 242.201 509.5 240.32 509 238.06 509 235.42L509 232.687 517.517 232.617 517.517 235.35C517.517 236.635 517.874 237.646 518.586 238.381 519.299 239.117 520.287 239.485 521.552 239.485 522.793 239.485 523.753 239.123 524.431 238.399 525.109 237.675 525.448 236.682 525.448 235.42L525.448 230.97C525.448 230.036 525.19 229.224 524.672 228.535 524.155 227.846 523.489 227.25 522.672 226.748 521.856 226.246 520.747 225.644 519.345 224.943 519.253 224.897 519.167 224.85 519.086 224.803 519.006 224.757 518.92 224.71 518.828 224.663L518.379 224.453C516.517 223.495 514.931 222.496 513.621 221.457 512.31 220.417 511.218 219.045 510.345 217.34 509.471 215.634 509.034 213.532 509.034 211.032L509.034 208.404C509.034 205.811 509.523 203.586 510.5 201.729 511.477 199.872 512.897 198.453 514.759 197.472 516.621 196.491 518.862 196 521.483 196Z" fill="#0D0D0D" fill-rule="evenodd"/><path d="M253 196 256.882 196 261.499 196 265.521 196C268.272 196 270.621 196.45 272.568 197.349 274.515 198.249 276.001 199.569 277.027 201.31 278.053 203.051 278.566 205.137 278.566 207.567L278.566 213.526C278.566 216.026 278.053 218.17 277.027 219.958 276.001 221.745 274.509 223.107 272.55 224.041L272.48 224.064 280 247 270.697 247 264.407 225.443 261.499 225.443 261.499 247 253 247 253 196ZM261.499 204.342 261.499 217.101 266.045 217.101C266.792 217.101 267.438 216.967 267.986 216.698 268.534 216.429 268.948 216.044 269.228 215.541 269.508 215.039 269.648 214.437 269.648 213.736L269.648 208.058C269.648 207.287 269.508 206.621 269.228 206.06 268.948 205.499 268.534 205.073 267.986 204.78 267.439 204.488 266.791 204.342 266.045 204.342L261.499 204.342Z" fill="#0D0D0D" fill-rule="evenodd"/><path d="M154 196 157.916 196 162.83 196 177 196 177 204.488 162.83 204.488 162.83 217.431 175.22 217.431 175.22 225.884 162.83 225.884 162.83 238.512 177 238.512 177 247 162.83 247 157.916 247 154 247 154 196Z" fill="#0D0D0D" fill-rule="evenodd"/><path d="M219 196 227.586 196 227.586 235.257C227.586 236.507 227.885 237.481 228.483 238.177 229.08 238.873 229.908 239.221 230.965 239.221 232.046 239.221 232.891 238.873 233.5 238.177 234.109 237.481 234.414 236.507 234.414 235.257L234.414 196 243 196 243 235.009C243 237.723 242.523 240.053 241.569 242 240.615 243.947 239.236 245.434 237.431 246.46 235.626 247.487 233.471 248 230.965 248 228.483 248 226.339 247.487 224.534 246.46 222.73 245.434 221.356 243.947 220.414 242 219.471 240.053 219 237.723 219 235.009L219 196Z" fill="#0D0D0D" fill-rule="evenodd"/><path d="M290 196 293.916 196 298.83 196 313 196 313 204.488 298.83 204.488 298.83 217.431 311.22 217.431 311.22 225.884 298.83 225.884 298.83 238.512 313 238.512 313 247 298.83 247 293.916 247 290 247 290 196Z" fill="#0D0D0D" fill-rule="evenodd"/><path d="M348.993 196 355.007 196 367 247 358.498 247 356.957 239.073 347.043 239.073 345.502 247 337 247 348.993 196ZM352 213.573 348.625 230.935 355.375 230.935 352 213.573Z" fill="#0D0D0D" fill-rule="evenodd"/><path d="M443 196 446.916 196 451.83 196 466 196 466 204.488 451.83 204.488 451.83 217.431 464.22 217.431 464.22 225.884 451.83 225.884 451.83 238.512 466 238.512 466 247 451.83 247 446.916 247 443 247 443 196Z" fill="#0D0D0D" fill-rule="evenodd"/><path d="M283 282 286.882 282 291.499 282 295.521 282C298.272 282 300.621 282.45 302.568 283.349 304.515 284.249 306.001 285.569 307.027 287.31 308.053 289.051 308.566 291.137 308.566 293.567L308.566 299.526C308.566 302.026 308.053 304.17 307.027 305.958 306.001 307.745 304.509 309.107 302.55 310.041L302.48 310.064 310 333 300.697 333 294.407 311.443 291.499 311.443 291.499 333 283 333 283 282ZM291.499 290.342 291.499 303.101 296.045 303.101C296.791 303.101 297.438 302.967 297.986 302.698 298.534 302.429 298.948 302.044 299.228 301.541 299.508 301.039 299.648 300.437 299.648 299.736L299.648 294.058C299.648 293.287 299.508 292.621 299.228 292.06 298.948 291.499 298.534 291.073 297.986 290.78 297.438 290.488 296.791 290.342 296.045 290.342L291.499 290.342Z" fill="#0D0D0D" fill-rule="evenodd"/><path d="M80.9931 282 87.007 282 99 333 90.4977 333 88.9569 325.073 79.0432 325.073 77.5023 333 69 333 80.9931 282ZM84.0001 299.573 80.6251 316.935 87.375 316.935 84.0001 299.573Z" fill="#0D0D0D" fill-rule="evenodd"/><path d="M107 282 113.889 282 125.016 313.359 125.016 282 133 282 133 333 126.041 333 115.019 303.387 115.019 333 107 333 107 282Z" fill="#0D0D0D" fill-rule="evenodd"/><path d="M139 282 148.238 282 153.107 303.116 157.762 282 167 282 157.619 313.463 157.619 333 148.739 333 148.739 313.463 139 282Z" fill="#0D0D0D" fill-rule="evenodd"/><path d="M169 282 177.938 282 180.527 317.391 186.095 282 192.905 282 198.473 317.391 201.062 282 210 282 203.403 333 194.962 333 189.713 300.029 184.074 333 175.632 333 169 282Z" fill="#0D0D0D" fill-rule="evenodd"/><path d="M217 282 225.96 282 225.96 303.782 233.04 303.782 233.04 282 242 282 242 333 233.04 333 233.04 311.955 225.96 311.955 225.96 333 217 333 217 282Z" fill="#0D0D0D" fill-rule="evenodd"/><path d="M252 282 255.916 282 260.83 282 275 282 275 290.488 260.83 290.488 260.83 303.431 273.22 303.431 273.22 311.885 260.83 311.885 260.83 324.512 275 324.512 275 333 260.83 333 255.916 333 252 333 252 282Z" fill="#0D0D0D" fill-rule="evenodd"/><path d="M320 282 323.916 282 328.83 282 343 282 343 290.488 328.83 290.488 328.83 303.431 341.22 303.431 341.22 311.885 328.83 311.885 328.83 324.512 343 324.512 343 333 328.83 333 323.916 333 320 333 320 282Z" fill="#0D0D0D" fill-rule="evenodd"/><path d="M378.993 282 385.007 282 397 333 388.498 333 386.957 325.073 377.043 325.073 375.502 333 367 333 378.993 282ZM382 299.573 378.625 316.935 385.375 316.935 382 299.573Z" fill="#0D0D0D" fill-rule="evenodd"/><path d="M405 282 411.889 282 423.016 313.359 423.016 282 431 282 431 333 424.041 333 413.019 303.387 413.019 333 405 333 405 282Z" fill="#0D0D0D" fill-rule="evenodd"/><path d="M437 282 446.238 282 451.107 303.116 455.762 282 465 282 455.619 313.463 455.619 333 446.739 333 446.739 313.463 437 282Z" fill="#0D0D0D" fill-rule="evenodd"/><path d="M467 282 492 282 492 290.348 483.758 290.348 483.758 333 475.242 333 475.242 290.348 467 290.348 467 282Z" fill="#0D0D0D" fill-rule="evenodd"/><path d="M499 282 507 282 507 333 499 333 499 282Z" fill="#0D0D0D" fill-rule="evenodd"/><path d="M517 282 525.447 282 534 309.71 542.766 282 551 282 551 333 543.157 333 543.157 301.374 536.2 323.986 531.799 323.986 525.021 302.585 525.021 333 517 333 517 282Z" fill="#0D0D0D" fill-rule="evenodd"/><path d="M561 282 564.916 282 569.83 282 584 282 584 290.488 569.83 290.488 569.83 303.431 582.22 303.431 582.22 311.885 569.83 311.885 569.83 324.512 584 324.512 584 333 569.83 333 564.916 333 561 333 561 282Z" fill="#0D0D0D" fill-rule="evenodd"/></g></svg>