<svg width="469" height="236" xmlns="http://www.w3.org/2000/svg" xmlns:xlink="http://www.w3.org/1999/xlink" overflow="hidden"><g transform="translate(-165 -228)"><path d="M340 228C342.726 228 345.061 228.467 347.007 229.402 348.952 230.336 350.437 231.703 351.462 233.501 352.487 235.3 353 237.461 353 239.984L353 268.016C353 270.539 352.487 272.694 351.462 274.481 350.437 276.268 348.952 277.635 347.007 278.581 345.061 279.527 342.726 280 340 280 337.274 280 334.939 279.527 332.993 278.581 331.048 277.635 329.563 276.268 328.538 274.481 327.513 272.694 327 270.539 327 268.016L327 239.984C327 237.461 327.513 235.3 328.538 233.501 329.563 231.703 331.048 230.336 332.993 229.402 334.939 228.467 337.274 228 340 228ZM340 236.655C339.115 236.655 338.358 236.83 337.729 237.181 337.1 237.531 336.622 238.033 336.296 238.687 335.97 239.341 335.807 240.124 335.807 241.035L335.807 266.895C335.807 267.829 335.97 268.624 336.296 269.278 336.622 269.932 337.1 270.434 337.729 270.784 338.358 271.135 339.115 271.31 340 271.31 340.885 271.31 341.648 271.135 342.289 270.784 342.93 270.434 343.413 269.932 343.739 269.278 344.065 268.624 344.229 267.829 344.229 266.895L344.229 241.035C344.229 240.124 344.065 239.341 343.739 238.687 343.413 238.033 342.93 237.531 342.289 237.181 341.648 236.83 340.885 236.655 340 236.655Z" fill="#0A1543" fill-rule="evenodd"/><path d="M479 228C481.726 228 484.061 228.467 486.007 229.402 487.952 230.336 489.437 231.703 490.462 233.501 491.487 235.3 492 237.461 492 239.984L492 268.016C492 270.539 491.487 272.694 490.462 274.481 489.437 276.268 487.952 277.635 486.007 278.581 484.061 279.527 481.726 280 479 280 476.274 280 473.939 279.527 471.993 278.581 470.048 277.635 468.563 276.268 467.538 274.481 466.513 272.694 466 270.539 466 268.016L466 239.984C466 237.461 466.513 235.3 467.538 233.501 468.563 231.703 470.048 230.336 471.993 229.402 473.939 228.467 476.274 228 479 228ZM479 236.655C478.115 236.655 477.358 236.83 476.729 237.181 476.1 237.531 475.622 238.033 475.296 238.687 474.97 239.341 474.807 240.124 474.807 241.035L474.807 266.895C474.807 267.829 474.97 268.624 475.296 269.278 475.622 269.932 476.1 270.434 476.729 270.784 477.358 271.135 478.115 271.31 479 271.31 479.885 271.31 480.648 271.135 481.289 270.784 481.93 270.434 482.413 269.932 482.739 269.278 483.065 268.624 483.229 267.829 483.229 266.895L483.229 241.035C483.229 240.124 483.065 239.341 482.739 238.687 482.413 238.033 481.93 237.531 481.289 237.181 480.648 236.83 479.885 236.655 479 236.655Z" fill="#0A1543" fill-rule="evenodd"/><path d="M227 229 230.882 229 235.499 229 239.521 229C242.272 229 244.621 229.45 246.568 230.349 248.515 231.249 250.001 232.569 251.027 234.31 252.053 236.051 252.566 238.137 252.566 240.567L252.566 246.526C252.566 249.026 252.053 251.17 251.027 252.958 250.001 254.745 248.509 256.107 246.551 257.041L246.48 257.064 254 280 244.697 280 238.407 258.443 235.499 258.443 235.499 280 227 280 227 229ZM235.499 237.342 235.499 250.101 240.045 250.101C240.792 250.101 241.439 249.967 241.986 249.698 242.534 249.429 242.948 249.044 243.228 248.541 243.508 248.039 243.648 247.437 243.648 246.736L243.648 241.058C243.648 240.287 243.508 239.621 243.228 239.06 242.948 238.499 242.534 238.073 241.986 237.78 241.439 237.488 240.792 237.342 240.045 237.342L235.499 237.342Z" fill="#0A1543" fill-rule="evenodd"/><path d="M498 229 501.882 229 506.499 229 510.521 229C513.272 229 515.621 229.45 517.568 230.349 519.515 231.249 521.001 232.569 522.027 234.31 523.053 236.051 523.566 238.137 523.566 240.567L523.566 246.526C523.566 249.026 523.053 251.17 522.027 252.958 521.001 254.745 519.509 256.107 517.551 257.041L517.48 257.064 525 280 515.697 280 509.407 258.443 506.499 258.443 506.499 280 498 280 498 229ZM506.499 237.342 506.499 250.101 511.045 250.101C511.792 250.101 512.439 249.967 512.986 249.698 513.534 249.429 513.948 249.044 514.228 248.541 514.508 248.039 514.648 247.437 514.648 246.736L514.648 241.058C514.648 240.287 514.508 239.621 514.228 239.06 513.948 238.499 513.534 238.073 512.986 237.78 512.439 237.488 511.792 237.342 511.045 237.342L506.499 237.342Z" fill="#0A1543" fill-rule="evenodd"/><path d="M260 229 263.916 229 268.83 229 283 229 283 237.488 268.83 237.488 268.83 250.431 281.22 250.431 281.22 258.884 268.83 258.884 268.83 271.512 283 271.512 283 280 268.83 280 263.916 280 260 280 260 229Z" fill="#0A1543" fill-rule="evenodd"/><path d="M287 229 295.447 229 304 256.71 312.766 229 321 229 321 280 313.157 280 313.157 248.374 306.2 270.986 301.8 270.986 295.021 249.585 295.021 280 287 280 287 229Z" fill="#0A1543" fill-rule="evenodd"/><path d="M356 229 381 229 381 237.348 372.758 237.348 372.758 280 364.242 280 364.242 237.348 356 237.348 356 229Z" fill="#0A1543" fill-rule="evenodd"/><path d="M384 229 387.916 229 392.83 229 407 229 407 237.488 392.83 237.488 392.83 250.431 405.22 250.431 405.22 258.884 392.83 258.884 392.83 271.512 407 271.512 407 280 392.83 280 387.916 280 384 280 384 229Z" fill="#0A1543" fill-rule="evenodd"/><path d="M422 229 430.938 229 433.527 264.391 439.095 229 445.905 229 451.473 264.391 454.062 229 463 229 456.403 280 447.962 280 442.713 247.029 437.074 280 428.632 280 422 229Z" fill="#0A1543" fill-rule="evenodd"/><path d="M531 229 539.615 229 539.615 251.486 547.675 229 557.402 229 547.943 249.747 559 280 549.551 280 543.355 259.809 539.615 268.012 539.615 280 531 280 531 229Z" fill="#0A1543" fill-rule="evenodd"/><path d="M389 327C391.306 327 393.283 327.377 394.929 328.132 396.575 328.887 397.832 329.991 398.699 331.443 399.566 332.896 400 334.641 400 336.679L400 359.321C400 361.359 399.566 363.099 398.699 364.542 397.832 365.986 396.575 367.09 394.929 367.854 393.283 368.618 391.306 369 389 369 386.694 369 384.717 368.618 383.071 367.854 381.425 367.09 380.168 365.986 379.301 364.542 378.434 363.099 378 361.359 378 359.321L378 336.679C378 334.641 378.434 332.896 379.301 331.443 380.168 329.991 381.425 328.887 383.071 328.132 384.717 327.377 386.694 327 389 327ZM389 333.991C388.251 333.991 387.61 334.132 387.078 334.415 386.546 334.698 386.142 335.104 385.866 335.632 385.59 336.16 385.452 336.792 385.452 337.528L385.452 358.415C385.452 359.17 385.59 359.811 385.866 360.34 386.142 360.868 386.546 361.274 387.078 361.557 387.61 361.84 388.251 361.981 389 361.981 389.749 361.981 390.395 361.84 390.937 361.557 391.479 361.274 391.888 360.868 392.164 360.34 392.44 359.811 392.578 359.17 392.578 358.415L392.578 337.528C392.578 336.792 392.44 336.16 392.164 335.632 391.888 335.104 391.479 334.698 390.937 334.415 390.395 334.132 389.749 333.991 389 333.991Z" fill="#0A1543" fill-rule="evenodd"/><path d="M352 327 357.564 327 366.552 352.825 366.552 327 373 327 373 369 367.379 369 358.477 344.612 358.477 369 352 369 352 327Z" fill="#0A1543" fill-rule="evenodd"/><path d="M403 327 410.194 327 412.278 356.146 416.759 327 422.241 327 426.722 356.146 428.806 327 436 327 430.69 369 423.896 369 419.671 341.847 415.132 369 408.338 369 403 327Z" fill="#0A1543" fill-rule="evenodd"/><path d="M177.982 411C180.636 411 182.919 411.491 184.832 412.472 186.744 413.453 188.203 414.884 189.207 416.764 190.211 418.645 190.713 420.905 190.713 423.544L190.713 426.418 181.855 426.523 181.855 423.615C181.855 422.306 181.514 421.284 180.833 420.548 180.152 419.813 179.201 419.445 177.982 419.445 176.691 419.445 175.693 419.778 174.988 420.443 174.282 421.109 173.93 422.026 173.93 423.194L173.93 426.593C173.93 427.551 174.187 428.38 174.701 429.081 175.215 429.782 175.86 430.372 176.637 430.85 177.414 431.329 178.496 431.907 179.883 432.585 180.146 432.702 180.415 432.83 180.69 432.97 180.965 433.111 181.245 433.251 181.532 433.391 181.58 433.414 181.622 433.438 181.658 433.461 181.694 433.484 181.736 433.508 181.783 433.531 183.768 434.559 185.37 435.511 186.589 436.387 187.808 437.263 188.848 438.495 189.709 440.084 190.57 441.672 191 443.704 191 446.181L191 450.42C191 453.06 190.492 455.32 189.476 457.201 188.46 459.081 186.983 460.518 185.047 461.511 183.11 462.504 180.791 463 178.09 463 175.364 463 173.021 462.504 171.061 461.511 169.1 460.518 167.6 459.081 166.56 457.201 165.52 455.32 165 453.06 165 450.42L165 447.687 173.858 447.617 173.858 450.35C173.858 451.635 174.228 452.646 174.97 453.381 175.711 454.117 176.739 454.485 178.054 454.485 179.345 454.485 180.343 454.123 181.048 453.399 181.754 452.675 182.106 451.682 182.106 450.42L182.106 445.97C182.106 445.036 181.837 444.224 181.299 443.535 180.761 442.846 180.068 442.25 179.219 441.748 178.371 441.246 177.217 440.644 175.759 439.943 175.663 439.897 175.573 439.85 175.49 439.803 175.406 439.757 175.316 439.71 175.221 439.663L174.755 439.453C172.818 438.495 171.168 437.496 169.805 436.457 168.443 435.417 167.307 434.045 166.399 432.34 165.49 430.634 165.036 428.532 165.036 426.032L165.036 423.404C165.036 420.811 165.544 418.586 166.56 416.729 167.576 414.872 169.052 413.453 170.989 412.472 172.926 411.491 175.257 411 177.982 411Z" fill="#0A1543" fill-rule="evenodd"/><path d="M471.982 411C474.636 411 476.919 411.491 478.832 412.472 480.744 413.453 482.203 414.884 483.207 416.764 484.211 418.645 484.713 420.905 484.713 423.544L484.713 426.418 475.855 426.523 475.855 423.615C475.855 422.306 475.514 421.284 474.833 420.548 474.152 419.813 473.201 419.445 471.982 419.445 470.691 419.445 469.693 419.778 468.988 420.443 468.282 421.109 467.93 422.026 467.93 423.194L467.93 426.593C467.93 427.551 468.187 428.38 468.701 429.081 469.215 429.782 469.86 430.372 470.637 430.85 471.414 431.329 472.496 431.907 473.883 432.585 474.146 432.702 474.415 432.83 474.69 432.97 474.965 433.111 475.246 433.251 475.532 433.391 475.58 433.414 475.622 433.438 475.658 433.461 475.694 433.484 475.736 433.508 475.783 433.531 477.768 434.559 479.37 435.511 480.589 436.387 481.808 437.263 482.848 438.495 483.709 440.084 484.57 441.672 485 443.704 485 446.181L485 450.42C485 453.06 484.492 455.32 483.476 457.201 482.46 459.081 480.983 460.518 479.047 461.511 477.11 462.504 474.791 463 472.09 463 469.364 463 467.021 462.504 465.061 461.511 463.1 460.518 461.6 459.081 460.56 457.201 459.52 455.32 459 453.06 459 450.42L459 447.687 467.858 447.617 467.858 450.35C467.858 451.635 468.228 452.646 468.97 453.381 469.711 454.117 470.739 454.485 472.054 454.485 473.345 454.485 474.343 454.123 475.048 453.399 475.754 452.675 476.106 451.682 476.106 450.42L476.106 445.97C476.106 445.036 475.837 444.224 475.299 443.535 474.761 442.846 474.068 442.25 473.219 441.748 472.371 441.246 471.217 440.644 469.759 439.943 469.663 439.897 469.573 439.85 469.49 439.803 469.406 439.757 469.316 439.71 469.221 439.663L468.754 439.453C466.818 438.495 465.168 437.496 463.805 436.457 462.443 435.417 461.307 434.045 460.399 432.34 459.49 430.634 459.036 428.532 459.036 426.032L459.036 423.404C459.036 420.811 459.544 418.586 460.56 416.729 461.576 414.872 463.052 413.453 464.989 412.472 466.926 411.491 469.257 411 471.982 411Z" fill="#0A1543" fill-rule="evenodd"/><path d="M530.5 411C533.127 411 535.377 411.508 537.251 412.524 539.126 413.54 540.552 415.024 541.531 416.974 542.51 418.925 543 421.267 543 424L543 428.1 534.01 428.1 534.01 424C534.01 423.136 533.879 422.388 533.616 421.757 533.353 421.127 532.953 420.642 532.416 420.303 531.879 419.964 531.24 419.795 530.5 419.795 529.784 419.795 529.163 419.959 528.637 420.286 528.112 420.613 527.712 421.092 527.438 421.722 527.163 422.353 527.026 423.101 527.026 423.965L527.026 450.035C527.026 450.899 527.163 451.641 527.438 452.26 527.712 452.879 528.112 453.352 528.637 453.679 529.163 454.006 529.784 454.17 530.5 454.17 531.264 454.17 531.909 454.006 532.434 453.679 532.959 453.352 533.353 452.879 533.616 452.26 533.879 451.641 534.01 450.888 534.01 450L534.01 445.9 543 445.9 543 450C543 452.733 542.51 455.075 541.531 457.026 540.552 458.976 539.126 460.46 537.251 461.476 535.377 462.492 533.127 463 530.5 463 527.873 463 525.629 462.492 523.766 461.476 521.904 460.46 520.477 458.982 519.486 457.043 518.495 455.104 518 452.768 518 450.035L518 423.965C518 421.232 518.495 418.896 519.486 416.957 520.477 415.018 521.904 413.54 523.766 412.524 525.629 411.508 527.873 411 530.5 411Z" fill="#0A1543" fill-rule="evenodd"/><path d="M578 411 581.882 411 586.499 411 590.521 411C593.272 411 595.621 411.45 597.568 412.349 599.515 413.249 601.001 414.569 602.027 416.31 603.053 418.051 603.566 420.137 603.566 422.567L603.566 428.526C603.566 431.026 603.053 433.17 602.027 434.958 601.001 436.745 599.509 438.107 597.551 439.041L597.48 439.064 605 462 595.697 462 589.407 440.443 586.499 440.443 586.499 462 578 462 578 411ZM586.499 419.342 586.499 432.101 591.045 432.101C591.791 432.101 592.438 431.967 592.986 431.698 593.534 431.429 593.948 431.044 594.228 430.541 594.508 430.039 594.648 429.437 594.648 428.736L594.648 423.058C594.648 422.287 594.508 421.621 594.228 421.06 593.948 420.499 593.534 420.073 592.986 419.78 592.438 419.488 591.791 419.342 591.045 419.342L586.499 419.342Z" fill="#0A1543" fill-rule="evenodd"/><path d="M196 411 205 411 205 462 196 462 196 411Z" fill="#0A1543" fill-rule="evenodd"/><path d="M211 411 219.447 411 228 438.71 236.766 411 245 411 245 462 237.157 462 237.157 430.374 230.2 452.986 225.8 452.986 219.021 431.585 219.021 462 211 462 211 411Z" fill="#0A1543" fill-rule="evenodd"/><path d="M251 411 255.017 411 259.587 411 264.158 411C266.651 411 268.786 411.444 270.564 412.333 272.341 413.221 273.692 414.525 274.615 416.244 275.538 417.962 276 420.026 276 422.435L276 431.028C276 433.39 275.533 435.407 274.598 437.079 273.663 438.751 272.307 440.025 270.529 440.902 268.752 441.779 266.628 442.217 264.158 442.217L259.587 442.217 259.587 462 251 462 251 411ZM259.587 419.348 259.587 433.869 263.916 433.869C264.608 433.869 265.208 433.706 265.716 433.378 266.224 433.051 266.616 432.572 266.893 431.94 267.17 431.309 267.309 430.561 267.309 429.695L267.309 423.697C267.309 422.785 267.176 422.002 266.911 421.347 266.645 420.693 266.259 420.196 265.751 419.857 265.243 419.518 264.631 419.348 263.916 419.348L259.587 419.348Z" fill="#0A1543" fill-rule="evenodd"/><path d="M282 411 290.716 411 290.716 453.652 304 453.652 304 462 290.716 462 285.585 462 282 462 282 411Z" fill="#0A1543" fill-rule="evenodd"/><path d="M309 411 312.916 411 317.83 411 332 411 332 419.488 317.83 419.488 317.83 432.431 330.22 432.431 330.22 440.885 317.83 440.885 317.83 453.512 332 453.512 332 462 317.83 462 312.916 462 309 462 309 411Z" fill="#0A1543" fill-rule="evenodd"/><path d="M359.993 411 366.007 411 378 462 369.498 462 367.957 454.073 358.043 454.073 356.502 462 348 462 359.993 411ZM363 428.573 359.625 445.935 366.375 445.935 363 428.573Z" fill="#0A1543" fill-rule="evenodd"/><path d="M382 411 388.889 411 400.016 442.359 400.016 411 408 411 408 462 401.041 462 390.019 432.387 390.019 462 382 462 382 411Z" fill="#0A1543" fill-rule="evenodd"/><path d="M414 411 419.843 411 422.782 411 427.315 411C429.77 411 431.871 411.45 433.618 412.35 435.365 413.251 436.698 414.56 437.619 416.279 438.54 417.998 439 420.05 439 422.435L439 450.565C439 452.951 438.54 455.002 437.619 456.721 436.698 458.44 435.359 459.749 433.6 460.65 431.841 461.55 429.734 462 427.279 462L422.782 462 419.843 462 414 462 414 411ZM422.782 419.348 422.782 453.652 426.429 453.652C427.61 453.652 428.518 453.295 429.156 452.582 429.793 451.869 430.112 450.869 430.112 449.583L430.112 423.417C430.112 422.131 429.793 421.131 429.156 420.418 428.518 419.705 427.61 419.348 426.429 419.348L422.782 419.348Z" fill="#0A1543" fill-rule="evenodd"/><path d="M491 411 494.916 411 499.83 411 514 411 514 419.488 499.83 419.488 499.83 432.431 512.22 432.431 512.22 440.885 499.83 440.885 499.83 453.512 514 453.512 514 462 499.83 462 494.916 462 491 462 491 411Z" fill="#0A1543" fill-rule="evenodd"/><path d="M547 411 555.944 411 555.944 450.257C555.944 451.507 556.255 452.481 556.878 453.177 557.5 453.873 558.363 454.221 559.464 454.221 560.59 454.221 561.47 453.873 562.104 453.177 562.739 452.481 563.056 451.507 563.056 450.257L563.056 411 572 411 572 450.009C572 452.723 571.503 455.053 570.509 457 569.516 458.947 568.079 460.434 566.199 461.46 564.319 462.487 562.074 463 559.464 463 556.878 463 554.645 462.487 552.765 461.46 550.885 460.434 549.455 458.947 548.473 457 547.491 455.053 547 452.723 547 450.009L547 411Z" fill="#0A1543" fill-rule="evenodd"/><path d="M611 411 614.916 411 619.83 411 634 411 634 419.488 619.83 419.488 619.83 432.431 632.22 432.431 632.22 440.885 619.83 440.885 619.83 453.512 634 453.512 634 462 619.83 462 614.916 462 611 462 611 411Z" fill="#0A1543" fill-rule="evenodd"/></g></svg>